SplineFontDB: 3.2
FontName: RallyDisplay-Medium
FullName: Rally Display Medium
FamilyName: Rally Display
Weight: Medium
Copyright: Copyright (c) 2023-2024, Zamero Type Foundry
UComments: "2023-12-31: Created with FontForge (http://fontforge.org)+AAoACgAK-Magical cartoon rabbit. :)"
Version: 001.000
ItalicAngle: 0
UnderlinePosition: -100
UnderlineWidth: 50
Ascent: 800
Descent: 200
InvalidEm: 0
LayerCount: 2
Layer: 0 0 "Back" 1
Layer: 1 0 "Fore" 0
XUID: [1021 474 1118879153 10182]
StyleMap: 0x0040
FSType: 0
OS2Version: 0
OS2_WeightWidthSlopeOnly: 0
OS2_UseTypoMetrics: 1
CreationTime: 1704051534
ModificationTime: 1732898158
PfmFamily: 81
TTFWeight: 500
TTFWidth: 5
LineGap: 90
VLineGap: 90
OS2TypoAscent: 0
OS2TypoAOffset: 1
OS2TypoDescent: 0
OS2TypoDOffset: 1
OS2TypoLinegap: 90
OS2WinAscent: 0
OS2WinAOffset: 1
OS2WinDescent: 0
OS2WinDOffset: 1
HheadAscent: 0
HheadAOffset: 1
HheadDescent: 0
HheadDOffset: 1
OS2Vendor: 'ZAM '
Lookup: 1 0 0 "'subs' Subscript lookup 0" { "'subs' Subscript lookup 0 subtable" ("inferior") } ['subs' ('DFLT' <'dflt' > ) ]
Lookup: 1 0 0 "'onum' Oldstyle Figures lookup 27" { "'onum' Oldstyle Figures lookup 27-1" ("osf") } ['onum' ('DFLT' <'dflt' > 'grek' <'dflt' > 'latn' <'AZE ' 'CAT ' 'CRT ' 'KAZ ' 'MOL ' 'NLD ' 'ROM ' 'TAT ' 'TRK ' 'dflt' > ) ]
Lookup: 1 0 0 "'ss16' Style Set 16 lookup 26" { "'ss16' Style Set 16 lookup 26-1" ("ss16") } ['ss16' ('DFLT' <'dflt' > 'grek' <'dflt' > 'latn' <'AZE ' 'CAT ' 'CRT ' 'KAZ ' 'MOL ' 'NLD ' 'ROM ' 'TAT ' 'TRK ' 'dflt' > ) ]
Lookup: 1 0 0 "'init' Initial Forms lookup 24" { "'init' Initial Forms lookup 24-1" ("init") } ['init' ('DFLT' <'dflt' > 'grek' <'dflt' > 'latn' <'AZE ' 'CAT ' 'CRT ' 'KAZ ' 'MOL ' 'NLD ' 'ROM ' 'TAT ' 'TRK ' 'dflt' > ) ]
Lookup: 1 0 0 "'fina' Terminal Forms lookup 25" { "'fina' Terminal Forms lookup 25-1" ("fina") } ['fina' ('DFLT' <'dflt' > 'grek' <'dflt' > 'latn' <'AZE ' 'CAT ' 'CRT ' 'KAZ ' 'MOL ' 'NLD ' 'ROM ' 'TAT ' 'TRK ' 'dflt' > ) ]

StartChar: dotlessi
Encoding: 239 305 1
Width: 315
Flags: W
HStem: 0 21G<118.83 255.159> 391.084 105.927<13.6201 123.151>
VStem: 118.83 136.329<0 391.084>
LayerCount: 2
Back
SplineSet
274.729492188 496.93359375 m 5
 280.159179688 0 l 5
 83.830078125 0 l 5
 90 496.93359375 l 5
 274.729492188 496.93359375 l 5
EndSplineSet
Fore
SplineSet
249.729492188 497.010742188 m 1
 255.159179688 0 l 1
 118.830078125 0 l 1
 123.151367188 391.083984375 l 1
 10 389.080078125 l 1
 13.6201171875 497.010742188 l 1
 249.729492188 497.010742188 l 1
EndSplineSet
EndChar

StartChar: period
Encoding: 14 46 2
Width: 267
Flags: W
HStem: -10 166<78.3485 196.652>
VStem: 54.5 166<13.8485 132.152>
LayerCount: 2
Fore
SplineSet
54.5 73 m 0
 54.5 123.722549716 86.7774502842 156 137.5 156 c 0
 188.222549716 156 220.5 123.722549716 220.5 73 c 0
 220.5 22.2774502841 188.222549716 -10 137.5 -10 c 0
 86.7774502842 -10 54.5 22.2774502841 54.5 73 c 0
EndSplineSet
EndChar

StartChar: o
Encoding: 79 111 3
Width: 565
Flags: W
HStem: -10.0664 117.675<211.65 352.566> 389.259 117.675<207.194 357.037>
VStem: 27.5 126.875<165.404 333.048> 409.875 127.625<165.404 333.048>
LayerCount: 2
Fore
SplineSet
154.375 249.858398438 m 0
 154.375 162.927680407 204.016483406 107.608398438 282.025390625 107.608398438 c 0
 360.156039346 107.608398438 409.875 162.927680407 409.875 249.858398438 c 0
 409.875 335.048018473 360.156039346 389.258789062 282.025390625 389.258789062 c 0
 204.016483406 389.258789062 154.375 335.048018473 154.375 249.858398438 c 0
27.5 249.93359375 m 0
 27.5 406.989257812 126.472114771 506.93359375 282 506.93359375 c 0
 438.139211256 506.93359375 537.5 406.989257812 537.5 249.93359375 c 0
 537.5 91.0439453125 438.139211256 -10.06640625 282 -10.06640625 c 0
 126.472114771 -10.06640625 27.5 91.0439453125 27.5 249.93359375 c 0
EndSplineSet
EndChar

StartChar: slash
Encoding: 15 47 4
Width: 497
Flags: W
LayerCount: 2
Back
SplineSet
1 -123.994140625 m 1
 198.637695312 379 l 1
 317 815.001953125 l 1
 506 763.001953125 l 1
 328.983398438 331 l 1
 190 -175.994140625 l 1
 1 -123.994140625 l 1
EndSplineSet
Fore
SplineSet
31 -131.494140625 m 1
 347 807.501953125 l 1
 466 770.501953125 l 1
 150 -168.494140625 l 1
 31 -131.494140625 l 1
EndSplineSet
Substitution2: "'frac' Diagonal Fractions in Latin lookup 25 subtable" fraction
EndChar

StartChar: d
Encoding: 68 100 5
Width: 674
Flags: W
HStem: -10.0664 115<216.068 360.527> 0 105.927<561.849 660.88> 391.934 115<216.068 365.22> 735.002 20G<431.875 559.252>
VStem: 27.5 128.75<164.382 330.841> 422.75 139.099<160.155 335.545> 427.271 70.2295<119.332 414.379> 432 127.17<268.934 755.002>
LayerCount: 2
Back
SplineSet
387.270507812 755.001953125 m 5
 381.840820312 0 l 5
 578.169921875 0 l 5
 573.848632812 604.075195312 l 5
 672 602.071289062 l 5
 668.379882812 755.001953125 l 5
 387.270507812 755.001953125 l 5
EndSplineSet
Fore
SplineSet
422.75 246.93359375 m 0xbc
 422.75 335.545019531 371.125496701 391.93359375 290 391.93359375 c 0
 208.263064298 391.93359375 156.25 335.545019531 156.25 246.93359375 c 0
 156.25 160.155021746 208.263064298 104.93359375 290 104.93359375 c 0
 371.125496701 104.93359375 422.75 160.155021746 422.75 246.93359375 c 0xbc
497.5 268.93359375 m 0xba
 497.5 119.332150829 416.200586798 -10.06640625 263 -10.06640625 c 0
 119.082660875 -10.06640625 27.5 89.8779296875 27.5 246.93359375 c 0
 27.5 405.823242188 119.082660875 506.93359375 263 506.93359375 c 0
 406.306003924 506.93359375 497.5 414.378617222 497.5 268.93359375 c 0xba
427.270507812 0 m 1x7a
 432 755.001953125 l 1
 559.169921875 755.001953125 l 1x79
 561.848632812 105.926757812 l 1x7c
 664.5 107.930664062 l 1
 660.879882812 0 l 1
 427.270507812 0 l 1x7a
EndSplineSet
EndChar

StartChar: p
Encoding: 80 112 6
Width: 667
Flags: W
HStem: -10.0664 115<301.78 450.933> 391.084 105.927<13.6201 108.151> 391.934 115<302.361 450.933>
VStem: 169.5 65.2295<91.2385 387.97> 510.75 128.75<166.026 332.485>
LayerCount: 2
Fore
SplineSet
244.25 249.93359375 m 0xb8
 244.25 161.321927584 295.874165853 104.93359375 377 104.93359375 c 0
 458.737166622 104.93359375 510.75 161.321927584 510.75 249.93359375 c 0
 510.75 336.712258732 458.737166622 391.93359375 377 391.93359375 c 0
 295.874165853 391.93359375 244.25 336.712258732 244.25 249.93359375 c 0xb8
169.5 250.43359375 m 0
 169.5 387.970214844 250.799316406 506.93359375 404 506.93359375 c 0
 547.917480469 506.93359375 639.5 406.989257812 639.5 249.93359375 c 0
 639.5 91.0439453125 547.917480469 -10.06640625 404 -10.06640625 c 0
 260.693847656 -10.06640625 169.5 91.2385253906 169.5 250.43359375 c 0
234.729492188 497.010742188 m 1xd8
 240.159179688 -174 l 1
 103.830078125 -174 l 1
 108.151367188 391.083984375 l 1
 10 389.080078125 l 1
 13.6201171875 497.010742188 l 1
 234.729492188 497.010742188 l 1xd8
EndSplineSet
EndChar

StartChar: t
Encoding: 84 116 7
Width: 430
Flags: W
HStem: 387.25 109.75<12.75 278.948> 480 20G<177.25 394.849>
VStem: 115.08 129.049<155.316 466.266>
LayerCount: 2
Fore
SplineSet
12.75 497 m 1xa0
 177.25 493 l 1
 395.25 500 l 1x60
 392.75 375.25 l 1
 174.25 388.5 l 1
 9.25 387.25 l 1
 12.75 497 l 1xa0
244.12890625 259.5 m 0
 244.12890625 161.499363775 261.420406744 124.791946346 361.909179688 108.180664062 c 1
 335.7890625 -16 l 1
 154.844221849 33.078125 115.080078125 72 115.080078125 262 c 0
 115.080078125 362.611816406 129.401367188 650.546875 129.401367188 650.546875 c 1
 254.229492188 646.5 l 1
 254.229492188 646.5 244.12890625 389.565871147 244.12890625 259.5 c 0
EndSplineSet
EndChar

StartChar: l
Encoding: 76 108 8
Width: 392
Flags: W
HStem: 0 106.397<269.129 378.539> 649.075 105.927<28.6201 138.151>
VStem: 133.83 135.299<106.397 649.075>
LayerCount: 2
Back
SplineSet
105.334960938 140.244140625 m 5
 109.862304688 751.69921875 l 5
 349.01953125 797.84375 l 5
 404.7265625 645.374023438 l 5
 295.80859375 623.6875 l 5
 300.63671875 14.7734375 l 5
 48.3994140625 -44.3125 l 5
 -7.3076171875 108.157226562 l 5
 105.334960938 140.244140625 l 5
EndSplineSet
Fore
SplineSet
269.12890625 106.397460938 m 1
 382.159179688 107.930664062 l 1
 378.5390625 0 l 1
 133.830078125 0 l 1
 138.151367188 649.075195312 l 1
 25 647.071289062 l 1
 28.6201171875 755.001953125 l 1
 264.729492188 755.001953125 l 1
 269.12890625 106.397460938 l 1
EndSplineSet
EndChar

StartChar: e
Encoding: 69 101 9
Width: 541
Flags: W
HStem: -23.9004 107.551<276.451 429.319> 196.75 90.25<135.25 389> 398.434 108.5<206.797 347.315>
VStem: 388.682 129.437<291.002 356.34>
LayerCount: 2
Back
SplineSet
145 251.93359375 m 0
 145 118.399011671 234.924400059 91.0845098901 427.2890625 79.900390625 c 1
 411.819335938 -23.900390625 l 1
 195.319904327 -22.2919921875 30 49 30 259 c 0
 30 399.989257812 114.333684792 506.93359375 271 506.93359375 c 0
 466.952995619 506.93359375 517.619140625 377.117081999 517.619140625 261.659179688 c 0
 517.619140625 223.858398438 512 196 512 196 c 1
 130 193 l 1
 115 279 l 1
 404 283 l 1
 404 283 404.043226139 284.065301324 404.043226139 285.999999724 c 0
 404.043226139 306 397.916066056 408.93359375 277 408.93359375 c 0
 172.754005142 408.93359375 145 332.861387567 145 251.93359375 c 0
EndSplineSet
Fore
SplineSet
157 251.93359375 m 0
 157 124.277033262 240.15440343 95.1109593766 441.0390625 83.650390625 c 1
 429.319335938 -23.900390625 l 1
 193.979492188 -22.2919921875 27.5 49 27.5 259 c 0
 27.5 399.989257812 112.708515547 506.93359375 271 506.93359375 c 0
 467.350274182 506.93359375 518.119140625 379.101846373 518.119140625 265.409179688 c 0
 518.119140625 227.608398438 512.5 199.75 512.5 199.75 c 1
 135.25 196.75 l 1
 120.25 287 l 1
 389 291 l 1
 389 291 388.970265645 293.771178992 388.682387871 297.999999914 c 0
 387.789771394 339.321536346 360.789669021 398.43359375 278 398.43359375 c 0
 182.44117138 398.43359375 157 327.449019191 157 251.93359375 c 0
EndSplineSet
Substitution2: "'ss17' Style Set 17 lookup 29-1" e.ss17
Substitution2: "'ss15' Style Set 15 lookup 23-1" e.ss15
Substitution2: "'ss04' Style Set 4 lookup 12-1" e.ss04
EndChar

StartChar: s
Encoding: 83 115 10
Width: 388
Flags: W
HStem: 495.9 20G<284.553 287.824>
VStem: 35 136.932<322.859 385.276> 216.438 136.852<121.891 192.684>
LayerCount: 2
Fore
SplineSet
284.552734375 515.900390625 m 1
 300.982421875 415.450195312 l 1
 300.982421875 415.450195312 171.931640625 408.038362907 171.931640625 356 c 0
 171.931640625 335.454633192 185.833092068 321.401271858 243.657226562 297.720947266 c 0
 320.852396908 265.819704586 353.2890625 224.906327398 353.2890625 160.75 c 0
 353.2890625 -20.1300992021 70.5390625 -23.900390625 70.5390625 -23.900390625 c 1
 55.8193359375 85.650390625 l 1
 55.8193359375 85.650390625 216.4375 92.7207433954 216.4375 156.5 c 0
 216.4375 184.893002861 193.896562636 199.632663154 137.036132812 222.950195312 c 0
 60.0647415119 255.708493308 35 291.525387032 35 347.75 c 0
 35 511.624057557 284.552734375 515.900390625 284.552734375 515.900390625 c 1
EndSplineSet
EndChar

StartChar: b
Encoding: 66 98 11
Width: 667
Flags: W
HStem: -10.0664 115<306.473 450.933> 0 21G<103.83 240.159> 391.934 115<301.78 450.933> 649.075 105.927<13.6201 108.151>
VStem: 108.151 126.578<268.934 649.075> 169.5 70.6592<119.332 414.379> 510.75 128.75<164.382 330.841>
LayerCount: 2
Fore
SplineSet
244.25 246.93359375 m 0xb2
 244.25 160.154928768 295.874165853 104.93359375 377 104.93359375 c 0
 458.737166622 104.93359375 510.75 160.154928768 510.75 246.93359375 c 0
 510.75 335.545259916 458.737166622 391.93359375 377 391.93359375 c 0
 295.874165853 391.93359375 244.25 335.545259916 244.25 246.93359375 c 0xb2
169.5 268.93359375 m 0xb6
 169.5 414.37890625 260.693847656 506.93359375 404 506.93359375 c 0
 547.917480469 506.93359375 639.5 405.823242188 639.5 246.93359375 c 0
 639.5 89.8779296875 547.917480469 -10.06640625 404 -10.06640625 c 0
 250.799316406 -10.06640625 169.5 119.331787109 169.5 268.93359375 c 0xb6
234.729492188 755.001953125 m 1x7a
 240.159179688 0 l 1x76
 103.830078125 0 l 1
 108.151367188 649.075195312 l 1
 10 647.071289062 l 1
 13.6201171875 755.001953125 l 1
 234.729492188 755.001953125 l 1x7a
EndSplineSet
EndChar

StartChar: grave
Encoding: 64 96 12
Width: 230
Flags: W
HStem: 524.22 216.284
VStem: 8.5 213.518
LayerCount: 2
Fore
SplineSet
80.6767578125 740.50390625 m 1
 222.017578125 574.965820312 l 1
 174.580078125 524.219726562 l 1
 8.5 664.68359375 l 1
 80.6767578125 740.50390625 l 1
EndSplineSet
EndChar

StartChar: q
Encoding: 81 113 13
Width: 682
Flags: W
HStem: -173.994 105.927<561.849 660.88> -10.0664 115<216.068 360.527> 391.934 115<216.068 365.22> 476.934 20G<431.859 559.265>
VStem: 27.5 128.75<164.382 330.841> 432 127.17<268.934 496.934> 432 65.5<119.332 414.379>
LayerCount: 2
Fore
SplineSet
422.75 246.93359375 m 0xe8
 422.75 335.545019531 371.125496701 391.93359375 290 391.93359375 c 0
 208.263064298 391.93359375 156.25 335.545019531 156.25 246.93359375 c 0
 156.25 160.155021746 208.263064298 104.93359375 290 104.93359375 c 0
 371.125496701 104.93359375 422.75 160.155021746 422.75 246.93359375 c 0xe8
497.5 268.93359375 m 0xea
 497.5 119.332150829 416.200586798 -10.06640625 263 -10.06640625 c 0
 119.082660875 -10.06640625 27.5 89.8779296875 27.5 246.93359375 c 0
 27.5 405.823242188 119.082660875 506.93359375 263 506.93359375 c 0
 406.306003924 506.93359375 497.5 414.378617222 497.5 268.93359375 c 0xea
427.270507812 -173.994140625 m 1
 432 496.93359375 l 1
 559.169921875 496.93359375 l 1xdc
 561.848632812 -68.0673828125 l 1
 664.5 -66.0634765625 l 1
 660.879882812 -173.994140625 l 1
 427.270507812 -173.994140625 l 1
EndSplineSet
EndChar

StartChar: a
Encoding: 65 97 14
Width: 674
Flags: W
HStem: -10.0664 115<216.068 360.527> 0 105.927<561.849 660.88> 391.934 115<216.068 365.22> 477.002 20G<431.81 559.307>
VStem: 27.5 128.75<164.382 330.841> 422.75 139.099<160.155 335.545> 432 127.17<268.934 497.002> 432 65.5<119.332 414.379>
LayerCount: 2
Back
SplineSet
434 246.93359375 m 0xac
 434 342.267265625 377.222768499 402.93359375 288 402.93359375 c 0
 200.610229493 402.93359375 145 342.267265625 145 246.93359375 c 0
 145 153.432738 200.610229493 93.93359375 288 93.93359375 c 0
 377.222768499 93.93359375 434 153.432738 434 246.93359375 c 0xac
505 263.93359375 m 0xa9
 505 117.013180272 422.833855314 -10.06640625 268 -10.06640625 c 0
 122.554875959 -10.06640625 30 89.8779296875 30 246.93359375 c 0
 30 405.823242188 122.554875959 506.93359375 268 506.93359375 c 0
 412.833786481 506.93359375 505 412.434184942 505 263.93359375 c 0xa9
442.270507812 0 m 1x5c
 447 497.001953125 l 1
 554.169921875 497.001953125 l 1x5a
 556.848632812 90.9267578125 l 1
 662 92.9306640625 l 1
 658.379882812 0 l 1
 442.270507812 0 l 1x5c
EndSplineSet
Fore
SplineSet
422.75 246.93359375 m 0xac
 422.75 335.545019531 371.125496701 391.93359375 290 391.93359375 c 0
 208.263064298 391.93359375 156.25 335.545019531 156.25 246.93359375 c 0
 156.25 160.155021746 208.263064298 104.93359375 290 104.93359375 c 0
 371.125496701 104.93359375 422.75 160.155021746 422.75 246.93359375 c 0xac
497.5 268.93359375 m 0xa9
 497.5 119.332150829 416.200586798 -10.06640625 263 -10.06640625 c 0
 119.082660875 -10.06640625 27.5 89.8779296875 27.5 246.93359375 c 0
 27.5 405.823242188 119.082660875 506.93359375 263 506.93359375 c 0
 406.306003924 506.93359375 497.5 414.378617222 497.5 268.93359375 c 0xa9
427.270507812 0 m 1x5c
 432 497.001953125 l 1
 559.169921875 497.001953125 l 1x5a
 561.848632812 105.926757812 l 1
 664.5 107.930664062 l 1
 660.879882812 0 l 1
 427.270507812 0 l 1x5c
EndSplineSet
Substitution2: "'ss03' Style Set 3 lookup 11-1" a.ss03
EndChar

StartChar: h
Encoding: 72 104 15
Width: 645
Flags: W
HStem: 0 21G<126.33 262.659> 392.934 114<307.414 437.668> 649.075 105.927<13.6201 130.651>
VStem: 126.33 136.329<0 649.075> 473.5 132<-2.27343 354.733>
LayerCount: 2
Fore
SplineSet
180.5 253.93359375 m 1
 201.798424546 411.989257812 268.972118144 506.93359375 408 506.93359375 c 0
 538.128662109 506.93359375 605.5 429.158185206 605.5 278.93359375 c 0
 605.5 134.376961497 587.659179688 -15 587.659179688 -15 c 1
 453.330078125 0 l 1
 453.330078125 0 473.5 138.27822412 473.5 251.93359375 c 0
 473.5 341.432072129 447.691894531 392.93359375 374.5 392.93359375 c 0
 297.184229395 392.93359375 257.652704462 343.439941406 243.5 216.93359375 c 1
 180.5 253.93359375 l 1
257.229492188 755.001953125 m 1
 262.659179688 0 l 1
 126.330078125 0 l 1
 130.651367188 649.075195312 l 1
 10 647.071289062 l 1
 13.6201171875 755.001953125 l 1
 257.229492188 755.001953125 l 1
EndSplineSet
EndChar

StartChar: n
Encoding: 78 110 16
Width: 638
Flags: W
HStem: 0 21G<118.83 255.159> 391.075 105.927<13.6201 123.151> 392.934 114<299.914 430.168>
VStem: 118.83 136.329<0 253.934> 466 132<-2.27343 354.733>
LayerCount: 2
Fore
SplineSet
173 253.93359375 m 1xb8
 194.298424546 411.989257812 261.472118144 506.93359375 400.5 506.93359375 c 0
 530.628662109 506.93359375 598 429.158185206 598 278.93359375 c 0
 598 134.376961497 580.159179688 -15 580.159179688 -15 c 1
 445.830078125 0 l 1
 445.830078125 0 466 138.27822412 466 251.93359375 c 0
 466 341.432072129 440.191894531 392.93359375 367 392.93359375 c 0
 289.684229395 392.93359375 250.152704462 343.439941406 236 216.93359375 c 1
 173 253.93359375 l 1xb8
249.729492188 497.001953125 m 1xd8
 255.159179688 0 l 1
 118.830078125 0 l 1
 123.151367188 391.075195312 l 1
 10 389.071289062 l 1
 13.6201171875 497.001953125 l 1
 249.729492188 497.001953125 l 1xd8
EndSplineSet
EndChar

StartChar: I
Encoding: 41 73 17
Width: 468
Flags: W
HStem: 0 119<28.958 153.084 307.21 440.287> 603.08 127.931<33.748 156.279 304.135 430.857>
VStem: 153.084 154.126<119 604>
LayerCount: 2
Back
SplineSet
339.857421875 731.010742188 m 5
 345.287109375 0 l 5
 128.958007812 0 l 5
 133.279296875 560.083984375 l 5
 15.1279296875 558.080078125 l 5
 18.748046875 731.010742188 l 5
 339.857421875 731.010742188 l 5
EndSplineSet
Fore
SplineSet
430.857421875 731.010742188 m 1
 437.127929688 601 l 1
 304.134765625 604 l 1
 307.209960938 119 l 1
 443.26953125 123 l 1
 440.287109375 0 l 1
 28.9580078125 0 l 1
 25 121 l 1
 153.083984375 119 l 1
 156.279296875 605.083984375 l 1
 30.1279296875 603.080078125 l 1
 33.748046875 731.010742188 l 1
 430.857421875 731.010742188 l 1
EndSplineSet
EndChar

StartChar: c
Encoding: 67 99 18
Width: 471
Flags: W
HStem: -10.0664 117.25<221.94 408.765> 391.184 115.75<219.706 385.959>
VStem: 27.5 132.5<166.684 332.266>
LayerCount: 2
Back
SplineSet
20 249.93359375 m 0
 20 406.989257812 127.722105271 506.93359375 297 506.93359375 c 0
 415.535915516 506.93359375 465.916992188 450.782226562 465.916992188 450.782226562 c 1
 409.647460938 308.369140625 l 1
 409.647460938 308.369140625 373.776884975 346.93359375 318 346.93359375 c 4
 252.610710758 346.93359375 211 309.211914062 211 249.93359375 c 0
 211 180.822265625 247.426625003 154.52486356 323.040039062 139.244140625 c 0
 407.435563152 122.917258333 455.553710938 87 455.553710938 1.279296875 c 0
 455.553710938 -81.1748046875 404 -147 404 -147 c 1
 280 -97 l 1
 280 -97 295.76171875 -74 295.76171875 -54 c 0
 295.76171875 -29.5654296875 282.579369985 -17.3599949932 223.834960938 -5.6943359375 c 0
 112.853515625 16.3447265625 20 91.0439453125 20 249.93359375 c 0
EndSplineSet
Fore
SplineSet
27.5 249.93359375 m 0
 27.5 406.989257812 130.847110021 506.93359375 293.25 506.93359375 c 0
 403.891333495 506.93359375 450.916992188 458.282226562 450.916992188 458.282226562 c 1
 409.647460938 354.119140625 l 1
 409.647460938 354.119140625 366.438184127 391.18359375 299.25 391.18359375 c 0
 214.152256758 391.18359375 160 336.253828226 160 249.93359375 c 0
 160 162.697172852 209.396191406 107.18359375 306 107.18359375 c 0
 390.399521791 107.18359375 433.1484375 143.364257812 433.1484375 143.364257812 c 1
 460.146484375 30.06640625 l 1
 460.146484375 30.06640625 417.9410322 -10.06640625 287 -10.06640625 c 0
 128.416557105 -10.06640625 27.5 91.0439453125 27.5 249.93359375 c 0
EndSplineSet
EndChar

StartChar: equal
Encoding: 29 61 19
Width: 450
Flags: W
HStem: 189.5 106.75<149.451 417.5> 199.75 102.25<26.75 293.049> 362.5 112.75<40.1552 422.5> 369.75 100.75<28.25 408.845>
LayerCount: 2
Fore
SplineSet
26.75 302 m 1x40
 419.25 296.25 l 1
 417.5 189.5 l 1x80
 25 199.75 l 1
 26.75 302 l 1x40
28.25 470.5 m 1x10
 424.25 475.25 l 1
 422.5 362.5 l 1x20
 26.5 369.75 l 1
 28.25 470.5 l 1x10
EndSplineSet
EndChar

StartChar: k
Encoding: 75 107 20
Width: 610
Flags: W
HStem: 0 21G<126.33 262.659> 494 20G<453.035 495.586> 649.075 105.927<13.6201 130.651>
VStem: 126.33 136.329<0 649.075>
LayerCount: 2
Fore
SplineSet
473.5 514 m 25
 563.5 432.5 l 25
 368.5 255 l 25
 585.5 77 l 25
 491 -17 l 25
 209.5 256 l 25
 473.5 514 l 25
257.229492188 755.001953125 m 1
 262.659179688 0 l 1
 126.330078125 0 l 1
 130.651367188 649.075195312 l 1
 10 647.071289062 l 1
 13.6201171875 755.001953125 l 1
 257.229492188 755.001953125 l 1
EndSplineSet
Substitution2: "'ss06' Style Set 6 lookup 14-1" k.ss06
EndChar

StartChar: m
Encoding: 77 109 21
Width: 943
Flags: W
HStem: 0 21G<118.83 255.159> 391.075 105.927<13.6201 123.151> 392.934 114<301.373 423.007 628.338 742.781>
VStem: 118.83 136.329<0 253.934> 448.5 132<5.42832 397.26> 771 132<6.66211 365.532>
LayerCount: 2
Fore
SplineSet
495.5 253.93359375 m 1xbc
 515.274658203 411.989257812 596.418457031 506.93359375 725.5 506.93359375 c 0
 842.450927735 506.93359375 903 439.391601562 903 308.93359375 c 0
 903 149.623046875 885.159179688 -15 885.159179688 -15 c 1
 750.830078125 0 l 1
 750.830078125 0 771 154.744140625 771 281.93359375 c 0
 771 352.389160156 747.798339844 392.93359375 682 392.93359375 c 0
 623.544921875 392.93359375 574.870117187 343.439941406 558.5 216.93359375 c 1
 495.5 253.93359375 l 1xbc
173 253.93359375 m 1
 192.130126953 411.989257812 270.627685547 506.93359375 395.5 506.93359375 c 0
 517.392578125 506.93359375 580.5 439.391601562 580.5 308.93359375 c 0
 580.5 154.541015625 567.659179688 -5 567.659179688 -5 c 1
 438.330078125 0 l 1
 438.330078125 0 448.5 158.860351562 448.5 289.43359375 c 0
 448.5 355.128417969 425.298339844 392.93359375 359.5 392.93359375 c 0
 301.044921875 392.93359375 252.370117187 343.439941406 236 216.93359375 c 1
 173 253.93359375 l 1
249.729492188 497.001953125 m 1xdc
 255.159179688 0 l 1
 118.830078125 0 l 1
 123.151367188 391.075195312 l 1
 10 389.071289062 l 1
 13.6201171875 497.001953125 l 1
 249.729492188 497.001953125 l 1xdc
EndSplineSet
EndChar

StartChar: hyphen
Encoding: 13 45 23
Width: 380
Flags: W
HStem: 197.5 127<90.95 351.75> 206.25 116.5<28.25 286.55>
VStem: 28.25 326
LayerCount: 2
Fore
SplineSet
28.25 322.75 m 1x60
 354.25 324.5 l 1
 351.75 197.5 l 1xa0
 25.75 206.25 l 1
 28.25 322.75 l 1x60
EndSplineSet
EndChar

StartChar: three
Encoding: 19 51 24
Width: 581
Flags: W
HStem: -10.0664 124.5<104.523 348.278> 599.508 131.5<45 331.598>
VStem: 396.667 148.25<157.957 281.079>
LayerCount: 2
Fore
SplineSet
334.5 421 m 1
 347.792445765 421 365.089083712 419.363666313 383.719980763 414.999602021 c 0
 461.823681645 398.28159434 544.916992188 341.913117468 544.916992188 217.7421875 c 0
 544.916992188 68.4924353889 436.805984028 -10.06640625 266.916992188 -10.06640625 c 0
 95.7507714891 -10.06640625 23 34.0849609375 23 34.0849609375 c 1
 57.5 154.5 l 1
 57.5 154.5 134.986228784 114.43359375 242.916992188 114.43359375 c 0
 351.25651281 114.43359375 396.666992188 155.100536554 396.666992188 223.9921875 c 0
 396.666992188 281.149879808 351.89921104 320.4921875 263.416992188 320.4921875 c 0
 192.812346805 320.4921875 155.2578125 303.43359375 155.2578125 303.43359375 c 1
 129 379.5 l 1
 331.59765625 599.5078125 l 1
 37.25 596.5078125 l 1
 45 731.0078125 l 1
 514.016601562 731.0078125 l 1
 524.016601562 634.5078125 l 1
 334.5 421 l 1
EndSplineSet
Substitution2: "'onum' Oldstyle Figures lookup 27-1" three.osf
Substitution2: "'ss01' Style Set 1 lookup 9-1" three.ss01
Substitution2: "'frac' Diagonal Fractions in Latin lookup 26 subtable" three.numr
Substitution2: "'dnom' Denominators lookup 0 subtable" three.dnom
Substitution2: "'numr' Numerators lookup 0 subtable" three.numr
Substitution2: "'sinf' Scientific Inferiors lookup 0 subtable" three.inferior
Substitution2: "'sups' Superscript lookup 0 subtable" three.superior
EndChar

StartChar: eight
Encoding: 24 56 25
Width: 608
Flags: W
HStem: -10.0078 125.989<213.975 387.042> 618.656 120.336<233.329 384.433>
VStem: 35 138.311<153.298 274.16> 61.6787 138.371<485.579 587.164> 417.473 127.685<473.155 584.677> 426.443 147.485<152.786 260.207>
LayerCount: 2
Fore
SplineSet
299.500976562 115.981445312 m 0xe4
 378.219942956 115.981445312 426.443359375 149.926183733 426.443359375 205.336914062 c 0xe4
 426.443359375 257.728883287 387.57096747 290.306895724 271.501953125 326.603515625 c 0
 130.771278866 371.255120712 61.6787109375 435.298052973 61.6787109375 536 c 0
 61.6787109375 660.085723141 157.642020941 738.9921875 308.55078125 738.9921875 c 0
 453.546183336 738.9921875 545.157226562 669.31262037 545.157226562 543.611328125 c 0
 545.157226562 394.455060894 361.553710938 339.5 361.553710938 339.5 c 1
 295.579101562 393.884765625 l 1
 295.579101562 393.884765625 417.47265625 451.082875661 417.47265625 527.682617188 c 0
 417.47265625 584.255374386 376.08743283 618.65625 308.02734375 618.65625 c 0
 241.434755207 618.65625 200.049804688 586.403107463 200.049804688 534.504882812 c 0xd8
 200.049804688 487.174061252 231.384768173 464.691260435 333.245117188 434.46484375 c 0
 509.286477231 382.885313741 573.928710938 325.634786018 573.928710938 208.879882812 c 0
 573.928710938 72.4356454329 472.869534108 -10.0078125 305.616210938 -10.0078125 c 0
 143.091510833 -10.0078125 35 72.9892081909 35 197.782226562 c 0
 35 351.987704054 210.959960938 402.484375 210.959960938 402.484375 c 1
 282.620117188 340.784179688 l 1
 282.620117188 340.784179688 173.310546875 299.482410402 173.310546875 210.444335938 c 0
 173.310546875 153.241862443 223.085733902 115.981445312 299.500976562 115.981445312 c 0xe4
EndSplineSet
Substitution2: "'onum' Oldstyle Figures lookup 27-1" eight.osf
Substitution2: "'frac' Diagonal Fractions in Latin lookup 26 subtable" eight.numr
Substitution2: "'dnom' Denominators lookup 0 subtable" eight.dnom
Substitution2: "'numr' Numerators lookup 0 subtable" eight.numr
Substitution2: "'sinf' Scientific Inferiors lookup 0 subtable" eight.inferior
Substitution2: "'sups' Superscript lookup 0 subtable" eight.superior
EndChar

StartChar: g
Encoding: 71 103 26
Width: 604
Flags: W
HStem: -196.994 107.431<163.891 293.275> 22.4336 107.25<211.132 358.685> 396.684 110.25<211.132 360.214> 477.934 20G<420.851 547.771>
VStem: 27.5 128.75<184.854 342.882> 426.172 128.328<0.799687 496.264>
LayerCount: 2
Back
SplineSet
382.270507812 -173.994140625 m 5
 387 496.93359375 l 5
 574.169921875 496.93359375 l 5xf8
 576.848632812 -23.0673828125 l 5
 672 -21.0634765625 l 5
 668.379882812 -173.994140625 l 5
 382.270507812 -173.994140625 l 5
EndSplineSet
Fore
SplineSet
411.75 263.93359375 m 0xec
 411.75 345.058881837 363.139356592 396.68359375 286.75 396.68359375 c 0
 206.999195446 396.68359375 156.25 345.642211915 156.25 265.43359375 c 0
 156.25 182.474501148 206.999195446 129.68359375 286.75 129.68359375 c 0
 363.139356592 129.68359375 411.75 181.891176204 411.75 263.93359375 c 0xec
484 277.18359375 m 0
 484 140.585143627 425.617415508 22.43359375 255.75 22.43359375 c 0
 116.263237133 22.43359375 27.5 116.058492103 27.5 263.18359375 c 0
 27.5 412.14263916 116.263237133 506.93359375 255.75 506.93359375 c 0
 395.236547529 506.93359375 484 417.586930484 484 277.18359375 c 0
554.5 83 m 0
 554.5 -58 511.758364096 -180.994140625 163.890625 -196.994140625 c 1
 145.270507812 -89.5634765622 l 1
 367.540395017 -73.2020193745 426.171875 -28.1514858558 426.171875 96.9326171875 c 0
 426.171875 281 420.850585938 494.93359375 420.850585938 494.93359375 c 1
 547.770507812 497.93359375 l 1xdc
 547.770507812 497.93359375 554.5 247 554.5 83 c 0
EndSplineSet
Substitution2: "'ss05' Style Set 5 lookup 13-1" g.ss05
EndChar

StartChar: u
Encoding: 85 117 27
Width: 638
Flags: W
HStem: -9.93164 114<208.619 327.709> 0 105.927<517.849 624.38> 477.002 20G<60.0908 192.17 387.81 515.307>
VStem: 40 132<142.819 500.286> 388 127.17<213.068 497.002>
LayerCount: 2
Fore
SplineSet
383.270507812 0 m 1x78
 388 497.001953125 l 1
 515.169921875 497.001953125 l 1
 517.848632812 105.926757812 l 1
 628 107.930664062 l 1
 624.379882812 0 l 1
 383.270507812 0 l 1x78
460 213.068359375 m 1
 441.798319328 122 387.885569853 -9.931640625 232 -9.931640625 c 0
 109.9296875 -9.931640625 40 67.8438216743 40 231.517089844 c 0
 40 361.518416011 60.0908203125 509.751953125 60.0908203125 509.751953125 c 1
 192.169921875 499.251953125 l 1
 192.169921875 499.251953125 172 359.739067728 172 245.068359375 c 0
 172 155.569608468 197.807871944 104.068359375 271 104.068359375 c 0xb8
 347.862379807 104.068359375 387.307692307 151.672513149 397 250.068359375 c 1
 460 213.068359375 l 1
EndSplineSet
EndChar

StartChar: exclam
Encoding: 1 33 28
Width: 256
Flags: W
HStem: -10 166<68.8485 187.152> 224.635 506.365<72.2646 182.738>
VStem: 45 166<13.8485 132.152 603.885 731>
LayerCount: 2
Fore
SplineSet
49.25 731 m 1
 206.75 731 l 1
 182.75 218 l 1
 182.75 218 166.852739725 224.634765625 130 224.634765625 c 0
 92.2403846153 224.634765625 72.25 216 72.25 216 c 1
 49.25 731 l 1
45 73 m 0
 45 123.722549716 77.2774502842 156 128 156 c 0
 178.722549716 156 211 123.722549716 211 73 c 0
 211 22.2774502841 178.722549716 -10 128 -10 c 0
 77.2774502842 -10 45 22.2774502841 45 73 c 0
EndSplineSet
Substitution2: "'ss16' Style Set 16 lookup 26-1" exclam.ss16
EndChar

StartChar: r
Encoding: 82 114 29
Width: 483
Flags: W
HStem: 0 21G<118.83 255.159> 391.075 105.927<13.6201 123.151> 496.934 20G<382.094 422.098>
VStem: 118.83 136.329<0 294.607>
LayerCount: 2
Fore
SplineSet
412 516.93359375 m 1xb0
 470.068359375 401.926757812 l 1
 236.462890625 294.607421875 l 1
 205.669921875 378.947265625 l 1
 412 516.93359375 l 1xb0
249.729492188 497.001953125 m 1xd0
 255.159179688 0 l 1
 118.830078125 0 l 1
 123.151367188 391.075195312 l 1
 10 389.071289062 l 1
 13.6201171875 497.001953125 l 1
 249.729492188 497.001953125 l 1xd0
EndSplineSet
Substitution2: "'ss07' Style Set 7 lookup 15-1" r.ss07
EndChar

StartChar: f
Encoding: 70 102 30
Width: 433
Flags: W
HStem: 0 21G<123.335 258.637> 387.25 109.75<25.5 237.909> 480 20G<190 399.087>
VStem: 104.869 133.533<495.323 631.235> 125.994 128.644<0 561.475>
LayerCount: 2
Fore
SplineSet
25.5 497 m 1xc0
 190 493 l 1
 399.5 500 l 1xa0
 397 379 l 1
 187 392.25 l 1
 22 387.25 l 1
 25.5 497 l 1xc0
125.984375 412.096679688 m 2
 125.990869538 413.106856851 125.994124776 414.107767495 125.994124776 415.099604408 c 0x88
 125.994124776 495.58873246 104.869140625 516.320447715 104.869140625 580 c 0
 104.869140625 711.412976765 192.625353692 767.86158329 347.01953125 797.84375 c 1
 367.4765625 684.374023438 l 1
 273.562780385 663.989452318 238.40234375 629.097102625 238.40234375 563.5 c 0x90
 238.40234375 520.252122755 253.835078054 480.239113605 254.637695312 399.96484375 c 2x88
 258.63671875 0 l 1
 123.334960938 0 l 1
 125.984375 412.096679688 l 2
EndSplineSet
EndChar

StartChar: one
Encoding: 17 49 32
Width: 354
Flags: W
HStem: 0 21G<156.83 305.659> 609.584 121.427<28.6201 161.151>
VStem: 156.83 148.829<0 609.584>
LayerCount: 2
Fore
SplineSet
300.229492188 731.010742188 m 1
 305.659179688 0 l 1
 156.830078125 0 l 1
 161.151367188 609.583984375 l 1
 25 607.580078125 l 1
 28.6201171875 731.010742188 l 1
 300.229492188 731.010742188 l 1
EndSplineSet
Substitution2: "'onum' Oldstyle Figures lookup 27-1" one.osf
Substitution2: "'frac' Diagonal Fractions in Latin lookup 26 subtable" one.numr
Substitution2: "'dnom' Denominators lookup 0 subtable" one.dnom
Substitution2: "'numr' Numerators lookup 0 subtable" one.numr
Substitution2: "'sinf' Scientific Inferiors lookup 0 subtable" one.inferior
Substitution2: "'sups' Superscript lookup 0 subtable" one.superior
EndChar

StartChar: zero
Encoding: 16 48 33
Width: 675
Flags: W
HStem: -10.0664 136.851<260.617 413.571> 602.083 136.851<260.617 413.571>
VStem: 27.5 141.737<233.953 492.03> 505.763 141.737<236.392 489.534>
LayerCount: 2
Fore
SplineSet
169.237304688 361.704101562 m 0
 169.237304688 218.141658762 234.360183133 126.784179688 336.697265625 126.784179688 c 0
 440.015467084 126.784179688 505.762695312 218.141658762 505.762695312 361.704101562 c 0
 505.762695312 508.603171187 440.015467084 602.083007812 336.697265625 602.083007812 c 0
 234.360183133 602.083007812 169.237304688 508.603171187 169.237304688 361.704101562 c 0
27.5 361.93359375 m 0
 27.5 592.322641811 147.860980438 738.93359375 337 738.93359375 c 0
 526.750391761 738.93359375 647.5 592.322641811 647.5 361.93359375 c 0
 647.5 134.599173678 526.750391761 -10.06640625 337 -10.06640625 c 0
 147.860980438 -10.06640625 27.5 134.599173678 27.5 361.93359375 c 0
EndSplineSet
Substitution2: "'onum' Oldstyle Figures lookup 27-1" zero.osf
Substitution2: "'frac' Diagonal Fractions in Latin lookup 26 subtable" zero.numr
Substitution2: "'dnom' Denominators lookup 0 subtable" zero.dnom
Substitution2: "'numr' Numerators lookup 0 subtable" zero.numr
Substitution2: "'sinf' Scientific Inferiors lookup 0 subtable" zero.inferior
Substitution2: "'sups' Superscript lookup 0 subtable" zero.superior
EndChar

StartChar: uni0237
Encoding: 424 567 35
Width: 315
Flags: W
HStem: 391.084 105.927<13.6201 123.151>
VStem: 118.83 136.329<20 391.084>
LayerCount: 2
Fore
SplineSet
249.729492188 497.010742188 m 1
 255.159179688 0 l 1
 127.5 -189 l 1
 8.5 -118 l 1
 118.830078125 20 l 1
 123.151367188 391.083984375 l 1
 10 389.080078125 l 1
 13.6201171875 497.010742188 l 1
 249.729492188 497.010742188 l 1
EndSplineSet
EndChar

StartChar: y
Encoding: 89 121 36
Width: 593
Flags: W
HStem: 491 20G<10 220.018 446.294 526.372>
LayerCount: 2
Fore
SplineSet
337.905273438 126.6328125 m 1
 319.5 27.5 l 1
 244.674804688 27.5 l 1
 120.151367188 394.75 l 1
 17.0458984375 386 l 1
 10 497 l 1
 213.546875 511 l 1
 337.905273438 126.6328125 l 1
289.60546875 50.2319335938 m 2
 453.404296875 511 l 1
 577.450195312 477 l 1
 418.107421875 50 l 2
 354.401320383 -120.72003617 269 -225 269 -225 c 1
 159 -158.994140625 l 1
 159 -158.994140625 254.461306933 -48.0842136515 289.60546875 50.2319335938 c 2
EndSplineSet
Substitution2: "'ss08' Style Set 8 lookup 16-1" y.ss08
EndChar

StartChar: x
Encoding: 88 120 37
Width: 565
Flags: W
HStem: 494 20G<108.647 215.752 416.827 461.475>
LayerCount: 2
Fore
SplineSet
430.326416016 514 m 1
 545.576416016 440 l 1
 394.576416016 252.5 l 1
 560.576416016 60.5 l 1
 449.076416016 -17 l 1
 253.826416016 252.5 l 1
 430.326416016 514 l 1
138.218994141 390.638671875 m 1
 29.2570800781 366.22265625 l 1
 7.80786132812 472.5859375 l 1
 202.826416016 514 l 1
 371.826416016 252.5 l 1
 176.576416016 -17 l 1
 65.0764160156 60.5 l 1
 231.076416016 252.5 l 1
 138.218994141 390.638671875 l 1
EndSplineSet
EndChar

StartChar: S
Encoding: 51 83 38
Width: 487
Flags: W
HStem: 718.393 20G<367.44 370.243>
VStem: 35 159.769<475.377 557.683> 290.621 161.715<181.457 279.532>
LayerCount: 2
Fore
SplineSet
367.440429688 738.392578125 m 1
 384.791015625 614.592773438 l 1
 384.791015625 614.592773438 194.768554688 598.197659945 194.768554688 521.93359375 c 0
 194.768554688 484.68187669 218.404734071 462.285570558 324.784179688 412.400390625 c 0
 419.388027825 368.018555535 452.3359375 318.533709973 452.3359375 236.044921875 c 0
 452.3359375 -14.3344087821 83.4423828125 -19.8779296875 83.4423828125 -19.8779296875 c 1
 68.220703125 114.182617188 l 1
 68.220703125 114.182617188 290.62109375 125.877156034 290.62109375 231 c 0
 290.62109375 265.77650951 274.850756533 287.993897394 186.401367188 325.155273438 c 0
 66.7949218749 377.43466279 35 434.278113162 35 509.240722656 c 0
 35 732.474329217 367.440429688 738.392578125 367.440429688 738.392578125 c 1
EndSplineSet
EndChar

StartChar: v
Encoding: 86 118 39
Width: 593
Flags: W
HStem: 0 21G<245.486 407.064> 491 20G<10 219.917 446.699 526.372>
LayerCount: 2
Fore
SplineSet
399.607421875 0 m 1
 252.174804688 0 l 1
 120.151367188 394.75 l 1
 17.0458984375 386 l 1
 10 497 l 1
 213.546875 511 l 1
 330.405273438 144.1328125 l 1
 453.404296875 511 l 1
 577.450195312 477 l 1
 399.607421875 0 l 1
EndSplineSet
EndChar

StartChar: w
Encoding: 87 119 40
Width: 862
Flags: W
HStem: 0 21G<247.385 399.883 552.546 699.278> 491 20G<10 220.101 443.412 527.284 726.21 803.902>
LayerCount: 2
Fore
SplineSet
392.107421875 0 m 1
 254.174804688 0 l 1
 120.151367188 394.75 l 1
 17.0458984375 386 l 1
 10 497 l 1
 213.546875 511 l 1
 330.655273438 153.6328125 l 1
 449.904296875 521 l 1
 581.450195312 487 l 1
 392.107421875 0 l 1
692.357421875 0 m 1
 560.174804688 0 l 1
 425.901367188 352 l 1
 520 453 l 1
 625.905273438 157.1328125 l 1
 732.404296875 501 l 1
 853.950195312 467 l 1
 692.357421875 0 l 1
EndSplineSet
EndChar

StartChar: six
Encoding: 22 54 41
Width: 619
Flags: W
HStem: -10 124.608<239.795 392.037> 372.759 111.468<240.38 391.288> 619.033 129.959<385.428 491.683>
VStem: 35 151.875<165.813 319.197> 443.875 139.691<166.324 322.256>
LayerCount: 2
Back
SplineSet
498.310546875 748.9921875 m 1
 512 637.533203125 l 1
 175.065365254 610.146952891 170.458007812 416.932617188 170.458007812 416.932617188 c 1
 170.458007812 416.932617188 215.209080523 483.7265625 336.600585938 483.7265625 c 0
 472.674581172 483.7265625 572.31640625 388.819152798 572.31640625 245.249023438 c 0
 572.31640625 100.798835154 490.925518401 -10 316.310546875 -10 c 0
 170.896357089 -10 45 80.6409024463 45 300.348632812 c 4
 45 516.020480109 153.586977651 728.185507446 498.310546875 748.9921875 c 1
176.375 242.858398438 m 0
 176.375 154.857510653 229.905346038 98.8583984375 314.025390625 98.8583984375 c 0
 398.725511696 98.8583984375 452.625 154.857510653 452.625 242.858398438 c 0
 452.625 329.728081597 398.725511696 385.008789062 314.025390625 385.008789062 c 0
 229.905346038 385.008789062 176.375 329.728081597 176.375 242.858398438 c 0
EndSplineSet
Fore
SplineSet
490.810546875 748.9921875 m 1
 507 619.033203125 l 1
 201.881934456 599.995437287 190.708007812 428.682617188 190.708007812 428.682617188 c 1
 190.708007812 428.682617188 234.179651746 484.2265625 352.100585938 484.2265625 c 0
 488.231064145 484.2265625 583.56640625 390.115097021 583.56640625 247.749023438 c 0
 583.56640625 109.384038475 509.162080326 -10 316.310546875 -10 c 0
 147.846740396 -10 35 89.8932717406 35 306.348632812 c 0
 35 519.13616121 144.185832996 728.463768616 490.810546875 748.9921875 c 1
186.875 244.608398438 m 0
 186.875 165.163152521 237.0998128 114.608398438 316.025390625 114.608398438 c 0
 394.156039346 114.608398438 443.875 165.163152521 443.875 244.608398438 c 0
 443.875 322.922526042 394.156039346 372.758789062 316.025390625 372.758789062 c 0
 237.0998128 372.758789062 186.875 322.922526042 186.875 244.608398438 c 0
EndSplineSet
Substitution2: "'onum' Oldstyle Figures lookup 27-1" six.osf
Substitution2: "'frac' Diagonal Fractions in Latin lookup 26 subtable" six.numr
Substitution2: "'dnom' Denominators lookup 0 subtable" six.dnom
Substitution2: "'numr' Numerators lookup 0 subtable" six.numr
Substitution2: "'sinf' Scientific Inferiors lookup 0 subtable" six.inferior
Substitution2: "'sups' Superscript lookup 0 subtable" six.superior
EndChar

StartChar: z
Encoding: 90 122 42
Width: 461
Flags: W
HStem: 0 116.75<205.419 419.017> 380 117<42 247.098>
LayerCount: 2
Fore
SplineSet
35 380 m 1
 42 497 l 1
 391.516601562 497 l 1
 416.016601562 408.75 l 1
 205.418945312 116.75 l 1
 426.016601562 120.5 l 1
 419.016601562 0 l 1
 48.5 0 l 1
 27 80.75 l 1
 247.09765625 383.75 l 1
 35 380 l 1
EndSplineSet
EndChar

StartChar: O
Encoding: 47 79 43
Width: 785
Flags: W
HStem: -10.0664 141.101<293.49 484.376> 597.833 141.101<297.957 484.376>
VStem: 35 147.487<251.348 474.338> 602.513 147.487<253.884 471.742>
LayerCount: 2
Back
SplineSet
295.487304688 361.704101562 m 0
 295.487304688 247.780273438 320.957605563 175.284179688 376.697265625 175.284179688 c 0
 439.529183996 175.284179688 469.512695312 247.780273438 469.512695312 361.704101562 c 0
 469.512695312 478.963867188 439.529183996 553.583007812 376.697265625 553.583007812 c 0
 320.957605563 553.583007812 295.487304688 478.963867188 295.487304688 361.704101562 c 0
90 361.93359375 m 0
 90 592.322265625 195.499874605 738.93359375 377 738.93359375 c 0
 565.222610829 738.93359375 675 592.322265625 675 361.93359375 c 0
 675 134.599609375 565.222610829 -10.06640625 377 -10.06640625 c 0
 195.499874605 -10.06640625 90 134.599609375 90 361.93359375 c 0
EndSplineSet
Fore
SplineSet
182.487304688 361.704101562 m 0
 182.487304688 219.886833696 266.338340152 131.034179688 386.697265625 131.034179688 c 0
 514.248512288 131.034179688 602.512695312 219.886833696 602.512695312 361.704101562 c 0
 602.512695312 506.850912784 514.248512288 597.833007812 386.697265625 597.833007812 c 0
 266.338340152 597.833007812 182.487304688 506.850912784 182.487304688 361.704101562 c 0
35 361.93359375 m 0
 35 592.322641811 171.888740273 738.93359375 387 738.93359375 c 0
 608.833791334 738.93359375 750 592.322641811 750 361.93359375 c 0
 750 134.599173678 608.833791334 -10.06640625 387 -10.06640625 c 0
 171.888740273 -10.06640625 35 134.599173678 35 361.93359375 c 0
EndSplineSet
EndChar

StartChar: L
Encoding: 44 76 44
Width: 620
Flags: W
HStem: 0 126.293<294.065 599.039> 605.084 125.927<21.1201 143.151>
VStem: 138.43 155.635<126.293 605.084>
LayerCount: 2
Fore
SplineSet
294.064538608 126.292909697 m 1
 602.659179688 127.930664062 l 1
 599.0390625 0 l 1
 138.4296875 0 l 1
 143.151367188 605.083984375 l 1
 17.5 603.080078125 l 1
 21.1201171875 731.010742188 l 1
 289.729492188 731.009824218 l 1
 294.064538608 126.292909697 l 1
EndSplineSet
EndChar

StartChar: K
Encoding: 43 75 45
Width: 757
Flags: W
HStem: 0 21G<138.83 295.159> 605.084 125.927<13.6201 143.151>
VStem: 138.83 156.329<0 605.084>
LayerCount: 2
Fore
SplineSet
289.729492188 731.010742188 m 1
 295.159179688 0 l 1
 138.830078125 0 l 1
 143.151367188 605.083984375 l 1
 10 603.080078125 l 1
 13.6201171875 731.010742188 l 1
 289.729492188 731.010742188 l 1
575.5 745.0078125 m 1
 699.5 651.0078125 l 1
 427.25 360.25 l 1
 724.5 78 l 1
 605.5 -27 l 1
 237.75 360.25 l 1
 575.5 745.0078125 l 1
EndSplineSet
EndChar

StartChar: J
Encoding: 42 74 46
Width: 370
Flags: W
HStem: 605.084 125.927<28.6201 158.151>
VStem: 153.83 156.329<62.5 605.084>
LayerCount: 2
Fore
SplineSet
304.729492188 731.010742188 m 1
 310.159179688 30 l 1
 145.5 -189.5 l 1
 15 -107.5 l 1
 153.830078125 62.5 l 1
 158.151367188 605.083984375 l 1
 25 603.080078125 l 1
 28.6201171875 731.010742188 l 1
 304.729492188 731.010742188 l 1
EndSplineSet
Substitution2: "'ss12' Style Set 12 lookup 20-1" J.ss12
EndChar

StartChar: H
Encoding: 40 72 47
Width: 780
Flags: W
HStem: 0 21G<138.83 295.159 563.83 720.159> 275 127<367.909 604> 286 112<237 469.091> 605.084 125.927<28.6201 143.151 453.62 568.151>
VStem: 138.83 156.329<0 286 398 605.084> 233 62.1592<286 398> 563.83 156.329<0 275 402 605.084>
LayerCount: 2
Back
SplineSet
252 393 m 1xb6
 608 397 l 1
 604 285 l 1xd6
 248 296 l 1
 252 393 l 1xb6
704.729492188 731.010742188 m 1
 710.159179688 0 l 1
 573.830078125 0 l 1
 578.151367188 620.083984375 l 1
 440 618.080078125 l 5
 443.620117188 731.010742188 l 5
 704.729492188 731.010742188 l 1
294.729492188 731.010742188 m 1
 300.159179688 0 l 1
 163.830078125 0 l 1x9a
 168.151367188 620.083984375 l 1
 30 618.080078125 l 5
 33.6201171875 731.010742188 l 5
 294.729492188 731.010742188 l 1
EndSplineSet
Fore
SplineSet
237 398 m 1xb6
 608 402 l 1
 604 275 l 1xd6
 233 286 l 1
 237 398 l 1xb6
714.729492188 731.010742188 m 1
 720.159179688 0 l 1
 563.830078125 0 l 1
 568.151367188 605.083984375 l 1
 450 603.080078125 l 1
 453.620117188 731.010742188 l 1
 714.729492188 731.010742188 l 1
289.729492188 731.010742188 m 1
 295.159179688 0 l 1
 138.830078125 0 l 1x9a
 143.151367188 605.083984375 l 1
 25 603.080078125 l 1
 28.6201171875 731.010742188 l 1
 289.729492188 731.010742188 l 1
EndSplineSet
EndChar

StartChar: backslash
Encoding: 60 92 48
Width: 497
Flags: W
LayerCount: 2
Back
SplineSet
506 -123.994140625 m 1
 317 -175.994140625 l 1
 178.016601562 331 l 1
 1 763.001953125 l 1
 190 815.001953125 l 1
 308.362304688 379 l 1
 506 -123.994140625 l 1
EndSplineSet
Fore
SplineSet
466 -131.494140625 m 1
 347 -168.494140625 l 1
 31 770.501953125 l 1
 150 807.501953125 l 1
 466 -131.494140625 l 1
EndSplineSet
EndChar

StartChar: F
Encoding: 38 70 49
Width: 620
Flags: W
HStem: 0 21G<138.83 295.159> 257.5 127<254.2 539> 266.25 116.5<187 467.8> 603.08 127.931<28.6201 143.151 291.104 583.729>
VStem: 183 112.159<266.25 382.75>
LayerCount: 2
Fore
SplineSet
187 382.75 m 1xb8
 543 384.5 l 1
 539 257.5 l 1xd8
 183 266.25 l 1
 187 382.75 l 1xb8
583.729492188 731.010742188 m 1
 589.61328125 599 l 1
 291.103515625 603 l 1
 295.159179688 0 l 1
 138.830078125 0 l 1
 143.151367188 605.083984375 l 1
 25 603.080078125 l 1
 28.6201171875 731.010742188 l 1
 583.729492188 731.010742188 l 1
EndSplineSet
EndChar

StartChar: E
Encoding: 37 69 50
Width: 620
Flags: W
HStem: 0 126.481<294.017 591.539> 300.5 127<254.2 539> 309.25 116.5<187 467.8> 603.08 127.931<28.6201 143.151 291.104 583.729>
VStem: 183 111.017<309.25 425.75>
LayerCount: 2
Fore
SplineSet
187 425.75 m 1xb8
 543 427.5 l 1
 539 300.5 l 1xd8
 183 309.25 l 1
 187 425.75 l 1xb8
583.729492188 731.010742188 m 1
 589.61328125 599 l 1
 291.103515625 603 l 1
 294.017497322 126.48056954 l 1
 324.064538608 126.292909697 l 1
 595.159179688 127.930664062 l 1
 591.5390625 0 l 1
 138.4296875 0 l 1
 143.151367188 605.083984375 l 1
 25 603.080078125 l 1
 28.6201171875 731.010742188 l 1
 583.729492188 731.010742188 l 1
EndSplineSet
Substitution2: "'ss15' Style Set 15 lookup 23-1" E.ss15
EndChar

StartChar: N
Encoding: 46 78 51
Width: 790
Flags: W
HStem: -10 21G<581.442 730.539> 0 21G<147.71 294.039> 603.08 127.931<29.3799 152.031>
VStem: 147.71 146.329<0 464.293> 588.151 142.388<257.389 731.011>
LayerCount: 2
Fore
SplineSet
725.109375 731.010742188 m 1x78
 730.5390625 0 l 1x78
 594.209960938 -10 l 1xb8
 291.42578125 464.29296875 l 1
 294.0390625 0 l 1
 147.709960938 0 l 1
 152.03125 609.083984375 l 1
 29.3798828125 603.080078125 l 1
 25 731.010742188 l 1
 308.609375 741.010742188 l 1
 588.151367188 257.388671875 l 1
 592 731.010742188 l 1
 725.109375 731.010742188 l 1x78
EndSplineSet
EndChar

StartChar: bar
Encoding: 92 124 52
Width: 246
Flags: W
VStem: 60 126.329<-170 788.992>
LayerCount: 2
Back
SplineSet
220.899414062 788.9921875 m 1
 193.418945312 334 l 1
 226.329101562 -170 l 1
 30 -170 l 1
 63.3330078125 338 l 1
 36.169921875 788.9921875 l 1
 220.899414062 788.9921875 l 1
EndSplineSet
Fore
SplineSet
180.899414062 788.9921875 m 1
 186.329101562 -170 l 1
 60 -170 l 1
 66.169921875 788.9921875 l 1
 180.899414062 788.9921875 l 1
EndSplineSet
EndChar

StartChar: U
Encoding: 53 85 53
Width: 767
Flags: W
HStem: -10 137<345.32 509.029> 605.084 125.927<28.6201 150.151 442.12 559.651>
VStem: 138.517 148.643<191.456 600.833> 568.33 146.812<188.352 589.283>
LayerCount: 2
Fore
SplineSet
715.141601562 270.946289062 m 0
 715.141601562 85.0810974476 608.053324198 -10 428.830078125 -10 c 0
 239.626162804 -10 138.516601562 84.5172625506 138.516601562 290.099609375 c 0
 138.516601562 413.057907279 150.151367188 605.083984375 150.151367188 605.083984375 c 1
 25 603.080078125 l 1
 28.6201171875 731.010742188 l 1
 295.729492188 731.010742188 l 1
 295.729492188 731.010742188 287.159179688 403.488572129 287.159179688 289 c 0
 287.159179688 192.509784405 324.23861375 127 430 127 c 0
 526.44939285 127 568.330078125 185.898719202 568.330078125 289 c 0
 568.330078125 411.18463359 559.651367188 605.083984375 559.651367188 605.083984375 c 1
 438.5 603.080078125 l 1
 442.120117188 731.010742188 l 1
 702.229492188 731.010742188 l 1
 702.229492188 731.010742188 715.141601562 450.456085293 715.141601562 270.946289062 c 0
EndSplineSet
EndChar

StartChar: A
Encoding: 33 65 54
Width: 670
Flags: W
HStem: 155.5 129.25<219.2 504> 164.25 124<152 432.8> 581.569 139.431<60.8193 215.008> 711 20G<56.4395 420.507>
LayerCount: 2
Fore
SplineSet
152 288.25 m 1x40
 508 284.75 l 1
 504 155.5 l 1x80
 148 164.25 l 1
 152 288.25 l 1x40
215.0078125 586.612304688 m 1
 60.8193359375 581.569335938 l 1
 56.439453125 721 l 1x20
 413.548828125 731 l 1x10
 663.450195312 12.6611328125 l 1
 517.426757812 -15 l 1
 336.818359375 551.8671875 l 1
 149.569335938 -15 l 1
 5.2734375 16.75 l 1
 215.0078125 586.612304688 l 1
EndSplineSet
Substitution2: "'fina' Terminal Forms lookup 25-1" A.fina
Substitution2: "'init' Initial Forms lookup 24-1" A.init
Substitution2: "'ss14' Style Set 14 lookup 22-1" A.ss14
EndChar

StartChar: B
Encoding: 34 66 55
Width: 739
Flags: W
HStem: -10.0664 123.75<299.248 514.279> 317.742 102.941<297.171 484.778> 612.242 126.75<187.6 484.689> 612.242 14.5078<192.011 295.67>
VStem: 148 149.714<122.246 311.184 428.127 626.75> 527.417 145<457.853 571.86> 564.917 147.5<156.962 275.025>
LayerCount: 2
Fore
SplineSet
261.946289062 428.126953125 m 1xda
 261.946289062 428.126953125 297.910202653 420.68359375 387.916992188 420.68359375 c 0
 486.036987304 420.68359375 527.416992188 459.949971861 527.416992188 511.93359375 c 0
 527.416992188 577.385631219 480.527370578 612.2421875 380.916992188 612.2421875 c 0
 192.010715331 612.2421875 54.26953125 527.677734375 54.26953125 527.677734375 c 1
 13 664.840820312 l 1
 13 664.840820312 124.524159803 738.9921875 386.916992188 738.9921875 c 0
 561.389320139 738.9921875 672.416992188 654.581054688 672.416992188 521.93359375 c 0xec
 672.416992188 408.708071482 571.275390625 378.96875 571.275390625 378.96875 c 1
 571.275390625 378.96875 712.416992188 349.468746591 712.416992188 196.9921875 c 0
 712.416992188 70.4560546875 601.389320139 -10.06640625 426.916992188 -10.06640625 c 0
 231.189884317 -10.06640625 148 24.0849609375 148 24.0849609375 c 1
 153.940429688 626.75 l 1
 295.669921875 626.75 l 1
 297.713867188 122.24609375 l 1
 297.713867188 122.24609375 322.809155089 113.68359375 405.416992188 113.68359375 c 0
 512.556307498 113.68359375 564.916992188 150.533185917 564.916992188 215.4921875 c 0
 564.916992188 271.7296875 524.434548542 317.7421875 406.5 317.7421875 c 0
 301.294013148 317.7421875 262.0078125 311.18359375 262.0078125 311.18359375 c 1
 261.946289062 428.126953125 l 1xda
EndSplineSet
EndChar

StartChar: C
Encoding: 35 67 56
Width: 651
Flags: W
HStem: -10.0664 141<308.503 542.719> 603.492 135.5<316.733 528.542>
VStem: 35 157.5<249.08 472.928>
LayerCount: 2
Fore
SplineSet
35 361.93359375 m 0
 35 592.358449127 175.77762494 738.9921875 397 738.9921875 c 0
 571.675165443 738.9921875 645.916992188 662.840820312 645.916992188 662.840820312 c 1
 592.147460938 547.177734375 l 1
 592.147460938 547.177734375 524.769396001 603.4921875 420 603.4921875 c 0
 280.971371005 603.4921875 192.5 509.554085447 192.5 361.93359375 c 0
 192.5 220.766425779 267.101782226 130.93359375 413 130.93359375 c 0
 546.519784182 130.93359375 614.1484375 190.864257812 614.1484375 190.864257812 c 1
 661.146484375 59.81640625 l 1
 661.146484375 59.81640625 594.321700857 -10.06640625 387 -10.06640625 c 0
 171.888740273 -10.06640625 35 134.599173678 35 361.93359375 c 0
EndSplineSet
EndChar

StartChar: D
Encoding: 36 68 57
Width: 783
Flags: W
HStem: -10.0664 139.25<301.495 493.034> 596.242 142.75<302.854 488.067> 596.242 33.0078<181.14 295.67>
VStem: 153.94 141.729<136.347 629.25> 607.417 149<248.64 473.837>
LayerCount: 2
Fore
SplineSet
756.416992188 361.93359375 m 0xd8
 756.416992188 134.599609375 616.611764432 -10.06640625 396.916992188 -10.06640625 c 0
 208.501739286 -10.06640625 147.770507812 37.31640625 147.770507812 37.31640625 c 1
 153.940429688 629.25 l 1
 295.669921875 629.25 l 1xb8
 299.002929688 136.346679688 l 1
 299.002929688 136.346679688 336.528675225 129.18359375 385.416992188 129.18359375 c 0
 532.307852056 129.18359375 607.416992188 219.696328125 607.416992188 361.93359375 c 0
 607.416992188 505.1233211 532.241128076 596.2421875 378.416992188 596.2421875 c 0
 181.140317177 596.2421875 54.26953125 527.677734375 54.26953125 527.677734375 c 1
 13 664.840820312 l 1
 13 664.840820312 124.524159803 738.9921875 386.916992188 738.9921875 c 0
 612.723093973 738.9921875 756.416992188 592.358398438 756.416992188 361.93359375 c 0xd8
EndSplineSet
EndChar

StartChar: P
Encoding: 48 80 58
Width: 721
Flags: W
HStem: 0 21G<147.771 299.003> 194.934 130<299.483 493.043> 599.242 139.75<303.714 480.973> 599.242 30.0078<203.332 295.67>
VStem: 147.771 151.232<0 239.434 355.877 629.25> 548.417 146<380.913 538.295>
LayerCount: 2
Fore
SplineSet
299.002929688 0 m 1xdc
 147.770507812 0 l 1
 153.940429688 629.25 l 1
 295.669921875 629.25 l 1
 299.002929688 0 l 1xdc
269.196289062 355.876953125 m 1
 269.196289062 355.876953125 306.190169379 324.93359375 401.916992188 324.93359375 c 0
 497.937495393 324.93359375 548.416992188 375.217425409 548.416992188 456.43359375 c 0
 548.416992188 552.056458364 492.787383288 599.2421875 369.916992188 599.2421875 c 0
 203.331963654 599.2421875 55.01953125 527.677734375 55.01953125 527.677734375 c 1
 13.75 664.840820312 l 1
 13.75 664.840820312 125.05046545 738.9921875 386.916992188 738.9921875 c 0xec
 576.623023623 738.9921875 694.416992188 634.31130391 694.416992188 451.43359375 c 0
 694.416992188 295.869934081 592.172336647 194.93359375 426.916992188 194.93359375 c 0
 310.407785302 194.93359375 240.2578125 239.43359375 240.2578125 239.43359375 c 1
 269.196289062 355.876953125 l 1
EndSplineSet
EndChar

StartChar: M
Encoding: 45 77 59
Width: 877
VWidth: 1111
Flags: W
HStem: 599.08 131.931<28 158.817>
VStem: 691 154.5<4.3657 91.1356>
LayerCount: 2
Back
SplineSet
198.817382812 545.212890625 m 1
 93 539.080078125 l 1
 88.6201171875 731.010742188 l 1
 430.729492188 741.010742188 l 1
 483 547 l 1
 552 740 l 1
 766 731 l 1
 825 5 l 1
 613 -9 l 1
 584 361 l 5
 486 160 l 5
 390 352 l 5
 356 -6 l 1
 155 9 l 1
 198.817382812 545.212890625 l 1
EndSplineSet
Fore
SplineSet
158.817407553 605.212905961 m 1
 28 599.080078125 l 1
 23.6201171875 731.010742188 l 1
 340.729492188 741.010742188 l 1
 477 434.5 l 1
 632.5 740 l 1
 786.5 731 l 1
 845.5 5 l 1
 691 -9 l 1
 662 503.5 l 1
 470 142.5 l 1
 290 494.5 l 1
 248.5 -6 l 1
 107.5 9 l 1
 158.817407553 605.212905961 l 1
EndSplineSet
Substitution2: "'fina' Terminal Forms lookup 25-1" M.fina
Substitution2: "'init' Initial Forms lookup 24-1" M.init
EndChar

StartChar: G
Encoding: 39 71 60
Width: 794
Flags: W
HStem: -10.0664 144<306.751 506.587> 271.319 127.931<672.565 765.097> 599.742 139.25<315.381 535.726>
VStem: 35 157.5<250.58 475.457> 526.058 150.829<-87.7607 107.316 199.364 273.323>
LayerCount: 2
Fore
SplineSet
531.487304688 399.25 m 1
 765.096679688 399.25 l 1
 768.716796875 271.319335938 l 1
 672.565429688 273.323242188 l 1
 676.88671875 -87.7607421875 l 1
 526.057617188 -87.7607421875 l 1
 531.487304688 399.25 l 1
35 361.93359375 m 0
 35 592.358449127 175.77762494 738.9921875 397 738.9921875 c 0
 575.183868564 738.9921875 650.916992188 662.840820312 650.916992188 662.840820312 c 1
 604.647460938 543.427734375 l 1
 604.647460938 543.427734375 530.419941876 599.7421875 415 599.7421875 c 0
 279.026945268 599.7421875 192.5 508.429047694 192.5 364.93359375 c 0
 192.5 223.766425779 265.410131836 133.93359375 408 133.93359375 c 0
 524.925100942 133.93359375 584.1484375 199.364257812 584.1484375 199.364257812 c 1
 636.146484375 107.31640625 l 1
 636.146484375 107.31640625 572.368647805 -10.06640625 374.5 -10.06640625 c 0
 167.027634439 -10.06640625 35 134.599173678 35 361.93359375 c 0
EndSplineSet
Substitution2: "'ss11' Style Set 11 lookup 19-1" G.ss11
EndChar

StartChar: T
Encoding: 52 84 61
Width: 590
Flags: W
HStem: 0 21G<211.83 368.159> 603 30<216.151 364.104> 603.08 127.931<21.1201 216.151 364.104 561.229>
VStem: 211.83 156.329<0 633>
LayerCount: 2
Fore
SplineSet
364.103515625 633 m 1xd0
 368.159179688 0 l 1
 211.830078125 0 l 1
 216.151367188 635.083984375 l 1
 364.103515625 633 l 1xd0
292.103515625 603 m 1
 17.5 603.080078125 l 1
 21.1201171875 731.010742188 l 1
 561.229492188 731.010742188 l 1xb0
 567.11328125 599 l 1
 292.103515625 603 l 1
EndSplineSet
EndChar

StartChar: V
Encoding: 54 86 62
Width: 774
Flags: W
HStem: 0 21G<330.709 506.054>
LayerCount: 2
Fore
SplineSet
498.607421875 0 m 1
 336.674804688 0 l 1
 155.151367188 608.5 l 1
 32.0458984375 600.5 l 1
 25 732 l 1
 268.546875 746 l 1
 428.905273438 179.1328125 l 1
 610.154296875 746 l 1
 763.700195312 712 l 1
 498.607421875 0 l 1
EndSplineSet
Substitution2: "'fina' Terminal Forms lookup 25-1" V.fina
Substitution2: "'init' Initial Forms lookup 24-1" V.init
EndChar

StartChar: W
Encoding: 55 87 63
Width: 1134
Flags: W
HStem: 0 21G<326.115 503.691 705.812 883.911> 716 20G<964.88 1061.23>
LayerCount: 2
Fore
SplineSet
496.357421875 0 m 1
 331.924804688 0 l 1
 155.151367188 608.5 l 1
 32.0458984375 600.5 l 1
 25 732 l 1
 268.546875 746 l 1
 426.655273438 174.1328125 l 1
 598.904296875 759 l 1
 762.200195312 725 l 1
 496.357421875 0 l 1
876.857421875 0 m 1
 712.424804688 0 l 1
 569.25 433 l 1
 663.895507812 623 l 1
 801.655273438 174.1328125 l 1
 970.904296875 736 l 1
 1124.45019531 702 l 1
 876.857421875 0 l 1
EndSplineSet
Substitution2: "'fina' Terminal Forms lookup 25-1" W.fina
Substitution2: "'init' Initial Forms lookup 24-1" W.init
EndChar

StartChar: Q
Encoding: 49 81 64
Width: 785
Flags: W
HStem: -10.0664 141.101<293.49 484.376> 597.833 141.101<297.957 484.376>
VStem: 35 147.487<251.348 474.338> 602.513 147.487<253.884 471.742>
LayerCount: 2
Fore
SplineSet
108.25 137.75 m 1
 807.25 -12.75 l 1
 770 -159 l 1
 79 36.5 l 1
 108.25 137.75 l 1
EndSplineSet
Refer: 43 79 N 1 0 0 1 0 0 2
Substitution2: "'ss10' Style Set 10 lookup 18-1" Q.ss10
EndChar

StartChar: underscore
Encoding: 63 95 65
Width: 580
Flags: W
HStem: -107 107<28.25 551.75>
LayerCount: 2
Fore
SplineSet
28.25 0 m 1
 554.25 4 l 1
 551.75 -113.5 l 1
 25.75 -107 l 1
 28.25 0 l 1
EndSplineSet
EndChar

StartChar: R
Encoding: 50 82 66
Width: 729
Flags: W
HStem: 0 21G<140.271 291.503> 600.492 138.5<293.126 471.114> 600.492 51.2578<220.911 288.17>
VStem: 140.271 151.232<0 277.684 365.877 651.75> 535.167 148.75<403.493 542.767>
LayerCount: 2
Back
SplineSet
289.002929688 0 m 5xb8
 157.770507812 0 l 5
 163.940429688 669.25 l 1
 285.669921875 669.25 l 1
 289.002929688 0 l 5xb8
274.196289062 355.876953125 m 1
 274.196289062 355.876953125 298.311785784 334.93359375 373.916992188 334.93359375 c 0
 487.119605202 334.93359375 551.916992188 395.921142577 551.916992188 475.93359375 c 0
 551.916992188 563.722489841 489.063645233 617.9921875 353 617.9921875 c 0
 219.214256452 617.9921875 49.26953125 556.427734375 49.26953125 556.427734375 c 1
 18 674.840820312 l 1
 18 674.840820312 122.067681352 738.9921875 366.916992188 738.9921875 c 0xd8
 557.583984375 738.9921875 678.916992188 638.247073955 678.916992188 479.93359375 c 0
 678.916992188 277.943443494 474.740234375 245.040039062 474.740234375 245.040039062 c 1
 701.770507812 69 l 1
 625.770507812 -37 l 1
 235.2578125 285.43359375 l 1
 274.196289062 355.876953125 l 1
EndSplineSet
Fore
SplineSet
291.502929688 0 m 1xb8
 140.270507812 0 l 1
 146.440429688 651.75 l 1
 288.169921875 651.75 l 1
 291.502929688 0 l 1xb8
269.196289062 365.876953125 m 1
 269.196289062 365.876953125 295.306886518 344.93359375 377.166992188 344.93359375 c 0
 477.65021048 344.93359375 535.166992188 399.865641275 535.166992188 471.93359375 c 0
 535.166992188 551.379804854 479.186161659 600.4921875 358 600.4921875 c 0
 220.910692339 600.4921875 46.76953125 535.177734375 46.76953125 535.177734375 c 1
 13 672.340820312 l 1
 13 672.340820312 120.050272732 738.9921875 371.916992188 738.9921875 c 0xd8
 562.583984375 738.9921875 683.916992188 638.247073955 683.916992188 479.93359375 c 0
 683.916992188 358.550071801 607.583686448 298.768933893 550.116877597 271.114747437 c 0
 514.205290545 253.96120041 484.740234375 249.040039062 484.740234375 249.040039062 c 1
 706.770507812 85.5 l 1
 618.270507812 -37 l 1
 227.7578125 277.68359375 l 1
 269.196289062 365.876953125 l 1
EndSplineSet
EndChar

StartChar: five
Encoding: 21 53 67
Width: 581
Flags: W
HStem: -10.0664 124.5<117.62 343.468> 356.242 117.508<195.039 353.196> 601.75 129.258<201.5 504.017>
VStem: 400.917 144<165.347 308.504>
LayerCount: 2
Back
SplineSet
529.016601562 549.0078125 m 5
 239 550 l 29
 224 471 l 21
 224 471 248.642857143 479 316 479 c 4
 492.46964774 479 559.916992188 386.635747331 559.916992188 246.9921875 c 4
 559.916992188 68.1744133844 445.97265625 -10.06640625 266.916992188 -10.06640625 c 4
 85.2246769868 -10.06640625 8 44.0849609375 8 44.0849609375 c 5
 50 207 l 5
 50 207 126.85984585 163.93359375 233.916992188 163.93359375 c 4
 305.791015625 163.93359375 340.916992188 195.456256431 340.916992188 244.9921875 c 4
 340.916992188 289.603298611 303.700683594 317.9921875 230.916992188 317.9921875 c 4
 164.966339317 317.9921875 125.2578125 288.43359375 125.2578125 288.43359375 c 5
 19 392 l 5
 80 731.0078125 l 5
 365 731.0078125 l 5
 362 798.0078125 l 5
 515.016601562 800.0078125 l 5
 529.016601562 549.0078125 l 5
EndSplineSet
Fore
SplineSet
504.016601562 600.7578125 m 1
 201.5 601.75 l 1
 175.25 440 l 1
 175.25 440 211.410714286 473.75 310.25 473.75 c 0
 472.527435661 473.75 544.916992188 380.490003493 544.916992188 239.4921875 c 0
 544.916992188 65.8916414347 436.805984028 -10.06640625 266.916992188 -10.06640625 c 0
 95.7507714891 -10.06640625 23 44.0849609375 23 44.0849609375 c 1
 59 160.5 l 1
 59 160.5 138.680705159 114.43359375 249.666992188 114.43359375 c 0
 351.264618775 114.43359375 400.916992188 162.28952563 400.916992188 237.4921875 c 0
 400.916992188 310.061631944 355.073266601 356.2421875 265.416992188 356.2421875 c 0
 182.613401098 356.2421875 132.7578125 303.43359375 132.7578125 303.43359375 c 1
 34 374.5 l 1
 95 731.0078125 l 1
 504.016601562 731.0078125 l 1
 504.016601562 600.7578125 l 1
EndSplineSet
Substitution2: "'onum' Oldstyle Figures lookup 27-1" five.osf
Substitution2: "'ss02' Style Set 2 lookup 10-1" five.ss02
Substitution2: "'frac' Diagonal Fractions in Latin lookup 26 subtable" five.numr
Substitution2: "'dnom' Denominators lookup 0 subtable" five.dnom
Substitution2: "'numr' Numerators lookup 0 subtable" five.numr
Substitution2: "'sinf' Scientific Inferiors lookup 0 subtable" five.inferior
Substitution2: "'sups' Superscript lookup 0 subtable" five.superior
EndChar

StartChar: Z
Encoding: 58 90 68
Width: 601
Flags: W
HStem: 0 136.25<230.419 557.517> 589.008 142<43.5 373.348>
LayerCount: 2
Fore
SplineSet
36.5 589.0078125 m 1
 43.5 731.0078125 l 1
 551.516601562 731.0078125 l 1
 574.016601562 630.0078125 l 1
 230.418945312 136.25 l 1
 564.516601562 143 l 1
 557.516601562 0 l 1
 49.5 0 l 1
 27 101 l 1
 373.34765625 595.7578125 l 1
 36.5 589.0078125 l 1
EndSplineSet
EndChar

StartChar: Y
Encoding: 57 89 69
Width: 744
Flags: W
HStem: 0 21G<330.08 492.409>
VStem: 330.08 162.329<0 267.655>
LayerCount: 2
Fore
SplineSet
333.873046875 267.655273438 m 1
 157.651367188 608 l 1
 42.0458984375 590 l 1
 25 722 l 1
 258.046875 746 l 1
 418.905273438 414.1328125 l 1
 592.154296875 746 l 1
 733.700195312 686.5 l 1
 488.984375 274.150390625 l 1
 492.409179688 0 l 1
 330.080078125 0 l 1
 333.873046875 267.655273438 l 1
EndSplineSet
Substitution2: "'ss13' Style Set 13 lookup 21-1" Y.ss13
EndChar

StartChar: X
Encoding: 56 88 70
Width: 776
Flags: W
LayerCount: 2
Fore
SplineSet
257 745.0078125 m 1
 501 364 l 1
 217 -27 l 1
 83 70.5 l 1
 326.5 364 l 1
 174.75 585.5078125 l 1
 49.25 554.43359375 l 1
 13 686 l 1
 257 745.0078125 l 1
609.5 745.0078125 m 1
 748.5 651.0078125 l 1
 522.5 364 l 1
 766 70.5 l 1
 632 -27 l 1
 348 364 l 1
 609.5 745.0078125 l 1
EndSplineSet
EndChar

StartChar: comma
Encoding: 12 44 71
Width: 270
Flags: W
HStem: -117.75 297.5
VStem: 2.75 235.5
LayerCount: 2
Fore
SplineSet
116.25 179.75 m 25
 238.25 110.5 l 25
 82.25 -117.75 l 25
 2.75 -71.75 l 25
 116.25 179.75 l 25
EndSplineSet
EndChar

StartChar: nine
Encoding: 25 57 73
Width: 619
Flags: W
HStem: -20 129.959<126.884 233.138> 244.766 111.468<227.434 378.342> 614.384 124.608<226.948 379.195>
VStem: 35 139.691<406.736 562.668> 431.691 151.875<409.795 563.179>
LayerCount: 2
Fore
SplineSet
127.755859375 -20 m 1
 111.56640625 109.958984375 l 1
 416.684540522 128.995753106 427.858398438 300.309570312 427.858398438 300.309570312 c 1
 427.858398438 300.309570312 384.386662835 244.765625 266.465820312 244.765625 c 0
 130.39824725 244.765625 35 338.877090479 35 481.243164062 c 0
 35 619.608149025 109.613050243 738.9921875 303.005859375 738.9921875 c 0
 471.02022277 738.9921875 583.56640625 639.098632812 583.56640625 422.643554688 c 0
 583.56640625 209.85546875 474.379962626 0.528320312482 127.755859375 -20 c 1
431.69140625 484.383789062 m 0
 431.69140625 563.829034979 381.758258147 614.383789062 303.291015625 614.383789062 c 0
 224.702031623 614.383789062 174.69140625 563.829034979 174.69140625 484.383789062 c 0
 174.69140625 406.069661458 224.702031623 356.233398438 303.291015625 356.233398438 c 0
 381.758258147 356.233398438 431.69140625 406.069661458 431.69140625 484.383789062 c 0
EndSplineSet
Substitution2: "'onum' Oldstyle Figures lookup 27-1" nine.osf
Substitution2: "'frac' Diagonal Fractions in Latin lookup 26 subtable" nine.numr
Substitution2: "'dnom' Denominators lookup 0 subtable" nine.dnom
Substitution2: "'numr' Numerators lookup 0 subtable" nine.numr
Substitution2: "'sinf' Scientific Inferiors lookup 0 subtable" nine.inferior
Substitution2: "'sups' Superscript lookup 0 subtable" nine.superior
EndChar

StartChar: at
Encoding: 32 64 74
Width: 925
Flags: W
HStem: -159.727 93.377<337.54 667.601> 48.4209 108.136<376.425 511.269> 48.4209 97.0576<693.633 775.956> 387.36 106.146<376.425 511.269> 616.933 90.7939<331.011 605.724>
VStem: 27.5 100.5<139.955 403.655> 215.029 120.095<199.541 344.699> 553.856 124.411<201.914 334.88> 566.985 69.3086<127.216 383.729> 804.404 93.3828<175.76 420.486>
LayerCount: 2
Back
SplineSet
365.124023438 363.1875 m 4
 365.124023438 312.997070312 392.912109375 281.056640625 436.578125 281.056640625 c 4
 480.749023438 281.056640625 508.856445312 312.997070312 508.856445312 363.1875 c 4
 508.856445312 411.876953125 480.749023438 442.860351562 436.578125 442.860351562 c 4
 392.912109375 442.860351562 365.124023438 411.876953125 365.124023438 363.1875 c 4
207.529296875 362.254882812 m 4
 207.529296875 497.463867188 289.260742188 583.505859375 417.694335938 583.505859375 c 4
 542.1171875 583.505859375 621.293945312 489.212890625 621.293945312 341.037109375 c 4
 621.293945312 217.215820312 542.1171875 138.420898438 417.694335938 138.420898438 c 4
 289.260742188 138.420898438 207.529296875 225.466796875 207.529296875 362.254882812 c 4
482.713867188 -69.7265625 m 4
 196.205078125 -69.7265625 20 94.120869497 20 358.08984375 c 4
 20 614.04161915 179.602962903 797.7265625 458.420898438 797.7265625 c 4
 719.309753403 797.7265625 905.287109375 654.481445312 905.287109375 383.712890625 c 4
 905.287109375 234.838867187 845.620117188 138.420898438 718.064453125 138.420898438 c 4
 609.642578125 138.420898438 536.985351562 205.224609375 536.985351562 370.025390625 c 4xbec0
 536.985351562 473.729492188 566.369140625 581.030273438 566.369140625 581.030273438 c 5
 721.677734375 569.944335938 l 5
 721.677734375 569.944335938 689.767578125 428.384765625 689.767578125 333.604492188 c 4
 689.767578125 282.138671875 704.185546875 254.978515625 740.811523438 254.978515625 c 4xbf40
 782.825195312 254.978515625 804.404296875 305.185546875 804.404296875 383.712890625 c 4
 804.404296875 614.064453125 662.40625 699.432617188 459.420898438 699.432617188 c 4
 248.553710938 699.432617188 128 560.595703125 128 361.93359375 c 4
 128 157.513671875 252.708984375 31.150390625 483.713867188 31.150390625 c 4
 665.813476562 31.150390625 793 94 793 94 c 5
 818.250976562 5.7744140625 l 5
 818.250976562 5.7744140625 708.095703125 -69.7265625 482.713867188 -69.7265625 c 4
EndSplineSet
Fore
SplineSet
335.124023438 273.1875 m 0xdf40
 335.124023438 201.914010455 377.495642019 156.556640625 444.078125 156.556640625 c 0
 511.166112329 156.556640625 553.856445312 201.914010455 553.856445312 273.1875 c 0
 553.856445312 342.960497895 511.166112329 387.360351562 444.078125 387.360351562 c 0
 377.495642019 387.360351562 335.124023438 342.960497895 335.124023438 273.1875 c 0xdf40
215.029296875 272.254882812 m 0
 215.029296875 407.463867188 298.219086169 493.505859375 428.944335938 493.505859375 c 0
 555.658870155 493.505859375 636.293945312 399.212890625 636.293945312 251.037109375 c 0xdec0
 636.293945312 127.215820312 555.658870155 48.4208984375 428.944335938 48.4208984375 c 0
 298.219086169 48.4208984375 215.029296875 135.466796875 215.029296875 272.254882812 c 0
482.713867188 -159.7265625 m 0
 200.849019166 -159.7265625 27.5 4.12109375 27.5 268.08984375 c 0
 27.5 524.041992188 184.372242566 707.7265625 458.420898438 707.7265625 c 0
 714.930933057 707.7265625 897.787109375 564.481445312 897.787109375 293.712890625 c 0
 897.787109375 144.838867188 840.510332402 48.4208984375 718.064453125 48.4208984375 c 0
 627.605204524 48.4208984375 566.985351562 115.224609375 566.985351562 280.025390625 c 0xbec0
 566.985351562 383.729492188 592.369140625 491.030273438 592.369140625 491.030273438 c 1
 705.177734375 481.944335938 l 1
 705.177734375 481.944335938 678.267578125 334.8798466 678.267578125 237.104492188 c 0
 678.267578125 177.882536624 696.685546875 145.478515625 733.311523438 145.478515625 c 0xbf40
 780.280200763 145.478515625 804.404296875 197.440568723 804.404296875 278.712890625 c 0
 804.404296875 525.480627725 662.40625 616.932617188 459.420898438 616.932617188 c 0
 248.553710938 616.932617188 128 475.01042944 128 271.93359375 c 0
 128 62.8787647831 252.708984375 -66.349609375 483.713867188 -66.349609375 c 0
 665.813476562 -66.349609375 793 -3.5 793 -3.5 c 1
 818.250976562 -84.2255859375 l 1
 818.250976562 -84.2255859375 708.095703125 -159.7265625 482.713867188 -159.7265625 c 0
EndSplineSet
EndChar

StartChar: percent
Encoding: 5 37 75
Width: 889
Flags: W
HStem: -10 103.808<618.785 729.531> 259.475 103.904<618.785 729.531> 365.613 103.808<158.785 269.531> 635.088 103.904<158.785 269.531>
VStem: 27.0205 109.304<492.726 612.719> 292.284 109.336<492.726 612.719> 487.021 109.304<117.113 237.106> 752.284 109.336<117.113 237.106>
LayerCount: 2
Fore
SplineSet
596.32421875 177.506835938 m 0
 596.32421875 126.357432866 626.536969669 93.8076171877 674.015625 93.8076171877 c 0
 721.846471913 93.8076171877 752.284179688 126.357432866 752.284179688 177.506835938 c 0
 752.284179688 227.598494329 721.846471913 259.474609375 674.015625 259.474609375 c 0
 626.536969669 259.474609375 596.32421875 227.598494329 596.32421875 177.506835938 c 0
487.020507812 177.649414062 m 0
 487.020507812 291.15106446 559.734458734 363.37890625 674 363.37890625 c 0
 788.656935548 363.37890625 861.620117188 291.15106446 861.620117188 177.649414062 c 0
 861.620117188 62.9745763544 788.656935548 -10 674 -10 c 0
 559.734458734 -10 487.020507812 62.9745763544 487.020507812 177.649414062 c 0
136.32421875 553.120117188 m 0
 136.32421875 501.970714116 166.536969669 469.420898438 214.015625 469.420898438 c 0
 261.846471913 469.420898438 292.284179688 501.970714116 292.284179688 553.120117188 c 0
 292.284179688 603.211775579 261.846471913 635.087890625 214.015625 635.087890625 c 0
 166.536969669 635.087890625 136.32421875 603.211775579 136.32421875 553.120117188 c 0
27.0205078125 553.262695312 m 0
 27.0205078125 666.76434571 99.734458734 738.9921875 214 738.9921875 c 0
 328.656935548 738.9921875 401.620117188 666.76434571 401.620117188 553.262695312 c 0
 401.620117188 438.587857604 328.656935548 365.61328125 214 365.61328125 c 0
 99.734458734 365.61328125 27.0205078125 438.587857604 27.0205078125 553.262695312 c 0
EndSplineSet
Refer: 168 8260 N 1 0 0 1 304 0 2
EndChar

StartChar: ampersand
Encoding: 6 38 76
Width: 715
Flags: W
HStem: -9.99805 124.998<225.872 432.644> 282.75 120.75<524 678.5> 307 117.5<254.714 353.75> 623.5 121.5<281.957 373.22>
VStem: 35 153<152.11 265.171> 53 146<470.621 568.521> 434.25 146.25<135 282.75 403.5 550.75> 439 134.5<135 550.75>
LayerCount: 2
Fore
SplineSet
680 404.5 m 1xd0
 678.5 277.5 l 1
 518.5 282.75 l 1
 524 403.5 l 1
 680 404.5 l 1xd0
372.5 745 m 1
 385 623.5 l 1
 303.034246575 615.775468574 199 592.341780042 199 521.43359375 c 0xb4
 199 469.475752898 244.870521616 432.737258712 357 424.5 c 1
 353.75 307 l 1
 247.5 299.957746479 188 281.647887324 188 207 c 0
 188 151.196721311 228.5 115 323 115 c 0
 401.75 115 434.25 135 434.25 135 c 1xba
 439 555.5 l 1
 573.5 550.75 l 1xb1
 580.5 39.25 l 1
 580.5 39.25 486.775758493 -9.998046875 320 -9.998046875 c 0
 153.830508474 -9.998046875 35 48.9660983365 35 201 c 0xba
 35 342.524021511 181.75 372.5 181.75 372.5 c 1
 181.75 372.5 53 408.105545824 53 531.75 c 0xb4
 53 639.400240384 137.027522936 728.596153846 372.5 745 c 1
EndSplineSet
Substitution2: "'ss18' Style Set 18 lookup 30-1" ampersand.ss18
Substitution2: "'ss09' Style Set 9 lookup 17-1" ampersand.ss09
EndChar

StartChar: two
Encoding: 18 50 77
Width: 595
Flags: W
HStem: 0 133.5<289.652 554.5> 603.5 135.5<154.029 339.2>
VStem: 389.364 150.6<389.379 551.932>
LayerCount: 2
Fore
SplineSet
289.65234375 133.5 m 1
 560 139.5 l 1
 554.5 0 l 1
 44.9833984375 0 l 1
 34.9833984375 97.5 l 1
 34.9833984375 97.5 389.364257812 279.550915135 389.364257812 471.5 c 0
 389.364257812 560.339154411 338.9340233 603.5 253.955078125 603.5 c 0
 149.109391969 603.5 86.4638671875 537 86.4638671875 537 c 1
 31.5634765625 663 l 1
 31.5634765625 663 124.162261826 739 279.53125 739 c 0
 447.850428291 739 539.963867188 646.292324216 539.963867188 498.93359375 c 0
 539.963867188 263.965953245 289.65234375 133.5 289.65234375 133.5 c 1
EndSplineSet
Substitution2: "'onum' Oldstyle Figures lookup 27-1" two.osf
Substitution2: "'frac' Diagonal Fractions in Latin lookup 26 subtable" two.numr
Substitution2: "'dnom' Denominators lookup 0 subtable" two.dnom
Substitution2: "'numr' Numerators lookup 0 subtable" two.numr
Substitution2: "'sinf' Scientific Inferiors lookup 0 subtable" two.inferior
Substitution2: "'sups' Superscript lookup 0 subtable" two.superior
EndChar

StartChar: three.ss01
Encoding: 736 -1 78
Width: 579
Flags: W
HStem: -10.0664 121.5<108.526 345.139> 318.242 109.441<145.272 334.318> 610.992 128<119.163 339.335>
VStem: 377.917 148<465.58 575.287> 400.917 144<157.096 275.689>
LayerCount: 2
Fore
SplineSet
57.5 155.25 m 1xe8
 57.5 155.25 131.225557729 111.43359375 233.916992188 111.43359375 c 0
 346.094206337 111.43359375 400.916992188 152.192331275 400.916992188 216.2421875 c 0xe8
 400.916992188 278.575520833 350.350736178 318.2421875 236.916992188 318.2421875 c 0
 164.724609375 318.2421875 145.2578125 311.68359375 145.2578125 311.68359375 c 1
 145.196289062 431.626953125 l 1
 145.196289062 431.626953125 163.407226562 427.68359375 222.916992188 427.68359375 c 0
 333.032637745 427.68359375 377.916992188 464.165134975 377.916992188 518.93359375 c 0
 377.916992188 576.098636992 334.588867188 610.9921875 236.916992188 610.9921875 c 0
 136.102368025 610.9921875 69.76953125 566.427734375 69.76953125 566.427734375 c 1
 36 694.840820312 l 1
 36 694.840820312 102.784926294 738.9921875 259.916992188 738.9921875 c 0
 424.786813973 738.9921875 525.916992188 663.358398438 525.916992188 542.93359375 c 0xf0
 525.916992188 413.898301613 403.025390625 378.96875 403.025390625 378.96875 c 1
 403.025390625 378.96875 544.916992188 349.468746591 544.916992188 196.9921875 c 0
 544.916992188 70.4560546875 436.805984028 -10.06640625 266.916992188 -10.06640625 c 0
 95.7507714891 -10.06640625 23 34.0849609375 23 34.0849609375 c 1
 57.5 155.25 l 1xe8
EndSplineSet
Substitution2: "'dnom' Denominators lookup 0 subtable" three.ss01.dnom
Substitution2: "'numr' Numerators lookup 0 subtable" three.ss01.numr
Substitution2: "'subs' Subscript lookup 0 subtable" three.ss01.subscript
Substitution2: "'sinf' Scientific Inferiors lookup 0 subtable" three.ss01.inferior
Substitution2: "'sups' Superscript lookup 0 subtable" three.ss01.superior
EndChar

StartChar: four
Encoding: 20 52 79
Width: 686
Flags: W
HStem: 0 21G<390 532.329> 184.62 119.96<201.72 645.26>
LayerCount: 2
Fore
SplineSet
526.899414062 616.68359375 m 1
 532.329101562 0 l 1
 390 0 l 1
 396.169921875 616.68359375 l 1
 526.899414062 616.68359375 l 1
351.059570312 752.280273438 m 1
 464.759765625 684.150390625 l 1
 201.719726562 304.580078125 l 1
 648.139648438 305.709960938 l 1
 645.259765625 180.9296875 l 1
 53.759765625 184.620117188 l 1
 28.5595703125 259.860351562 l 1
 351.059570312 752.280273438 l 1
EndSplineSet
Substitution2: "'onum' Oldstyle Figures lookup 27-1" four.osf
Substitution2: "'frac' Diagonal Fractions in Latin lookup 26 subtable" four.numr
Substitution2: "'dnom' Denominators lookup 0 subtable" four.dnom
Substitution2: "'numr' Numerators lookup 0 subtable" four.numr
Substitution2: "'sinf' Scientific Inferiors lookup 0 subtable" four.inferior
Substitution2: "'sups' Superscript lookup 0 subtable" four.superior
EndChar

StartChar: seven
Encoding: 23 55 80
Width: 568
Flags: W
HStem: 594.963 136.045<172.75 396.348>
LayerCount: 2
Fore
SplineSet
22 444.0078125 m 1
 48.25 731.0078125 l 1
 519.516601562 731.0078125 l 1
 562.016601562 648.0078125 l 1
 308.5 -16 l 1
 164.75 30 l 1
 396.34765625 596.2578125 l 1
 172.75 594.962890625 l 1
 156 433.5 l 1
 22 444.0078125 l 1
EndSplineSet
Substitution2: "'onum' Oldstyle Figures lookup 27-1" seven.osf
Substitution2: "'frac' Diagonal Fractions in Latin lookup 26 subtable" seven.numr
Substitution2: "'dnom' Denominators lookup 0 subtable" seven.dnom
Substitution2: "'numr' Numerators lookup 0 subtable" seven.numr
Substitution2: "'sinf' Scientific Inferiors lookup 0 subtable" seven.inferior
Substitution2: "'sups' Superscript lookup 0 subtable" seven.superior
EndChar

StartChar: dollar
Encoding: 4 36 81
Width: 408
Flags: W
HStem: 0 21G<163 270> 719 20G<128 235>
VStem: 35 139.432<446.856 506.4> 234.938 138.352<246.669 313.059>
LayerCount: 2
Fore
SplineSet
270 0 m 1
 163 0 l 1
 172.5 177.5 l 1
 258.5 177.5 l 1
 270 0 l 1
128 739 m 1
 235 739 l 1
 225.5 561.5 l 1
 139.5 561.5 l 1
 128 739 l 1
292.302734375 645.848632812 m 1
 308.732421875 541.330078125 l 1
 308.732421875 541.330078125 174.431640625 524.983255073 174.431640625 474.342773438 c 0
 174.431640625 450.290855369 206.855043293 440.277984775 282.732421875 406.209960938 c 0
 347.414912663 377.049316992 373.2890625 343.525455421 373.2890625 288.293945312 c 0
 373.2890625 106.297339128 88.0390625 87.0791015625 88.0390625 87.0791015625 c 1
 74.0693359375 206.671875 l 1
 74.0693359375 206.671875 234.9375 214.031331166 234.9375 280.423828125 c 0
 234.9375 308.826695062 203.728008563 323.014842366 137.036132812 346.897460938 c 0
 60.0344526032 374.739127675 35 411.047832986 35 463.64453125 c 0
 35 630.221383673 292.302734375 645.848632812 292.302734375 645.848632812 c 1
EndSplineSet
EndChar

StartChar: quotesingle
Encoding: 7 39 82
Width: 256
Flags: W
HStem: 465 300<82 168>
VStem: 82 86<465 522.534>
LayerCount: 2
Fore
SplineSet
51.5 765 m 25
 204.5 765 l 25
 168 465 l 25
 82 465 l 25
 51.5 765 l 25
EndSplineSet
EndChar

StartChar: quotedbl
Encoding: 2 34 83
Width: 462
VWidth: 1111
Flags: W
HStem: 454.5 312
VStem: 86 85<460.5 493.289>
LayerCount: 2
Fore
SplineSet
31.5 756.5 m 1
 178.5 766.5 l 1
 171 460.5 l 1
 86 454.5 l 1
 31.5 756.5 l 1
273.5 765.5 m 1
 424.5 752.5 l 1
 361 455.5 l 1
 269 458.5 l 1
 273.5 765.5 l 1
EndSplineSet
EndChar

StartChar: plus
Encoding: 11 43 84
Width: 450
Flags: W
HStem: 160.5 159.25<160 284> 315.5 109<21 270.417>
VStem: 176.25 101.5<292.562 563.362>
LayerCount: 2
Fore
SplineSet
285 569.5 m 1xa0
 277.75 391.5 l 1
 284 158.5 l 1
 160 160.5 l 1
 176.25 392.5 l 1
 169 572.5 l 1
 285 569.5 l 1xa0
21 424.5 m 1x60
 223 421.25 l 1
 432 427.5 l 1
 430.75 303.5 l 1
 222.75 319.75 l 1xa0
 18.75 315.5 l 1
 21 424.5 l 1x60
EndSplineSet
EndChar

StartChar: minus
Encoding: 719 8722 85
Width: 450
Flags: W
HStem: 311.25 119.5<104.95 421.75> 320 109<28.25 342.55>
LayerCount: 2
Fore
SplineSet
28.25 429 m 1x40
 424.25 430.75 l 1
 421.75 311.25 l 1x80
 25.75 320 l 1
 28.25 429 l 1x40
EndSplineSet
EndChar

StartChar: question
Encoding: 31 63 86
Width: 437
Flags: W
HStem: -10 166<86.8485 205.152> 225.385 186.839<90.2646 200.738> 627.25 118.134<56.628 149.988>
VStem: 63 166<13.8485 132.152> 261.75 140.25<444.617 559.598>
LayerCount: 2
Fore
SplineSet
35 627.25 m 1
 57.990234375 745.383789062 l 1
 293.90401523 712.414266652 402 638.8046875 402 497.010742188 c 0
 402 386.178770748 319.070962554 334.763117126 245.359619141 316.138183594 c 0
 224.580183085 310.708008291 206.577148438 309.5 206.577148438 309.5 c 1
 200.75 218.75 l 1
 200.75 218.75 184.852739725 225.384765625 148 225.384765625 c 0
 110.240384616 225.384765625 90.25 216.75 90.25 216.75 c 1
 83.6552734375 413.75 l 1
 83.6552734375 413.75 103.994983821 412.223632812 144.5 412.223632812 c 0
 212.788461539 412.223632812 261.75 437.555672083 261.75 505 c 0
 261.75 574.966578891 188.216003968 608.635124028 35 627.25 c 1
63 73 m 0
 63 123.722549716 95.2774502837 156 146 156 c 0
 196.722549716 156 229 123.722549716 229 73 c 0
 229 22.2774502841 196.722549716 -10 146 -10 c 0
 95.2774502837 -10 63 22.2774502841 63 73 c 0
EndSplineSet
EndChar

StartChar: parenleft
Encoding: 8 40 87
Width: 361
Flags: W
VStem: 35 136.137<118.163 476.702>
LayerCount: 2
Fore
SplineSet
171.13671875 300.836914062 m 0
 171.13671875 11.2344103221 315 -143.994140625 315 -143.994140625 c 1
 215 -198.994140625 l 1
 215 -198.994140625 35 -37 35 301.005859375 c 0
 35 613 215 791.001953125 215 791.001953125 c 1
 315 736.001953125 l 1
 315 736.001953125 171.13671875 586.859093223 171.13671875 300.836914062 c 0
EndSplineSet
EndChar

StartChar: parenright
Encoding: 9 41 88
Width: 361
Flags: W
VStem: 189.863 136.137<115.306 473.845>
LayerCount: 2
Fore
SplineSet
189.86328125 291.170898438 m 0
 189.86328125 580.773402178 46 736.001953125 46 736.001953125 c 1
 146 791.001953125 l 1
 146 791.001953125 326 629.0078125 326 291.001953125 c 0
 326 -20.9921875 146 -198.994140625 146 -198.994140625 c 1
 46 -143.994140625 l 1
 46 -143.994140625 189.86328125 5.1487192771 189.86328125 291.170898438 c 0
EndSplineSet
EndChar

StartChar: bracketleft
Encoding: 59 91 89
Width: 394
Flags: W
HStem: -190 103<181.247 366.824> 678.5 112.511<178.172 357.395>
VStem: 45 136.247<-87 680>
LayerCount: 2
Fore
SplineSet
357.39453125 791.010742188 m 1
 363.665039062 678.5 l 1
 178.171875 680 l 1
 181.247070312 -87 l 1
 369.806640625 -84.5 l 1
 366.82421875 -190 l 1
 45 -190 l 1
 47.69140625 791.010742188 l 1
 357.39453125 791.010742188 l 1
EndSplineSet
EndChar

StartChar: bracketright
Encoding: 61 93 90
Width: 394
Flags: W
HStem: -190 105.5<27.9824 213.56> 678.5 112.511<37.4121 216.635>
VStem: 213.56 136.247<-88.5 681.5>
LayerCount: 2
Fore
SplineSet
37.412109375 791.010742188 m 1
 347.115234375 791.010742188 l 1
 349.806640625 -190 l 1
 27.982421875 -190 l 1
 25 -84.5 l 1
 213.559570312 -88.5 l 1
 216.634765625 681.5 l 1
 31.1416015625 678.5 l 1
 37.412109375 791.010742188 l 1
EndSplineSet
EndChar

StartChar: less
Encoding: 28 60 91
Width: 450
Flags: W
LayerCount: 2
Fore
SplineSet
229.37109375 341.5 m 1
 420.349609375 233.5 l 1
 367.849609375 122 l 1
 29.650390625 332 l 1
 367.849609375 561 l 1
 420.349609375 449.5 l 1
 229.37109375 341.5 l 1
EndSplineSet
EndChar

StartChar: greater
Encoding: 30 62 92
Width: 450
Flags: W
LayerCount: 2
Fore
SplineSet
220.62890625 344.5 m 1
 29.650390625 449.5 l 1
 82.150390625 561 l 1
 420.349609375 351 l 1
 82.150390625 122 l 1
 29.650390625 233.5 l 1
 220.62890625 344.5 l 1
EndSplineSet
EndChar

StartChar: asciicircum
Encoding: 62 94 93
Width: 392
Flags: W
HStem: 416 332
LayerCount: 2
Fore
SplineSet
194 748 m 25
 389.5 482 l 25
 299 416 l 25
 195 585 l 25
 96.5 422 l 25
 2.5 473.5 l 25
 194 748 l 25
EndSplineSet
EndChar

StartChar: asterisk
Encoding: 10 42 94
Width: 401
Flags: W
LayerCount: 2
Fore
SplineSet
146.357421875 765 m 1
 253.357421875 765 l 1
 244.916992188 646.537109375 l 1
 349.330078125 686.889648438 l 1
 377.6640625 588.3046875 l 1
 264.24609375 559.580078125 l 1
 344.337890625 460 l 1
 260.510742188 403.329101562 l 1
 201.842773438 502.431640625 l 1
 142.2734375 403.329101562 l 1
 59.4462890625 460 l 1
 139.538085938 559.580078125 l 1
 23.5 596.754882812 l 1
 57.8681640625 686.889648438 l 1
 158.868164062 646.537109375 l 1
 146.357421875 765 l 1
EndSplineSet
EndChar

StartChar: sterling
Encoding: 97 163 95
Width: 576
Flags: W
HStem: 0 126.293<206.564 541.539> 267.5 127<163.318 418.5> 278.5 112<21.5 272.682>
VStem: 45.9297 160.635<126.293 227.493>
LayerCount: 2
Fore
SplineSet
21.5 390.5 m 1xb0
 422.5 394.5 l 1
 418.5 267.5 l 1xd0
 17.5 278.5 l 1
 21.5 390.5 l 1xb0
206.564453125 126.29296875 m 1
 545.159179688 127.930664062 l 1
 541.5390625 0 l 1
 45.9296875 0 l 1
 67.050426973 452.125433501 158.699731842 638.005046291 446.930664062 747.6640625 c 1
 498.798828125 628.604492188 l 1
 313.815313854 559.333532327 220.251603539 412.095153091 206.564453125 126.29296875 c 1
EndSplineSet
EndChar

StartChar: braceleft
Encoding: 91 123 96
Width: 474
Flags: W
HStem: -199.681 114.62<254.216 430.847> 245.602 110.4<25.03 150.678> 686.427 114.62<254.146 430.844>
VStem: 88.3398 142.727<-62.8769 61.2717 530.571 663.034> 157.296 130.451<117.004 238.455 362.044 464.363>
LayerCount: 2
Fore
SplineSet
296.986328125 801.046875 m 0xf0
 391.864767855 801.046875 447.4609375 773.2265625 447.4609375 773.2265625 c 1
 428.530273438 668.516601562 l 1
 428.530273438 668.516601562 388.096119224 686.426757812 330.157226562 686.426757812 c 0
 264.821808021 686.426757812 231.06640625 663.792303357 231.06640625 607 c 0xf0
 231.06640625 525.990596411 290.350585938 513.318437595 290.350585938 389.743164062 c 0
 290.350585938 320.680364452 224.905273438 296.681640625 224.905273438 296.681640625 c 1
 224.905273438 296.681640625 287.747070312 266.810162193 287.747070312 204.143554688 c 0xe8
 287.747070312 117.32567773 231.06640625 87.8429860088 231.06640625 -4 c 0
 231.06640625 -62.6038328147 265.216879849 -85.060546875 330.157226562 -85.060546875 c 0
 396.787411202 -85.060546875 428.530273438 -67.150390625 428.530273438 -67.150390625 c 1
 447.4609375 -171.860351562 l 1
 447.4609375 -171.860351562 391.864767855 -199.680664062 296.986328125 -199.680664062 c 0
 163.109070434 -199.680664062 88.33984375 -145.895507812 88.33984375 -39 c 0xf0
 88.33984375 67.3694525462 157.295898438 116.630366247 157.295898438 196.265625 c 0
 157.295898438 231.094447546 135.925087902 245.6015625 101.243164062 245.6015625 c 0
 62.643503579 245.6015625 25 243.721679688 25 243.721679688 c 1
 25 360 l 1
 25 360 66.2298354658 356.001953125 106.482421875 356.001953125 c 0
 136.325601115 356.001953125 157.295898438 366.522888796 157.295898438 395.62109375 c 0xe8
 157.295898438 464.974946428 88.33984375 495.204845146 88.33984375 622 c 0
 88.33984375 733.947265625 163.109070434 801.046875 296.986328125 801.046875 c 0xf0
EndSplineSet
EndChar

StartChar: braceright
Encoding: 93 125 97
Width: 474
Flags: W
HStem: -199.681 114.62<43.1557 224.075> 245.364 111.9<320.717 448.967> 686.427 114.62<43.1525 221.203>
VStem: 183.649 133.055<143.073 241.721 362.448 482.697> 242.934 142.727<-65.0512 73.1864 538.215 665.279>
LayerCount: 2
Fore
SplineSet
177.013671875 -199.680664062 m 0xe8
 82.1352321447 -199.680664062 26.5390625 -171.860351562 26.5390625 -171.860351562 c 1
 45.4697265625 -67.150390625 l 1
 45.4697265625 -67.150390625 85.9038807763 -85.060546875 143.842773438 -85.060546875 c 0
 209.178191979 -85.060546875 242.93359375 -64.5633873694 242.93359375 -13.1337890625 c 0xe8
 242.93359375 70.6721687723 183.649414062 106.281787661 183.649414062 211.623046875 c 0xf0
 183.649414062 280.685846486 249.094726562 304.684570312 249.094726562 304.684570312 c 1
 249.094726562 304.684570312 186.252929688 334.556048745 186.252929688 397.22265625 c 0
 186.252929688 487.168826458 242.93359375 517.713862809 242.93359375 612.866210938 c 0
 242.93359375 666.04781601 208.783120151 686.426757812 143.842773438 686.426757812 c 0
 77.2125887977 686.426757812 45.4697265625 668.516601562 45.4697265625 668.516601562 c 1
 26.5390625 773.2265625 l 1
 26.5390625 773.2265625 82.1352321447 801.046875 177.013671875 801.046875 c 0
 310.890929566 801.046875 385.66015625 747.26171875 385.66015625 640.366210938 c 0xe8
 385.66015625 531.284008853 316.704101562 480.766789722 316.704101562 399.100585938 c 0
 316.704101562 369.56640625 335.215442692 357.264648438 365.256835938 357.264648438 c 0
 407.653524747 357.264648438 449 359.14453125 449 359.14453125 c 1
 449 241.366210938 l 1
 449 241.366210938 403.975189387 245.364257812 360.017578125 245.364257812 c 0
 334.579211534 245.364257812 316.704101562 236.834960938 316.704101562 213.245117188 c 0xf0
 316.704101562 141.593550894 385.66015625 110.362126707 385.66015625 -20.6337890625 c 0
 385.66015625 -132.581054688 310.890929566 -199.680664062 177.013671875 -199.680664062 c 0xe8
EndSplineSet
EndChar

StartChar: cent
Encoding: 96 162 98
Width: 391
Flags: W
HStem: 0 21G<193 300> 158.934 55.0664<202.5 288.5> 524 52.9336<200.5 286.5> 719 20G<189 296>
VStem: 35 124<297.234 437.059> 193 107<0 67.5789 653 739> 202.5 86<120.957 214 524 635.481>
LayerCount: 2
Fore
SplineSet
300 0 m 1xfc
 193 0 l 1xfc
 202.5 214 l 1
 288.5 214 l 1xfa
 300 0 l 1xfc
189 739 m 1
 296 739 l 1
 286.5 524 l 1
 200.5 524 l 1
 189 739 l 1
35 369.93359375 m 0
 35 496.433681147 113.55547027 576.93359375 237 576.93359375 c 0
 341.501103034 576.93359375 385.916992188 534.782226562 385.916992188 534.782226562 c 1
 351.647460938 447.119140625 l 1
 351.647460938 447.119140625 314.01559677 470.43359375 255.5 470.43359375 c 0
 196.527416711 470.43359375 159 431.350822528 159 369.93359375 c 0
 159 304.238916015 193.185557663 262.43359375 267.5 262.43359375 c 0
 337.632704102 262.43359375 376.6484375 287.864257812 376.6484375 287.864257812 c 1
 401.146484375 191.31640625 l 1
 401.146484375 191.31640625 343.572391561 158.93359375 247 158.93359375 c 0
 117.444354936 158.93359375 35 240.988532903 35 369.93359375 c 0
EndSplineSet
EndChar

StartChar: asciitilde
Encoding: 94 126 99
Width: 524
Flags: W
HStem: 231.96 240.04
LayerCount: 2
Fore
SplineSet
351.571289062 355.918945312 m 1
 464.98046875 441.530273438 l 1
 523.66015625 356.5 l 1
 348.280273438 231.959960938 l 1
 180.58984375 344.291015625 l 1
 64.1806640625 251.1796875 l 1
 1 332.459960938 l 1
 177.880859375 472 l 1
 351.571289062 355.918945312 l 1
EndSplineSet
EndChar

StartChar: numbersign
Encoding: 3 35 100
Width: 704
Flags: W
HStem: 190 108<248.364 648> 201 93<24 419.636> 442 108<288 680> 453 93<68 456> 718.758 20G<235.088 341 495.088 601>
LayerCount: 2
Fore
SplineSet
24 294 m 1x48
 652 298 l 1
 648 190 l 1x88
 20 201 l 1
 24 294 l 1x48
68 546 m 1x18
 684 550 l 1
 680 442 l 1x28
 64 453 l 1
 68 546 l 1x18
356 7.75 m 1
 499 738.7578125 l 1
 601 723.2578125 l 1
 468 -7.75 l 1
 356 7.75 l 1
96 7.75 m 1
 239 738.7578125 l 1
 341 723.2578125 l 1
 208 -7.75 l 1
 96 7.75 l 1
EndSplineSet
EndChar

StartChar: five.ss02
Encoding: 737 -1 101
Width: 581
Flags: W
HStem: -10.0664 124.5<117.62 343.468> 356.242 117.508<195.039 353.196> 601.75 129.258<201.5 391.5>
VStem: 398.5 105.517<731.008 798.008> 400.917 144<165.347 308.504>
LayerCount: 2
Fore
SplineSet
504.016601562 600.7578125 m 1xf0
 201.5 601.75 l 1
 175.25 440 l 1
 175.25 440 211.410714286 473.75 310.25 473.75 c 0
 472.527435661 473.75 544.916992188 380.490003493 544.916992188 239.4921875 c 0
 544.916992188 65.8916414347 436.805984028 -10.06640625 266.916992188 -10.06640625 c 0
 95.7507714891 -10.06640625 23 44.0849609375 23 44.0849609375 c 1
 59 160.5 l 1
 59 160.5 138.680705159 114.43359375 249.666992188 114.43359375 c 0
 351.264618775 114.43359375 400.916992188 162.28952563 400.916992188 237.4921875 c 0xe8
 400.916992188 310.061631944 355.073266601 356.2421875 265.416992188 356.2421875 c 0
 182.613401098 356.2421875 132.7578125 303.43359375 132.7578125 303.43359375 c 1
 34 374.5 l 1
 95 731.0078125 l 1
 391.5 731.0078125 l 1
 398.5 798.0078125 l 1
 504.016601562 800.0078125 l 1
 504.016601562 600.7578125 l 1xf0
EndSplineSet
Substitution2: "'dnom' Denominators lookup 0 subtable" five.ss02.dnom
Substitution2: "'numr' Numerators lookup 0 subtable" five.ss02.numr
Substitution2: "'subs' Subscript lookup 0 subtable" five.ss02.subscript
Substitution2: "'sinf' Scientific Inferiors lookup 0 subtable" five.ss02.inferior
Substitution2: "'sups' Superscript lookup 0 subtable" five.ss02.superior
EndChar

StartChar: yen
Encoding: 99 165 102
Width: 744
Flags: W
HStem: 0 21G<330.08 492.409> 117.712 92.5<177.75 448.853> 253.212 101.5<437 651> 260.5 86.2119<180.25 616.149> 261.212 92.5<180.25 406.25>
VStem: 330.08 162.329<0 267.655>
LayerCount: 2
Fore
SplineSet
177.75 210.211914062 m 1xc4
 403.75 209.211914062 l 1
 649.75 211.211914062 l 1
 648.5 109.711914062 l 1
 394.5 123 l 1
 176.5 117.711914062 l 1
 177.75 210.211914062 l 1xc4
180.25 353.711914062 m 1xcc
 406.25 346.711914062 l 1xd4
 652.25 354.711914062 l 1
 651 253.211914062 l 1xe4
 397 260.5 l 1xd4
 179 261.211914062 l 1
 180.25 353.711914062 l 1xcc
EndSplineSet
Refer: 69 89 N 1 0 0 1 0 0 2
EndChar

StartChar: brokenbar
Encoding: 100 166 103
Width: 246
Flags: W
VStem: 62.3164 121.975<-170 239.44 355.92 788.992>
LayerCount: 2
Back
SplineSet
188.022460938 355.919921875 m 5
 58.7568359375 355.919921875 l 5
 31.169921875 788.9921875 l 5
 215.899414062 788.9921875 l 5
 188.022460938 355.919921875 l 5
189.291015625 239.440429688 m 5
 221.329101562 -170 l 5
 25 -170 l 5
 57.31640625 239.440429688 l 5
 189.291015625 239.440429688 l 5
EndSplineSet
Fore
SplineSet
183.022460938 355.919921875 m 1
 63.7568359375 355.919921875 l 1
 66.169921875 788.9921875 l 1
 180.899414062 788.9921875 l 1
 183.022460938 355.919921875 l 1
184.291015625 239.440429688 m 1
 186.329101562 -170 l 1
 60 -170 l 1
 62.31640625 239.440429688 l 1
 184.291015625 239.440429688 l 1
EndSplineSet
EndChar

StartChar: section
Encoding: 101 167 104
Width: 609
Flags: W
VStem: 112.753 149.099<536.452 617.574> 347.504 149.099<53.4261 134.561>
LayerCount: 2
Fore
SplineSet
69.890625 438.674804688 m 1
 119.677734375 354.040402383 202.281144095 322.121412866 326.131835938 281.393554688 c 0
 446.669501653 241.756485797 496.602539062 182.452719899 496.602539062 102.5 c 0
 496.602539062 -108.239257812 175.088867188 -114.163085938 175.088867188 -114.163085938 c 1
 156.552734375 4.4765625 l 1
 156.552734375 4.4765625 347.50390625 4.91586785878 347.50390625 94.279296875 c 0
 347.50390625 123.064562247 321.785384771 154.256223102 198.58984375 195.873046875 c 0
 103.758739766 229.799268546 35 287.271219629 35 352.936523438 c 0
 35 400.600957462 69.890625 438.674804688 69.890625 438.674804688 c 1
539.46484375 232.325195312 m 1
 489.677734375 316.959597617 406.882050139 348.505991198 283.223632812 389.606445312 c 0
 162.525474289 429.721679452 112.752929688 488.5472801 112.752929688 568.5 c 0
 112.752929688 779.239257812 434.266601562 785.163085938 434.266601562 785.163085938 c 1
 452.802734375 666.5234375 l 1
 452.802734375 666.5234375 261.8515625 666.084132141 261.8515625 576.720703125 c 0
 261.8515625 547.935437752 287.570083979 516.743776897 410.765625 475.126953125 c 0
 505.596728984 441.200731454 574.35546875 383.728780371 574.35546875 318.063476562 c 0
 574.35546875 270.399042538 539.46484375 232.325195312 539.46484375 232.325195312 c 1
EndSplineSet
EndChar

StartChar: currency
Encoding: 98 164 105
Width: 465
Flags: W
HStem: 153.532 108.966<190.888 283.11> 451.688 108.967<190.888 283.11>
VStem: 32.7803 108.489<292.461 419.58> 323.991 108.488<292.461 419.58>
LayerCount: 2
Fore
SplineSet
283.739257812 213.436523438 m 1
 364.889648438 246.325195312 l 1
 456.759765625 114.765625 l 1
 345.580078125 66.1455078125 l 1
 283.739257812 213.436523438 l 1
189.020507812 213.436523438 m 1
 127.1796875 66.1455078125 l 1
 8.5 114.765625 l 1
 100.370117188 246.325195312 l 1
 189.020507812 213.436523438 l 1
283.739257812 497.74609375 m 1
 345.580078125 645.036132812 l 1
 456.759765625 596.416015625 l 1
 364.889648438 464.856445312 l 1
 283.739257812 497.74609375 l 1
189.020507812 497.74609375 m 1
 100.370117188 464.856445312 l 1
 8.5 596.416015625 l 1
 127.1796875 645.036132812 l 1
 189.020507812 497.74609375 l 1
141.26953125 355.671875 m 0
 141.26953125 295.649724136 180.626907089 262.498046875 232.629882812 262.498046875 c 0
 284.636948801 262.498046875 323.991210938 295.649724136 323.991210938 355.671875 c 0
 323.991210938 416.380171978 284.636948801 451.688476562 232.629882812 451.688476562 c 0
 180.626907089 451.688476562 141.26953125 416.380171978 141.26953125 355.671875 c 0
32.7802734375 355.590820312 m 0
 32.7802734375 485.24609375 119.00345532 560.655273438 232.629882812 560.655273438 c 0
 346.256310305 560.655273438 432.479492188 485.24609375 432.479492188 355.590820312 c 0
 432.479492188 225.424804688 346.256310305 153.532226562 232.629882812 153.532226562 c 0
 119.00345532 153.532226562 32.7802734375 225.424804688 32.7802734375 355.590820312 c 0
EndSplineSet
EndChar

StartChar: dieresis
Encoding: 102 168 106
Width: 450
Flags: W
HStem: 604.008 135<75.1224 179.878 270.122 374.878>
VStem: 60 135<619.13 723.885> 255 135<619.13 723.885>
LayerCount: 2
Fore
SplineSet
255 671.5078125 m 0
 255 712.758078836 281.249733664 739.0078125 322.5 739.0078125 c 0
 363.750266336 739.0078125 390 712.758078836 390 671.5078125 c 0
 390 630.257546164 363.750266336 604.0078125 322.5 604.0078125 c 0
 281.249733664 604.0078125 255 630.257546164 255 671.5078125 c 0
60 671.5078125 m 0
 60 712.758078836 86.2497336648 739.0078125 127.5 739.0078125 c 0
 168.750266336 739.0078125 195 712.758078836 195 671.5078125 c 0
 195 630.257546164 168.750266336 604.0078125 127.5 604.0078125 c 0
 86.2497336648 604.0078125 60 630.257546164 60 671.5078125 c 0
EndSplineSet
EndChar

StartChar: guillemotleft
Encoding: 105 171 107
Width: 632
Flags: W
HStem: 491 20G<274.251 315.104>
LayerCount: 2
Fore
SplineSet
470.720703125 267.25 m 1
 616.69921875 136.5 l 1
 548.19921875 55.25 l 1
 311 260 l 1
 554.19921875 471.5 l 1
 616.69921875 397.5 l 1
 470.720703125 267.25 l 1
178.220703125 261.5 m 1
 371.69921875 88.5 l 1
 296.69921875 2 l 1
 6 252 l 1
 296.69921875 511 l 1
 371.69921875 429.5 l 1
 178.220703125 261.5 l 1
EndSplineSet
EndChar

StartChar: guillemotright
Encoding: 121 187 108
Width: 632
Flags: W
HStem: 491 20G<317.659 358.256>
LayerCount: 2
Fore
SplineSet
160.978515625 245.75 m 1
 15 376.5 l 1
 83.5 457.75 l 1
 320.69921875 253 l 1
 77.5 41.5 l 1
 15 115.5 l 1
 160.978515625 245.75 l 1
453.478515625 251.5 m 1
 260 424.5 l 1
 335 511 l 1
 625.69921875 261 l 1
 335 2 l 1
 260 83.5 l 1
 453.478515625 251.5 l 1
EndSplineSet
EndChar

StartChar: logicalnot
Encoding: 106 172 109
Width: 497
Flags: W
HStem: 280.75 107.5<39.5 345.25>
VStem: 341.25 119.25<151.324 275.216>
LayerCount: 2
Fore
SplineSet
39.5 388.25 m 1
 458.25 390 l 1
 460.5 148.25 l 1
 341.25 151.32421875 l 1
 345.25 275.215820312 l 1
 37 280.75 l 1
 39.5 388.25 l 1
EndSplineSet
EndChar

StartChar: macron
Encoding: 109 175 111
Width: 330
Flags: W
HStem: 631.508 99.5<124.068 309.25> 642.508 84.5<20.75 203.432>
VStem: 20.75 291
LayerCount: 2
Fore
SplineSet
20.75 727.0078125 m 1x60
 311.75 731.0078125 l 1
 309.25 631.5078125 l 1xa0
 18.25 642.5078125 l 1
 20.75 727.0078125 l 1x60
EndSplineSet
EndChar

StartChar: mu
Encoding: 115 181 112
Width: 638
Flags: W
HStem: -9.93164 108.25<211.657 338.847> 0 105.927<517.849 624.38> 489.752 7.25G<57.8408 192.17 387.81 515.307>
VStem: 40 132<-74.2038 500.121> 388 127.17<213.068 497.002>
LayerCount: 2
Fore
SplineSet
172 235.068359375 m 0x38
 172 4.92836574607 201 -167 201 -167 c 1
 67 -187 l 1
 67 -187 40 -6.66644428042 40 208.068359375 c 0
 40 356.436418247 57.8408203125 509.751953125 57.8408203125 509.751953125 c 1
 192.169921875 499.251953125 l 1
 192.169921875 499.251953125 172 354.250401708 172 235.068359375 c 0x38
266 -9.931640625 m 0xb8
 151.215637184 -9.931640625 101.289915966 99.8141859935 87 175.568359375 c 1
 160 287.568359375 l 1
 161.307692308 159.325698097 203.287903503 98.318359375 271 98.318359375 c 0
 339.142342033 98.318359375 385.461538462 134.958203401 395 287.568359375 c 1
 437.5 213.068359375 l 1
 411.613207547 90 390.079172374 -9.931640625 266 -9.931640625 c 0xb8
383.270507812 0 m 1x78
 388 497.001953125 l 1
 515.169921875 497.001953125 l 1
 517.848632812 105.926757812 l 1
 628 107.930664062 l 1
 624.379882812 0 l 1
 383.270507812 0 l 1x78
EndSplineSet
EndChar

StartChar: acute
Encoding: 114 180 113
Width: 230
Flags: W
HStem: 524.22 216.284
VStem: 8.5 213.518
LayerCount: 2
Fore
SplineSet
149.840820312 740.50390625 m 1
 222.017578125 664.68359375 l 1
 55.9375 524.219726562 l 1
 8.5 574.965820312 l 1
 149.840820312 740.50390625 l 1
EndSplineSet
EndChar

StartChar: plusminus
Encoding: 111 177 114
Width: 450
Flags: W
HStem: 106.5 111<223 430> 118.5 96<21 258.333> 178 32.5<160 284> 355.5 109<21 270.417>
VStem: 177 100<327.706 587.25>
LayerCount: 2
Fore
SplineSet
21 464.5 m 1x18
 223 461.25 l 1
 432 467.5 l 1
 430.75 343.5 l 1
 222.75 359.75 l 1
 18.75 355.5 l 1
 21 464.5 l 1x18
285 609.5 m 1
 277 431.5 l 1
 284 176 l 1
 160 178 l 1x38
 177 432.5 l 1
 169 612.5 l 1
 285 609.5 l 1
21 214.5 m 1x58
 223 210.5 l 1x38
 432 217.5 l 1
 430 106.5 l 1x98
 18 118.5 l 1
 21 214.5 l 1x58
EndSplineSet
EndChar

StartChar: copyright
Encoding: 103 169 116
Width: 795
Flags: W
HStem: -10.0664 78.377<279.521 516.905> 139.745 94.0502<346.096 518.224> 497.756 91.4248<351.751 508.024> 663.14 75.7939<279.521 516.905>
VStem: 27.5 85.5<241.77 489.041> 191.604 106.425<281.675 442.546> 689.117 78.3828<241.77 484.465>
LayerCount: 2
Fore
SplineSet
191.604492188 362.9453125 m 0
 191.604492188 501.200345084 276.946142156 589.180664062 411.0546875 589.180664062 c 0
 515.859375589 589.180664062 560.404296875 543.489257812 560.404296875 543.489257812 c 1
 527.017578125 463.629577637 l 1
 527.017578125 463.629577637 487.911858205 497.755859375 427.104492188 497.755859375 c 0
 348.224760513 497.755859375 298.029357911 445.330289606 298.029357911 362.9453125 c 0
 298.029357911 284.020017306 340.278305765 233.795288086 422.904296875 233.795288086 c 0
 501.522905185 233.795288086 541.34375 269.528991699 541.34375 269.528991699 c 1
 569.541992188 180.549804688 l 1
 569.541992188 180.549804688 529.447264902 139.745117188 405.0546875 139.745117188 c 0
 274.612811356 139.745117188 191.604492188 226.544541099 191.604492188 362.9453125 c 0
27.5 361.93359375 m 0
 27.5 592.322641811 171.194288438 738.93359375 397 738.93359375 c 0
 623.41713413 738.93359375 767.5 592.322641811 767.5 361.93359375 c 0
 767.5 134.599173678 623.41713413 -10.06640625 397 -10.06640625 c 0
 171.194288438 -10.06640625 27.5 134.599173678 27.5 361.93359375 c 0
113 361.93359375 m 0
 113 182.49690135 223.83234375 68.310546875 398 68.310546875 c 0
 575.905417302 68.310546875 689.1171875 182.49690135 689.1171875 361.93359375 c 0
 689.1171875 546.005417306 575.905417302 663.139648438 398 663.139648438 c 0
 223.83234375 663.139648438 113 546.005417306 113 361.93359375 c 0
EndSplineSet
EndChar

StartChar: registered
Encoding: 108 174 117
Width: 795
Flags: W
HStem: -10.0664 78.377<279.521 516.905> 492.818 90.9756<362.613 471.402> 492.818 30.7549<313.389 358.606> 663.14 75.7939<279.521 516.905>
VStem: 27.5 85.5<241.77 489.041> 260.866 99.7393<140.398 303.521 364.425 523.573> 493.642 99.0378<372.924 470.823> 689.117 78.3828<241.77 484.465>
LayerCount: 2
Fore
SplineSet
360.60546875 140.3984375 m 1xbf
 260.866210938 140.3984375 l 1
 264.568359375 523.573242188 l 1
 358.606445312 523.573242188 l 1
 360.60546875 140.3984375 l 1xbf
343.846679688 364.424804688 m 1
 343.846679688 364.424804688 359.32271776 351.858398438 407.842102051 351.858398438 c 0
 462.408181189 351.858398438 493.641906738 382.092793927 493.641906738 421.758728027 c 0
 493.641906738 465.671922069 463.145944384 492.818359375 397.12890625 492.818359375 c 0
 313.388717802 492.818359375 207.015625 451.942382812 207.015625 451.942382812 c 1
 185.62890625 542.677734375 l 1
 185.62890625 542.677734375 251.201352519 583.793945312 405.479492188 583.793945312 c 0xdf
 519.879806858 583.793945312 592.6796875 523.346725276 592.6796875 428.358398438 c 0
 592.6796875 355.314963707 546.901053127 319.665786319 514.251586914 303.649963379 c 0
 495.222599403 294.422046807 479.922851562 291.622680664 479.922851562 291.622680664 c 1
 602.016601562 203.498657227 l 1
 543.291015625 122.573242188 l 1
 317.858398438 303.520874024 l 1
 343.846679688 364.424804688 l 1
27.5 361.93359375 m 0
 27.5 592.322641811 171.194288438 738.93359375 397 738.93359375 c 0
 623.41713413 738.93359375 767.5 592.322641811 767.5 361.93359375 c 0
 767.5 134.599173678 623.41713413 -10.06640625 397 -10.06640625 c 0
 171.194288438 -10.06640625 27.5 134.599173678 27.5 361.93359375 c 0
113 361.93359375 m 0
 113 182.49690135 223.83234375 68.310546875 398 68.310546875 c 0
 575.905417302 68.310546875 689.1171875 182.49690135 689.1171875 361.93359375 c 0
 689.1171875 546.005417306 575.905417302 663.139648438 398 663.139648438 c 0
 223.83234375 663.139648438 113 546.005417306 113 361.93359375 c 0
EndSplineSet
EndChar

StartChar: degree
Encoding: 110 176 118
Width: 429
Flags: W
HStem: 364.113 99.8027<157.941 271.324> 639.093 99.8994<157.941 271.324>
VStem: 24.5 107.884<490.859 613.114> 297.184 107.916<490.859 613.114>
LayerCount: 2
Fore
SplineSet
132.383789062 552.416015625 m 0
 132.383789062 498.333539691 164.30859934 463.916015625 214.479492188 463.916015625 c 0
 265.020979712 463.916015625 297.18359375 498.333539691 297.18359375 552.416015625 c 0
 297.18359375 605.385752995 265.020979712 639.092773438 214.479492188 639.092773438 c 0
 164.30859934 639.092773438 132.383789062 605.385752995 132.383789062 552.416015625 c 0
24.5 552.512695312 m 0
 24.5 666.472331588 98.3808606303 738.9921875 214.479492188 738.9921875 c 0
 330.969722808 738.9921875 405.099609375 666.472331588 405.099609375 552.512695312 c 0
 405.099609375 437.379239425 330.969722808 364.11328125 214.479492188 364.11328125 c 0
 98.3808606302 364.11328125 24.5 437.379239425 24.5 552.512695312 c 0
EndSplineSet
EndChar

StartChar: AE
Encoding: 132 198 119
Width: 960
Flags: W
HStem: 0 126.48<634.018 931.539> 160.5 127<289.2 574> 300.5 127<594.2 879> 309.25 116.5<527 807.8> 598.08 132.928<206.5 482.992 631.104 923.729>
VStem: 523 111.018<309.25 425.75>
LayerCount: 2
Fore
SplineSet
254.5 285.75 m 1xcc
 578 287.5 l 1
 574 160.5 l 1
 218 169.25 l 1
 254.5 285.75 l 1xcc
923.729492188 731.010742188 m 1
 929.61328125 599 l 1
 631.103515625 603 l 1
 634.017578125 126.48046875 l 1
 664.064453125 126.29296875 l 1
 935.159179688 127.930664062 l 1
 931.5390625 0 l 1
 478.4296875 0 l 1
 483.151367188 605.083984375 l 1
 197.5 598.080078125 l 1
 206.5 731.0078125 l 1
 923.729492188 731.010742188 l 1
527 425.75 m 1xdc
 883 427.5 l 1
 879 300.5 l 1xec
 523 309.25 l 1
 527 425.75 l 1xdc
549.5 632.5 m 1
 135.069335938 -15 l 1
 5.2734375 73.5 l 1
 451 693 l 1
 549.5 632.5 l 1
EndSplineSet
EndChar

StartChar: ae
Encoding: 164 230 120
Width: 880
Flags: W
HStem: -23.9004 107.551<626.451 779.319> -10.0664 101.25<179.748 322.249> 196.75 90.25<485.25 739> 247.184 89.75<176.856 323.485> 398.434 108.5<556.797 697.315> 501 20G<169.535 173>
VStem: 27.5 121.5<119.742 219.477> 351.5 103<118.411 220.611> 738.682 129.437<291.002 356.34>
LayerCount: 2
Fore
SplineSet
351.5 171.68359375 m 0x5380
 351.5 215.369592055 312.319281281 247.18359375 250.75 247.18359375 c 0
 188.569282084 247.18359375 149 215.369592055 149 171.68359375 c 0
 149 123.183265422 188.569282084 91.18359375 250.75 91.18359375 c 0
 312.319281281 91.18359375 351.5 123.183265422 351.5 171.68359375 c 0x5380
454.5 148.93359375 m 0
 454.5 96.8016153974 395.064960187 -10.06640625 238 -10.06640625 c 0
 109.360891489 -10.06640625 27.5 59.5443756621 27.5 168.93359375 c 0
 27.5 271.60101103 104.49920005 336.93359375 225.5 336.93359375 c 0
 384.215327556 336.93359375 454.5 225.852139777 454.5 148.93359375 c 0
473.848632812 150.926757812 m 1
 354.770507812 151 l 1
 354.770507812 151 359.5 244.29296875 359.5 301.25 c 0
 359.5 409.455498417 155.5 420 155.5 420 c 1
 173 521 l 1x0780
 173 521 471.169921875 513.875646888 471.169921875 297.001953125 c 0
 471.169921875 241.854141501 473.848632812 150.926757812 473.848632812 150.926757812 c 1
EndSplineSet
Refer: 9 101 N 1 0 0 1 350 0 2
EndChar

StartChar: cedilla
Encoding: 118 184 121
Width: 227
Flags: W
HStem: -248 69<12 102.084> -101.25 121.25<37 95.8878>
VStem: 110.5 89<-167.548 -111.088>
LayerCount: 2
Fore
SplineSet
37 20 m 1
 115 17 l 1
 96.5 -47.5 l 1
 96.5 -47.5 199.5 -53.7355575459 199.5 -136 c 0
 199.5 -216.730463477 135.730964467 -242 12 -248 c 1
 6 -179 l 1
 80.1 -178.451136364 110.5 -167.547618553 110.5 -138.75 c 0
 110.5 -113.491735538 88.2050563571 -102.742796199 22 -101.25 c 1
 13 -63.25 l 1
 37 20 l 1
EndSplineSet
EndChar

StartChar: paragraph
Encoding: 116 182 124
Width: 823
Flags: W
HStem: 600.992 138<425.1 517.5 654.261 689.142>
VStem: 35 390.1<375.734 596.107> 276.5 148.6<-173.994 41.184> 290 135.1<25.8141 243.185> 517.5 147<-173.994 352.788> 517.5 136.761<69.7748 596.557>
LayerCount: 2
Fore
SplineSet
788 714.984375 m 1xc0
 777 587.984375 l 1
 777 587.984375 699.880997892 595.9921875 654.260742188 596.556640625 c 1xc4
 664.5 -173.994140625 l 1
 517.5 -173.994140625 l 1x88
 517.5 600.9921875 l 1
 425.099609375 600.9921875 l 1x94
 425.099609375 -173.994140625 l 1
 276.5 -173.994140625 l 1xa0
 290 240.9921875 l 1x90
 140.624458405 253.871308694 35 324.077035731 35 485.9921875 c 0
 35 667.805875713 156.724073327 738.9921875 388 738.9921875 c 0
 640.862580128 738.9921875 788 714.984375 788 714.984375 c 1xc0
EndSplineSet
EndChar

StartChar: Eth
Encoding: 142 208 125
Width: 783
Flags: W
HStem: -10.0664 139.25<301.495 493.034> 287.5 127<191.409 462.5> 298.5 112<39 307.591> 596.242 33.0078<181.14 295.67> 596.242 142.75<302.854 488.067>
VStem: 153.94 141.729<136.347 629.25> 607.417 149<248.64 473.837>
LayerCount: 2
Fore
SplineSet
39 410.5 m 1xa6
 465 414.5 l 1
 462.5 287.5 l 1xc6
 36.5 298.5 l 1
 39 410.5 l 1xa6
EndSplineSet
Refer: 57 68 N 1 0 0 1 0 0 2
EndChar

StartChar: eth
Encoding: 174 240 126
Width: 585
Flags: W
HStem: -10.0664 119.925<215.553 360.223> 384.009 122.925<213.082 364.092> 515.466 21G<178.423 224.888>
VStem: 27.5 130.375<166.529 331.906> 417.125 140.375<168.15 329.539>
LayerCount: 2
Fore
SplineSet
140.901367188 614.920898438 m 1
 306.440429688 684.025390625 l 1
 460.33984375 774.794921875 l 1
 513.955078125 661.89453125 l 1
 344.1171875 599.879882812 l 1
 187.868164062 515.465820312 l 1
 140.901367188 614.920898438 l 1
157.875 252.108398438 m 0
 157.875 165.177680407 208.0998128 109.858398438 287.025390625 109.858398438 c 0
 366.531045187 109.858398438 417.125 165.177680407 417.125 252.108398438 c 0
 417.125 332.714658645 366.531045187 384.008789062 287.025390625 384.008789062 c 0
 208.0998128 384.008789062 157.875 332.714658645 157.875 252.108398438 c 0
27.5 249.93359375 m 0
 27.5 406.989257812 120.638787771 506.93359375 267 506.93359375 c 0
 364.884152762 506.93359375 393.40234375 472.557617188 393.40234375 472.557617188 c 1
 350.565981056 635.786461167 187.021484375 703.267578125 187.021484375 703.267578125 c 1
 314.520507812 782.510742188 l 1
 314.520507812 782.510742188 557.5 639.959487241 557.5 312 c 0
 557.5 76.5609773511 452.305896848 -10.06640625 287 -10.06640625 c 0
 128.416557105 -10.06640625 27.5 91.0439453125 27.5 249.93359375 c 0
EndSplineSet
EndChar

StartChar: multiply
Encoding: 149 215 127
Width: 450
Flags: W
LayerCount: 2
Fore
SplineSet
343.034179688 568.0859375 m 1
 429 486.36328125 l 1
 268.67578125 335.126953125 l 1
 114.036132812 158.670898438 l 1
 23.12109375 246.7578125 l 1
 197.568359375 404.594726562 l 1
 343.034179688 568.0859375 l 1
109.086914062 568.0859375 m 1
 262.052734375 404.594726562 l 1
 429 246.7578125 l 1
 338.084960938 158.670898438 l 1
 187.1953125 335.126953125 l 1
 23.12109375 486.36328125 l 1
 109.086914062 568.0859375 l 1
EndSplineSet
EndChar

StartChar: divide
Encoding: 181 247 128
Width: 450
Flags: W
HStem: 144.25 145<169.109 280.891> 320.25 101.5<37.5 413.5> 449.75 145<169.109 280.891>
VStem: 150 150<162.721 270.779 468.221 576.279>
LayerCount: 2
Fore
SplineSet
150 522.25 m 0
 150 566.556117466 179.166666667 594.75 225 594.75 c 0
 270.833333333 594.75 300 566.556117466 300 522.25 c 0
 300 477.943882534 270.833333333 449.75 225 449.75 c 0
 179.166666667 449.75 150 477.943882534 150 522.25 c 0
36.5 421.75 m 1
 417.5 425.75 l 1
 413.5 316.25 l 1
 37.5 320.25 l 1
 36.5 421.75 l 1
150 216.75 m 0
 150 261.056117466 179.166666667 289.25 225 289.25 c 0
 270.833333333 289.25 300 261.056117466 300 216.75 c 0
 300 172.443882534 270.833333333 144.25 225 144.25 c 0
 179.166666667 144.25 150 172.443882534 150 216.75 c 0
EndSplineSet
EndChar

StartChar: Oslash
Encoding: 150 216 129
Width: 785
Flags: W
HStem: -10.0664 141.101<293.49 484.376> 597.833 141.101<297.957 484.376>
VStem: 35 147.487<251.348 474.338> 602.513 147.487<253.884 471.742>
LayerCount: 2
Fore
SplineSet
715.94921875 725.68359375 m 1
 437.330078125 348.549804688 l 1
 190.37890625 -82.25 l 1
 76.55078125 -15.75 l 1
 359.029296875 379.450195312 l 1
 608.720703125 795.18359375 l 1
 715.94921875 725.68359375 l 1
EndSplineSet
Refer: 43 79 N 1 0 0 1 0 0 2
EndChar

StartChar: oslash
Encoding: 182 248 130
Width: 565
Flags: W
HStem: -10.0664 117.675<211.65 352.566> 389.259 117.675<207.194 357.037>
VStem: 27.5 126.875<165.404 333.048> 409.875 127.625<165.404 333.048>
LayerCount: 2
Fore
SplineSet
508.0390625 501.138671875 m 1
 315.294921875 237.315429688 l 1
 142.185546875 -49.7802734375 l 1
 59.4609375 3.599609375 l 1
 254.59765625 268.624023438 l 1
 429.40625 556.37890625 l 1
 508.0390625 501.138671875 l 1
EndSplineSet
Refer: 3 111 N 1 0 0 1 0 0 2
EndChar

StartChar: Thorn
Encoding: 156 222 131
Width: 714
Flags: W
HStem: 0 21G<140.208 296.537> 122.434 121.5<303.299 494.07> 487.492 125<299.027 493.438> 605.084 125.927<29.998 144.529>
VStem: 140.208 156.329<0 174.434 282.377 448.428 560.841 605.084> 543.917 143<291.054 439.907>
LayerCount: 2
Fore
SplineSet
269.196289062 282.376953125 m 1xec
 269.196289062 282.376953125 307.862578255 243.93359375 407.916992188 243.93359375 c 0
 497.055479805 243.93359375 543.916992188 288.290433843 543.916992188 359.93359375 c 0
 543.916992188 445.34524735 499.350974974 487.4921875 400.916992188 487.4921875 c 0
 322.310888028 487.4921875 264.26953125 448.427734375 264.26953125 448.427734375 c 1
 233 560.840820312 l 1
 233 560.840820312 304.78377362 612.4921875 419.416992188 612.4921875 c 0
 584.445816281 612.4921875 686.916992188 518.732300799 686.916992188 354.93359375 c 0
 686.916992188 213.925598144 588.49456676 122.43359375 429.416992188 122.43359375 c 0
 311.347331549 122.43359375 240.2578125 174.43359375 240.2578125 174.43359375 c 1
 269.196289062 282.376953125 l 1xec
291.107421875 731.010742188 m 1xdc
 296.537109375 0 l 1
 140.208007812 0 l 1
 144.529296875 605.083984375 l 1
 26.3779296875 603.080078125 l 1
 29.998046875 731.010742188 l 1
 291.107421875 731.010742188 l 1xdc
EndSplineSet
EndChar

StartChar: thorn
Encoding: 188 254 132
Width: 667
Flags: W
HStem: -10.0664 115<301.78 450.932> 391.934 115<302.361 450.932> 649.084 105.927<13.6201 108.151>
VStem: 108.151 126.578<-174 649.084> 169.5 70.6592<88.5811 397.072> 510.75 128.75<166.026 332.485>
LayerCount: 2
Fore
SplineSet
244.25 249.93359375 m 0xe4
 244.25 161.322167969 295.874503299 104.93359375 377 104.93359375 c 0
 458.736935702 104.93359375 510.75 161.322167969 510.75 249.93359375 c 0
 510.75 336.712165753 458.736935702 391.93359375 377 391.93359375 c 0
 295.874503299 391.93359375 244.25 336.712165753 244.25 249.93359375 c 0xe4
169.5 255.43359375 m 0xec
 169.5 397.07222145 250.799413202 506.93359375 404 506.93359375 c 0
 547.917339125 506.93359375 639.5 406.989257812 639.5 249.93359375 c 0
 639.5 91.0439453125 547.917339125 -10.06640625 404 -10.06640625 c 0
 260.693996076 -10.06640625 169.5 88.5810959657 169.5 255.43359375 c 0xec
234.729492188 755.010742188 m 1xf4
 240.159179688 -174 l 1xec
 103.830078125 -174 l 1
 108.151367188 649.083984375 l 1
 10 647.080078125 l 1
 13.6201171875 755.010742188 l 1
 234.729492188 755.010742188 l 1xf4
EndSplineSet
EndChar

StartChar: kgreenlandic
Encoding: 246 312 133
Width: 610
Flags: W
HStem: 0 21G<126.33 262.659> 391.084 105.927<13.6201 130.651> 494 20G<453.035 495.586>
VStem: 126.33 136.329<0 391.084>
LayerCount: 2
Fore
SplineSet
473.5 514 m 1xb0
 563.5 432.5 l 1
 368.5 255 l 1
 585.5 77 l 1
 491 -17 l 1
 209.5 256 l 1
 473.5 514 l 1xb0
257.229492188 497.010742188 m 1xd0
 262.659179688 0 l 1
 126.330078125 0 l 1
 130.651367188 391.083984375 l 1
 10 389.080078125 l 1
 13.6201171875 497.010742188 l 1
 257.229492188 497.010742188 l 1xd0
EndSplineSet
EndChar

StartChar: Eng
Encoding: 264 330 134
Width: 830
Flags: W
HStem: 0 21G<138.83 295.159> 603.08 127.931<28.6201 143.151> 603.492 135.5<377.54 546.05>
VStem: 138.83 156.329<0 445.992> 617.122 153.75<99.0316 525.433>
LayerCount: 2
Back
SplineSet
242.872070312 445.9921875 m 1xb8
 269.833984375 629.037109375 354.87109375 738.9921875 530.872070312 738.9921875 c 0
 688.88671875 738.9921875 785.872070312 652.708007812 785.872070312 430.9921875 c 0
 785.872070312 211.653320312 768.03125 -15 768.03125 -15 c 1
 546.702148438 0 l 1
 546.702148438 0 566.872070312 216.249023438 566.872070312 393.9921875 c 0
 566.872070312 495.55078125 538.45703125 553.9921875 457.872070312 553.9921875 c 0
 375.891601562 553.9921875 326.822265625 510.404296875 300.872070312 398.9921875 c 1
 242.872070312 445.9921875 l 1xb8
334.729492188 731.010742188 m 1
 340.159179688 0 l 1
 123.830078125 0 l 1
 128.151367188 560.083984375 l 1
 10 558.080078125 l 1
 13.6201171875 731.010742188 l 1
 334.729492188 731.010742188 l 1
EndSplineSet
Fore
SplineSet
197.872070312 445.9921875 m 1xb8
 226.2385373 629.037109375 315.704792302 738.9921875 500.872070312 738.9921875 c 0
 660.681479595 738.9921875 770.872070312 652.708007812 770.872070312 430.9921875 c 0
 770.872070312 274.59375 756.301757812 29.9814453125 756.301757812 29.9814453125 c 1
 590.892578125 -189.518554688 l 1
 460.392578125 -107.518554688 l 1
 603.72265625 62.4814453125 l 1
 603.72265625 62.4814453125 617.122070312 269.277926523 617.122070312 401.4921875 c 0
 617.122070312 529.709912109 575.99899599 603.4921875 459.372070312 603.4921875 c 0
 353.110782836 603.4921875 289.507995916 545.984293095 255.872070312 398.9921875 c 1
 197.872070312 445.9921875 l 1xb8
289.729492188 731.010742188 m 1xd8
 295.159179688 0 l 1
 138.830078125 0 l 1
 143.151367188 605.083984375 l 1
 25 603.080078125 l 1
 28.6201171875 731.010742188 l 1
 289.729492188 731.010742188 l 1xd8
EndSplineSet
EndChar

StartChar: eng
Encoding: 265 331 135
Width: 638
Flags: W
HStem: 0 21G<118.83 255.159> 391.075 105.927<13.6201 123.151> 392.934 114<299.619 430.168>
VStem: 118.83 136.329<0 253.934> 466 132<16.0035 354.733>
LayerCount: 2
Back
SplineSet
188 253.93359375 m 5xb8
 210.000338808 411.989257812 279.388472577 506.93359375 423 506.93359375 c 4
 558.0703125 506.93359375 628 429.158131451 628 278.93359375 c 4
 628 134.376986611 610.159179688 -15 610.159179688 -15 c 5
 415.830078125 0 l 5
 415.830078125 0 436 138.277935542 436 251.93359375 c 4
 436 312.868913517 418.012695312 347.93359375 367 347.93359375 c 4
 307.390237894 347.93359375 282.693825662 311.094726562 266 216.93359375 c 5
 188 253.93359375 l 5xb8
EndSplineSet
Fore
SplineSet
466 251.93359375 m 0xb8
 466 341.432344657 440.192128056 392.93359375 367 392.93359375 c 0
 289.684367962 392.93359375 257.65238774 343.440153863 236 216.93359375 c 1
 173 253.93359375 l 1
 194.298200335 411.989257812 261.471819197 506.93359375 400.5 506.93359375 c 0
 530.628715701 506.93359375 598 429.158131451 598 278.93359375 c 0
 598 170.142989767 582.159179688 0 582.159179688 0 c 1
 454.5 -189 l 1
 335.5 -118 l 1
 447.830078125 18 l 1
 447.830078125 18 466 160.698425479 466 251.93359375 c 0xb8
249.729492188 497.001953125 m 1xd8
 255.159179688 0 l 1
 118.830078125 0 l 1
 123.151367188 391.075195312 l 1
 10 389.071289062 l 1
 13.6201171875 497.001953125 l 1
 249.729492188 497.001953125 l 1xd8
EndSplineSet
EndChar

StartChar: OE
Encoding: 272 338 136
Width: 1110
Flags: W
HStem: -10.0664 141.101<293.49 484.376> 0 126.293<784.064 1081.54> 300.5 127<744.2 1029> 309.25 116.5<677 957.8> 597.833 141.101<297.957 484.376> 603 128.011<781.104 1073.73>
VStem: 35 147.487<251.348 474.338> 602.513 147.487<253.884 471.742> 673 111.018<309.25 425.75>
LayerCount: 2
Fore
SplineSet
677 425.75 m 1x1280
 1033 427.5 l 1
 1029 300.5 l 1x2280
 673 309.25 l 1
 677 425.75 l 1x1280
1073.72949219 731.010742188 m 1x4680
 1079.61328125 599 l 1
 781.103515625 603 l 1
 784.017578125 126.48046875 l 1
 784.064453125 126.29296875 l 1
 1085.15917969 127.930664062 l 1
 1081.5390625 0 l 1
 628.4296875 0 l 1
 633.151367188 731.010742188 l 1
 1073.72949219 731.010742188 l 1x4680
EndSplineSet
Refer: 43 79 N 1 0 0 1 0 0 2
EndChar

StartChar: longs
Encoding: 317 383 138
Width: 401
Flags: W
HStem: 0 21G<123.335 258.637> 387.25 109.75<25.5 187>
VStem: 104.869 133.533<495.323 631.235> 123.335 135.302<0 392.25 399.965 561.475> 125.994 61.0059<392.25 493>
LayerCount: 2
Fore
SplineSet
125.984375 412.096679688 m 2xd0
 125.990901331 413.106856647 125.994124776 414.107767495 125.994124776 415.099604408 c 0xc8
 125.994124776 495.58873246 104.869140625 516.320447715 104.869140625 580 c 0
 104.869140625 711.412976765 192.625353692 767.86158329 347.01953125 797.84375 c 1
 367.4765625 684.374023438 l 1
 273.562780385 663.989452318 238.40234375 629.097102625 238.40234375 563.5 c 0xe0
 238.40234375 520.252122755 253.871883933 480.239481606 254.637695312 399.96484375 c 2
 258.63671875 0 l 1
 123.334960938 0 l 1
 125.984375 412.096679688 l 2xd0
187 392.25 m 1
 22 387.25 l 1
 25.5 497 l 1
 190 493 l 1
 187 392.25 l 1
EndSplineSet
EndChar

StartChar: uni018F
Encoding: 318 399 139
Width: 761
Flags: W
HStem: -9.99805 138<285.617 471.585> 309.066 125.087<193.662 612.81> 610.88 143.798<174.663 364.381>
VStem: 35 158.385<213.759 309.061>
LayerCount: 2
Back
SplineSet
20 361.93359375 m 0
 20 592.358449127 162.722067273 738.9921875 387 738.9921875 c 0
 692.703602516 738.9921875 740.809570312 528.036293548 740.809570312 395.250976562 c 0
 740.809570312 330.260178936 729.916992188 282.840820312 729.916992188 282.840820312 c 5
 148 284 l 5
 137 441 l 1
 505.647460938 445.427734375 l 1
 505.647460938 445.427734375 494.816386769 543.9921875 381 543.9921875 c 0
 300.33283944 543.9921875 249 476.30370791 249 369.93359375 c 0
 249 231.45533579 353.417075805 194.391339376 594.1484375 183.364257812 c 1
 571.146484375 -25.68359375 l 1
 248.292348682 -22.428262906 20 98.1280331654 20 361.93359375 c 0
EndSplineSet
Fore
SplineSet
725.809570312 359.560546875 m 0
 725.809570312 133.719027998 590.670828141 -9.998046875 378.309570312 -9.998046875 c 0
 81.6783278901 -9.998046875 35 196.355055343 35 326.243164062 c 0
 35 388.632252031 45.892578125 434.153320312 45.892578125 434.153320312 c 1
 612.809570312 432.994140625 l 1
 623.809570312 313.494140625 l 1
 193.662109375 309.06640625 l 1
 193.662109375 309.06640625 192.914028724 302.035372771 193.38544331 293.000000113 c 0
 195.121387249 216.097052024 243.935975182 128.001953125 382.059570312 128.001953125 c 0
 495.26859678 128.001953125 567.309570312 207.440155854 567.309570312 351.560546875 c 0
 567.309570312 544.036388179 459.513916871 600.802951117 161.411132812 610.879882812 c 1
 174.663085938 754.677734375 l 1
 512.51722163 751.359416176 725.809570312 628.470477876 725.809570312 359.560546875 c 0
EndSplineSet
EndChar

StartChar: ordfeminine
Encoding: 104 170 140
Width: 473
Flags: W
HStem: 277 81.5<57.5 428.5> 402 90<143.806 260.031> 410 83<395.5 456.5> 658 90<143.806 260.258>
VStem: 20.5 99.5<515.194 633.751> 283 112.5<523.538 625.333> 291 102.5<584 741> 291 51<486.071 684.161>
LayerCount: 2
Fore
SplineSet
56.5 358.5 m 1x98
 432.5 362.5 l 1
 428.5 273 l 1
 57.5 277 l 1
 56.5 358.5 l 1x98
283 574 m 0xdc
 283 625.333333333 252.465517241 658 202.5 658 c 0
 153 658 120 625.333333333 120 574 c 0
 120 523.538461538 153 492 202.5 492 c 0
 252.465517241 492 283 523.538461538 283 574 c 0xdc
342 584 m 0xd9
 342 486.07106599 285 402 178 402 c 0
 81.5909090909 402 20.5 469 20.5 574 c 0
 20.5 680 81.5909090909 748 178 748 c 0
 278 748 342 684.161073826 342 584 c 0xd9
288 410 m 1xbc
 291 741 l 1
 393.5 741 l 1xba
 395.5 493 l 1
 458.5 495 l 1
 456.5 410 l 1
 288 410 l 1xbc
EndSplineSet
EndChar

StartChar: ordmasculine
Encoding: 120 186 141
Width: 399
Flags: W
HStem: 277 81.5<27.5 367.5> 403 94<141.298 257.556> 654 94<141.298 257.556>
VStem: 20.5 98<520.623 631.575> 280.5 98<519.971 632.222>
LayerCount: 2
Fore
SplineSet
26.5 358.5 m 1
 371.5 362.5 l 1
 367.5 273 l 1
 27.5 277 l 1
 26.5 358.5 l 1
118.5 576 m 0
 118.5 527.632653061 150.517857143 497 200 497 c 0
 249.763636363 497 280.5 527.632653061 280.5 576 c 0
 280.5 623.125 249.763636363 654 200 654 c 0
 150.517857143 654 118.5 623.125 118.5 576 c 0
20.5 577 m 0
 20.5 682 89.5967741936 748 199 748 c 0
 308.427807487 748 378.5 682 378.5 577 c 0
 378.5 471 308.427807487 403 199 403 c 0
 89.5967741936 403 20.5 471 20.5 577 c 0
EndSplineSet
EndChar

StartChar: germandbls
Encoding: 157 223 142
Width: 688
Flags: W
HStem: 0 21G<123.335 258.637> 387.25 109.75<25.5 188.5> 660.874 113.97<277.542 446.524>
VStem: 107.119 132.533<495.719 622.488> 123.335 135.302<0 392.25 399.965 478.89> 126.002 62.4981<392.25 493> 335 136.932<322.859 387.671> 493.009 128.991<499.043 618.12> 516.438 136.852<121.891 192.659>
LayerCount: 2
Fore
SplineSet
190 493 m 1xe6
 188.5 392.25 l 1
 22 387.25 l 1
 25.5 497 l 1
 190 493 l 1xe6
125.984375 412.096679688 m 2
 125.995907942 413.890543081 126.00185328 415.655862393 126.00185328 417.39366833 c 0xe6
 126.00185328 495.3031175 107.119140625 516.026250873 107.119140625 578.5 c 0
 107.119140625 696.943226654 199.450514592 774.84375 362.01953125 774.84375 c 0
 518.316860611 774.84375 622 702.91253206 622 541.93359375 c 0xf3
 622 469.924404618 598.482421875 414.950195312 598.482421875 414.950195312 c 1
 598.482421875 414.950195312 471.931640625 408.84022212 471.931640625 356 c 0
 471.931640625 335.454633192 485.833092068 321.401271858 543.657226562 297.720947266 c 0
 622.558281888 265.152341297 653.2890625 224.906327398 653.2890625 160.75 c 0
 653.2890625 -20.1300992021 370.5390625 -23.900390625 370.5390625 -23.900390625 c 1
 355.819335938 85.650390625 l 1
 355.819335938 85.650390625 516.4375 92.7207433954 516.4375 156.5 c 0xe280
 516.4375 184.893002861 493.896562636 199.632663154 437.036132812 222.950195312 c 0
 360.064741513 255.708493308 335 291.525387032 335 347.75 c 0
 335 432.132067399 399.23687494 476.858751439 487.892578125 500.552734375 c 1
 487.892578125 500.552734375 493.008789062 519.352670305 493.008789062 550.166015625 c 0
 493.008789062 612.705735162 454.640853398 660.874023438 361.5 660.874023438 c 0
 272.178458375 660.874023438 239.65234375 615.07231201 239.65234375 560.75 c 0xf3
 239.65234375 518.229377158 253.848571568 478.889551243 254.637695312 399.96484375 c 2
 258.63671875 0 l 1
 123.334960938 0 l 1xea
 125.984375 412.096679688 l 2
EndSplineSet
EndChar

StartChar: florin
Encoding: 319 402 144
Width: 433
Flags: W
HStem: 387.25 109.75<25.5 237.909> 480 20G<190 399.087>
VStem: 104.869 133.533<496.028 631.235> 125.994 128.644<20 561.475>
LayerCount: 2
Fore
SplineSet
25.5 497 m 1x80
 190 493 l 1
 399.5 500 l 1x40
 397 379 l 1
 187 392.25 l 1
 22 387.25 l 1
 25.5 497 l 1x80
258.63671875 0 m 1
 130.977539062 -189 l 1
 11.9775390625 -118 l 1
 122.307617188 20 l 1
 125.984375 412.096679688 l 2
 125.994026862 413.125973228 125.994140625 414.120894614 125.994140625 415.099609375 c 0x10
 125.994140625 494.065459228 104.869140625 515.800022262 104.869140625 580 c 0
 104.869140625 711.412976765 192.625353692 767.86158329 347.01953125 797.84375 c 1
 367.4765625 684.374023438 l 1
 273.562780385 663.989452319 238.40234375 629.097102624 238.40234375 563.5 c 0x20
 238.40234375 520.252122755 253.835809283 480.165979236 254.637695312 399.96484375 c 2x10
 258.63671875 0 l 1
EndSplineSet
EndChar

StartChar: circumflex
Encoding: 427 710 145
Width: 332
Flags: W
HStem: 534 214
VStem: 10 312
LayerCount: 2
Fore
SplineSet
164 748 m 1
 322 604.5 l 1
 256.5 534 l 1
 165 640 l 1
 71.5 537 l 1
 10 598.5 l 1
 164 748 l 1
EndSplineSet
EndChar

StartChar: caron
Encoding: 428 711 146
Width: 332
Flags: W
HStem: 531 214
VStem: 10 312
LayerCount: 2
Fore
SplineSet
168 531 m 1
 10 674.5 l 1
 75.5 745 l 1
 167 639 l 1
 260.5 742 l 1
 322 680.5 l 1
 168 531 l 1
EndSplineSet
EndChar

StartChar: tilde
Encoding: 434 732 147
Width: 384
Flags: W
HStem: 549.437 198.225 713.706 20G<298 337.003>
LayerCount: 2
Fore
SplineSet
247.571289062 659.129882812 m 1x80
 316.48046875 733.706054688 l 1x40
 376.16015625 675.545898438 l 1
 246.280273438 549.436523438 l 1
 143.08984375 637.967773438 l 1
 65.1806640625 563.390625 l 1
 8.5 624.551757812 l 1
 143.380859375 747.661132812 l 1
 247.571289062 659.129882812 l 1x80
EndSplineSet
EndChar

StartChar: zero.superior
Encoding: 660 8304 148
Width: 449
Flags: W
HStem: 342 102.75<167.463 281.587> 740.25 102.75<167.463 281.587>
VStem: 16.9375 104.938<494.142 689.595> 327.562 104.938<497.07 689.595>
LayerCount: 2
Fore
SplineSet
121.875 591 m 0
 121.875 502 161.5625 444.75 224.4375 444.75 c 0
 287.3125 444.75 327.5625 502 327.5625 591 c 0
 327.5625 682.4375 287.3125 740.25 224.4375 740.25 c 0
 161.5625 740.25 121.875 682.4375 121.875 591 c 0
16.9375 591 m 0
 16.9375 745 97.6875 843 224.4375 843 c 0
 351.625 843 432.5 745 432.5 591 c 0
 432.5 439 351.625 342 224.4375 342 c 0
 97.6875 342 16.9375 439 16.9375 591 c 0
EndSplineSet
EndChar

StartChar: one.superior
Encoding: 119 185 149
Width: 242
Flags: W
HStem: 746.75 90.25<16.75 106.25>
VStem: 103.25 110.25<350 747.75>
LayerCount: 2
Fore
SplineSet
209.9375 837 m 1
 213.5 350 l 1
 103.25 350 l 1
 106.25 747.75 l 1
 14.3125 746.75 l 1
 16.75 837 l 1
 209.9375 837 l 1
EndSplineSet
EndChar

StartChar: two.superior
Encoding: 112 178 150
Width: 396
Flags: W
HStem: 350 97.5625<201.562 371.375> 743.875 99.125<86.3912 226.919>
VStem: 249.25 112.875<593.01 722.076>
LayerCount: 2
Fore
SplineSet
201.5625 447.5625 m 1
 375.125 451.5625 l 1
 371.375 350 l 1
 27.3125 350 l 1
 20.875 423.5625 l 1
 20.875 423.5625 249.25 537.9375 249.25 660.6875 c 0
 249.25 716.8125 218.1875 743.875 164.625 743.875 c 0
 98.0625 743.875 58 700.5 58 700.5 c 1
 18.3125 792.4375 l 1
 18.3125 792.4375 80.75 843 184.9375 843 c 0
 299.625 843 362.125 781 362.125 683 c 0
 362.125 529.875 201.5625 447.5625 201.5625 447.5625 c 1
EndSplineSet
EndChar

StartChar: three.superior
Encoding: 113 179 151
Width: 387
Flags: W
HStem: 343 91.25<39.1459 237.326> 738.938 98.0625<27.3125 211.688>
VStem: 254.938 111.312<454.256 542.864>
LayerCount: 2
Fore
SplineSet
234.0625 630 m 1
 240.8125 630 251.5 629 264.375 625.6875 c 0
 311.5625 614.6875 366.25 577.75 366.25 494.5625 c 0
 366.25 395.5625 292.5 343 178 343 c 0
 62.0625 343 12.875 372 12.875 372 c 1
 37.375 461.25 l 1
 37.375 461.25 88.9375 434.25 160.5 434.25 c 0
 227.0625 434.25 254.9375 459.125 254.9375 500.5 c 0
 254.9375 535.5 227.1875 559.25 172.25 559.25 c 0
 127.9375 559.25 104 549.3125 104 549.3125 c 1
 86.4375 605.75 l 1
 211.6875 738.9375 l 1
 22 736.625 l 1
 27.3125 837 l 1
 345.6875 837 l 1
 352.25 762.5 l 1
 234.0625 630 l 1
EndSplineSet
EndChar

StartChar: four.superior
Encoding: 661 8308 152
Width: 460
Flags: W
HStem: 473.25 88.6875<142.688 435.562>
LayerCount: 2
Fore
SplineSet
358.8125 756.6875 m 1
 362.8125 350 l 1
 257 350 l 1
 261 756.6875 l 1
 358.8125 756.6875 l 1
224.875 854 m 1
 310.625 801.6875 l 1
 142.6875 561.9375 l 1
 437.875 563.25 l 1
 435.5625 469.9375 l 1
 35.125 473.25 l 1
 16.3125 531.9375 l 1
 224.875 854 l 1
EndSplineSet
EndChar

StartChar: five.superior
Encoding: 662 8309 153
Width: 400
Flags: W
HStem: 342.438 91.8125<57.8986 247.082> 580.562 86.1875<128.489 248.504> 741.875 95.125<144.375 342.062>
VStem: 270.875 108.312<458.778 559.964>
LayerCount: 2
Fore
SplineSet
342.0625 740.875 m 1
 144.375 741.875 l 1
 127.625 646.3125 l 1
 127.625 646.3125 150.6875 666.75 215.875 666.75 c 0
 330 666.75 379.1875 604.75 379.1875 510.625 c 0
 379.1875 393.875 303.1875 342.4375 184.1875 342.4375 c 0
 63.75 342.4375 12.875 379 12.875 379 c 1
 38.625 464.375 l 1
 38.625 464.375 94.5625 434.25 171.75 434.25 c 0
 238.3125 434.25 270.875 463.125 270.875 509.0625 c 0
 270.875 552.5625 240.125 580.5625 179.875 580.5625 c 0
 124.625 580.5625 91.3125 549.3125 91.3125 549.3125 c 1
 22.5625 600.5 l 1
 63.6875 837 l 1
 342.0625 837 l 1
 342.0625 740.875 l 1
EndSplineSet
EndChar

StartChar: six.superior
Encoding: 663 8310 154
Width: 411
Flags: W
HStem: 342 92.375<154.608 266.525> 591.562 81.875<153.403 267.146> 752.875 96.125<231.258 329.066>
VStem: 20.875 111.625<457.167 623.164> 288.062 103.188<456.332 570.089>
LayerCount: 2
Fore
SplineSet
328.1875 849 m 1
 340.25 752.875 l 1
 144.3125 739.5625 137.1875 641.5625 137.1875 641.5625 c 1
 137.1875 641.5625 164.25 673.4375 238.3125 673.4375 c 0
 329.625 673.4375 391.25 610.75 391.25 516.0625 c 0
 391.25 421.25 340.9375 342 210.5625 342 c 0
 97.0625 342 20.875 406.9375 20.875 553 c 0
 20.875 695 94.625 835 328.1875 849 c 1
132.5 513.75 m 0
 132.5 465.375 162.9375 434.375 210.5625 434.375 c 0
 258.0625 434.375 288.0625 465.375 288.0625 513.75 c 0
 288.0625 561.6875 258.0625 591.5625 210.5625 591.5625 c 0
 162.9375 591.5625 132.5 561.6875 132.5 513.75 c 0
EndSplineSet
EndChar

StartChar: seven.superior
Encoding: 664 8311 155
Width: 379
Flags: W
HStem: 737.75 99.25<122.062 257.125>
LayerCount: 2
Fore
SplineSet
12.3125 642.75 m 1
 33.4375 837 l 1
 349.3125 837 l 1
 378.8125 773.9375 l 1
 213.5625 338.4375 l 1
 105.5625 372.4375 l 1
 257.125 738.75 l 1
 122.0625 737.75 l 1
 110.5 634.6875 l 1
 12.3125 642.75 l 1
EndSplineSet
EndChar

StartChar: eight.superior
Encoding: 665 8312 156
Width: 408
Flags: W
HStem: 342 92.625<138.003 265.681> 753.5 89.5<152.066 263.872>
VStem: 20.875 102.188<450.611 541.356> 38.4375 101.75<665.922 741.622> 275.312 94.875<654.443 740.031> 279.375 109.25<448.991 529.845>
LayerCount: 2
Fore
SplineSet
201.25 434.625 m 0xe4
 249.6875 434.625 279.375 455.25 279.375 489.25 c 0xe4
 279.375 521.5625 254.625 540.875 181.625 564.25 c 0
 85.75 595.3125 38.4375 639.0625 38.4375 708 c 0
 38.4375 791 104.1875 843 207.8125 843 c 0
 307.4375 843 370.1875 796.4375 370.1875 712.4375 c 0
 370.1875 615 252.9375 579.1875 252.9375 579.1875 c 1
 199.9375 616.1875 l 1
 199.9375 616.1875 275.3125 651.625 275.3125 698.3125 c 0
 275.3125 732.875 249.3125 753.5 207.25 753.5 c 0
 165.625 753.5 140.1875 733.875 140.1875 702.3125 c 0xd8
 140.1875 673.875 159.6875 659.9375 223.125 641.75 c 0
 344.1875 607.625 388.625 568.125 388.625 489.0625 c 0
 388.625 397.3125 319.75 342 205.6875 342 c 0
 95.0625 342 20.875 397 20.875 481 c 0
 20.875 581.4375 133.125 614.25 133.125 614.25 c 1
 191.375 572.6875 l 1
 191.375 572.6875 123.0625 547.0625 123.0625 492.25 c 0
 123.0625 457.25 153.625 434.625 201.25 434.625 c 0xe4
EndSplineSet
EndChar

StartChar: nine.superior
Encoding: 666 8313 157
Width: 411
Flags: W
HStem: 336 96.125<83.0909 181.537> 512.125 81.3125<145.335 259.331> 750.625 92.375<145.913 258.189>
VStem: 20.875 103.188<614.941 728.668> 280.188 111.625<561.836 727.833>
LayerCount: 2
Fore
SplineSet
83.9375 336 m 1
 72.3125 432.125 l 1
 268.8125 445.4375 275.375 544 275.375 544 c 1
 275.375 544 248.3125 512.125 174.25 512.125 c 0
 82.9375 512.125 20.875 574.25 20.875 668.9375 c 0
 20.875 763.75 71.1875 843 202.125 843 c 0
 315.625 843 391.8125 778.0625 391.8125 632 c 0
 391.8125 490 318.0625 350 83.9375 336 c 1
280.1875 671.25 m 0
 280.1875 719.625 250.1875 750.625 202.5625 750.625 c 0
 154.5 750.625 124.0625 719.625 124.0625 671.25 c 0
 124.0625 623.3125 154.5 593.4375 202.5625 593.4375 c 0
 250.1875 593.4375 280.1875 623.3125 280.1875 671.25 c 0
EndSplineSet
EndChar

StartChar: zero.inferior
Encoding: 667 8320 158
Width: 449
Flags: W
HStem: -358 102.75<167.463 281.587> 40.25 102.75<167.463 281.587>
VStem: 16.9375 104.938<-205.858 -10.4049> 327.562 104.938<-202.93 -10.4049>
LayerCount: 2
Fore
SplineSet
121.875 -109 m 0
 121.875 -198 161.5625 -255.25 224.4375 -255.25 c 0
 287.3125 -255.25 327.5625 -198 327.5625 -109 c 0
 327.5625 -17.5625 287.3125 40.25 224.4375 40.25 c 0
 161.5625 40.25 121.875 -17.5625 121.875 -109 c 0
16.9375 -109 m 0
 16.9375 45 97.6875 143 224.4375 143 c 0
 351.625 143 432.5 45 432.5 -109 c 0
 432.5 -261 351.625 -358 224.4375 -358 c 0
 97.6875 -358 16.9375 -261 16.9375 -109 c 0
EndSplineSet
EndChar

StartChar: one.inferior
Encoding: 668 8321 159
Width: 242
Flags: W
HStem: 46.75 90.25<16.75 106.25>
VStem: 103.25 110.25<-350 47.75>
LayerCount: 2
Fore
SplineSet
209.9375 137 m 1
 213.5 -350 l 1
 103.25 -350 l 1
 106.25 47.75 l 1
 14.3125 46.75 l 1
 16.75 137 l 1
 209.9375 137 l 1
EndSplineSet
EndChar

StartChar: two.inferior
Encoding: 669 8322 160
Width: 396
Flags: W
HStem: -350 97.5625<202.125 371.938> 0.9375 21G<49.2835 58> 43.875 99.125<86.2676 227.078>
VStem: 249.812 112.875<-106.99 22.0756>
LayerCount: 2
Fore
SplineSet
202.125 -252.4375 m 1
 375.6875 -248.4375 l 1
 371.9375 -350 l 1
 27.3125 -350 l 1
 20.875 -276.4375 l 1
 20.875 -276.4375 249.8125 -162.0625 249.8125 -39.3125 c 0
 249.8125 16.8125 218.1875 43.875 164.625 43.875 c 0
 98.0625 43.875 58 0.9375 58 0.9375 c 1
 18.3125 92 l 1
 18.3125 92 80.1875 143 184.9375 143 c 0
 299.625 143 362.6875 81 362.6875 -17 c 0
 362.6875 -170.125 202.125 -252.4375 202.125 -252.4375 c 1
EndSplineSet
EndChar

StartChar: three.inferior
Encoding: 670 8323 161
Width: 387
Flags: W
HStem: -357.562 91.8125<39.9669 234.734> 38.375 98.625<27.3125 211.688>
VStem: 254.375 111.312<-245.847 -156.989>
LayerCount: 2
Fore
SplineSet
233.5 -69.4375 m 1
 240.25 -69.4375 250.9375 -70.4375 263.8125 -73.75 c 0
 311 -84.75 365.6875 -121.6875 365.6875 -205.4375 c 0
 365.6875 -305 292.5 -357.5625 178 -357.5625 c 0
 62.0625 -357.5625 12.875 -328 12.875 -328 c 1
 37.375 -238.75 l 1
 37.375 -238.75 88.9375 -265.75 160.5 -265.75 c 0
 226.5 -265.75 254.375 -240.875 254.375 -199.5 c 0
 254.375 -164.5 226.625 -140.75 171.6875 -140.75 c 0
 127.375 -140.75 103.4375 -150.6875 103.4375 -150.6875 c 1
 86.4375 -93.6875 l 1
 211.6875 38.375 l 1
 22 36.0625 l 1
 27.3125 137 l 1
 345.125 137 l 1
 351.6875 61.9375 l 1
 233.5 -69.4375 l 1
EndSplineSet
EndChar

StartChar: four.inferior
Encoding: 671 8324 162
Width: 460
Flags: W
HStem: -226.75 88.6875<142.688 435.562>
LayerCount: 2
Fore
SplineSet
358.8125 58.25 m 1
 362.8125 -350 l 1
 257 -350 l 1
 261 58.25 l 1
 358.8125 58.25 l 1
224.875 155.5625 m 1
 310.625 103.25 l 1
 142.6875 -138.0625 l 1
 437.875 -136.75 l 1
 435.5625 -230.0625 l 1
 35.125 -226.75 l 1
 16.3125 -168.0625 l 1
 224.875 155.5625 l 1
EndSplineSet
EndChar

StartChar: five.inferior
Encoding: 672 8325 163
Width: 400
Flags: W
HStem: -357.562 91.8125<57.8986 247.082> -119.438 86.1875<128.489 248.504> 41.875 95.125<144.375 342.062>
VStem: 270.875 108.312<-241.222 -140.036>
LayerCount: 2
Fore
SplineSet
342.0625 40.875 m 1
 144.375 41.875 l 1
 127.625 -53.6875 l 1
 127.625 -53.6875 150.6875 -33.25 215.875 -33.25 c 0
 330 -33.25 379.1875 -95.25 379.1875 -189.375 c 0
 379.1875 -306.125 303.1875 -357.5625 184.1875 -357.5625 c 0
 63.75 -357.5625 12.875 -321 12.875 -321 c 1
 38.625 -235.625 l 1
 38.625 -235.625 94.5625 -265.75 171.75 -265.75 c 0
 238.3125 -265.75 270.875 -236.875 270.875 -190.9375 c 0
 270.875 -147.4375 240.125 -119.4375 179.875 -119.4375 c 0
 124.625 -119.4375 91.3125 -150.6875 91.3125 -150.6875 c 1
 22.5625 -99.5 l 1
 63.6875 137 l 1
 342.0625 137 l 1
 342.0625 40.875 l 1
EndSplineSet
EndChar

StartChar: six.inferior
Encoding: 673 8326 164
Width: 411
Flags: W
HStem: -358 92.375<154.508 266.684> -108.438 81.875<153.403 267.296> 52.875 96.125<231.51 329.628>
VStem: 20.875 111.625<-242.833 -76.8359> 288.625 103.188<-243.668 -129.911>
LayerCount: 2
Fore
SplineSet
328.75 149 m 1
 340.8125 52.875 l 1
 144.3125 39.5625 137.1875 -58.4375 137.1875 -58.4375 c 1
 137.1875 -58.4375 164.25 -26.5625 238.3125 -26.5625 c 0
 329.625 -26.5625 391.8125 -89.25 391.8125 -183.9375 c 0
 391.8125 -278.75 340.9375 -358 210.5625 -358 c 0
 96.5 -358 20.875 -293.0625 20.875 -147 c 0
 20.875 -5 94.625 135 328.75 149 c 1
132.5 -186.25 m 0
 132.5 -234.625 162.9375 -265.625 210.5625 -265.625 c 0
 258.0625 -265.625 288.625 -234.625 288.625 -186.25 c 0
 288.625 -138.3125 258.0625 -108.4375 210.5625 -108.4375 c 0
 162.9375 -108.4375 132.5 -138.3125 132.5 -186.25 c 0
EndSplineSet
EndChar

StartChar: seven.inferior
Encoding: 674 8327 165
Width: 379
Flags: W
HStem: 37.75 99.25<122.062 257.125>
LayerCount: 2
Fore
SplineSet
12.3125 -57.25 m 1
 33.4375 137 l 1
 349.3125 137 l 1
 378.8125 73.9375 l 1
 213.5625 -361.5625 l 1
 105.5625 -327.5625 l 1
 257.125 38.75 l 1
 122.0625 37.75 l 1
 110.5 -65.3125 l 1
 12.3125 -57.25 l 1
EndSplineSet
EndChar

StartChar: eight.inferior
Encoding: 675 8328 166
Width: 407
Flags: W
HStem: -358 92.625<137.756 265.136> 53.5 89.5<151.796 263.309>
VStem: 20.875 102.188<-249.245 -158.555> 38.4375 101.75<-34.0775 41.6225> 274.75 94.875<-45.8719 39.8197> 278.812 109.25<-251.009 -170.155>
LayerCount: 2
Fore
SplineSet
201.25 -265.375 m 0xe4
 249.125 -265.375 278.8125 -244.75 278.8125 -210.75 c 0xe4
 278.8125 -178.4375 254.625 -159.125 181.625 -135.75 c 0
 85.75 -104.6875 38.4375 -60.9375 38.4375 8 c 0
 38.4375 91 103.625 143 207.25 143 c 0
 306.875 143 369.625 96 369.625 12 c 0
 369.625 -84.875 251.8125 -120.25 251.8125 -120.25 c 1
 198.25 -84.25 l 1
 198.25 -84.25 274.75 -49.375 274.75 -1.6875 c 0
 274.75 32.875 248.75 53.5 206.6875 53.5 c 0
 165.625 53.5 140.1875 33.875 140.1875 2.3125 c 0xd8
 140.1875 -26.125 159.6875 -40.0625 223.125 -58.25 c 0
 343.625 -92.375 388.0625 -131.875 388.0625 -210.9375 c 0
 388.0625 -302.6875 319.1875 -358 205.125 -358 c 0
 94.5 -358 20.875 -302 20.875 -219 c 0
 20.875 -118.5625 132 -85.75 132 -85.75 c 1
 189.6875 -126.75 l 1
 189.6875 -126.75 123.0625 -152.9375 123.0625 -207.75 c 0
 123.0625 -242.75 153.625 -265.375 201.25 -265.375 c 0xe4
EndSplineSet
EndChar

StartChar: nine.inferior
Encoding: 676 8329 167
Width: 411
Flags: W
HStem: -364 96.125<83.0909 181.537> -187.875 81.3125<145.335 259.331> 50.625 92.375<145.913 258.189>
VStem: 20.875 103.188<-85.0586 28.6678> 280.188 111.625<-138.164 27.8335>
LayerCount: 2
Fore
SplineSet
83.9375 -364 m 1
 72.3125 -267.875 l 1
 268.8125 -254.5625 275.375 -156 275.375 -156 c 1
 275.375 -156 248.3125 -187.875 174.25 -187.875 c 0
 82.9375 -187.875 20.875 -125.75 20.875 -31.0625 c 0
 20.875 63.75 71.1875 143 202.125 143 c 0
 315.625 143 391.8125 78.0625 391.8125 -68 c 0
 391.8125 -210 318.0625 -350 83.9375 -364 c 1
280.1875 -28.75 m 0
 280.1875 19.625 250.1875 50.625 202.5625 50.625 c 0
 154.5 50.625 124.0625 19.625 124.0625 -28.75 c 0
 124.0625 -76.6875 154.5 -106.5625 202.5625 -106.5625 c 0
 250.1875 -106.5625 280.1875 -76.6875 280.1875 -28.75 c 0
EndSplineSet
EndChar

StartChar: fraction
Encoding: 655 8260 168
Width: 238
Flags: W
LayerCount: 2
Fore
SplineSet
414.079101562 680.18359375 m 1
 173.208984375 344.049804688 l 1
 -31.4912109375 -17.75 l 1
 -137.8203125 48.25 l 1
 106.908203125 383.950195312 l 1
 314.349609375 745.18359375 l 1
 414.079101562 680.18359375 l 1
EndSplineSet
EndChar

StartChar: perthousand
Encoding: 646 8240 169
Width: 1159
Flags: W
HStem: -10 103.808<619.052 723.663 894.66 999.255> 259.475 103.904<619.052 723.663 894.66 999.255> 365.613 103.808<158.785 269.531> 635.088 103.904<158.785 269.531>
VStem: 27.0205 109.304<492.726 612.719> 292.284 109.336<492.726 612.719> 487.021 110.804<116.441 237.764> 746.284 126.04<126.358 227.598> 779.521 59.5996<64.4329 292.609> 1020.78 110.836<116.441 237.764>
LayerCount: 2
Fore
SplineSet
136.32421875 553.120117188 m 0xfe40
 136.32421875 501.970714116 166.53696967 469.420898438 214.015625 469.420898438 c 0
 261.846471914 469.420898438 292.284179688 501.970714116 292.284179688 553.120117188 c 0
 292.284179688 603.211775579 261.846471914 635.087890625 214.015625 635.087890625 c 0
 166.53696967 635.087890625 136.32421875 603.211775579 136.32421875 553.120117188 c 0xfe40
27.0205078125 553.262695312 m 0
 27.0205078125 666.76434571 99.734458734 738.9921875 214 738.9921875 c 0
 328.656935548 738.9921875 401.620117188 666.76434571 401.620117188 553.262695312 c 0
 401.620117188 438.587857604 328.656935548 365.61328125 214 365.61328125 c 0
 99.734458734 365.61328125 27.0205078125 438.587857604 27.0205078125 553.262695312 c 0
872.32421875 177.506835938 m 0xff40
 872.32421875 126.358124257 901.078042354 93.8076171877 946.265625 93.8076171877 c 0
 991.804824761 93.8076171877 1020.78417969 126.358124257 1020.78417969 177.506835938 c 0
 1020.78417969 227.598827624 991.804824761 259.474609375 946.265625 259.474609375 c 0
 901.078042354 259.474609375 872.32421875 227.598827624 872.32421875 177.506835938 c 0xff40
779.520507812 181.399414062 m 0xfec0
 779.520507812 292.609051626 845.915262703 363.37890625 950.25 363.37890625 c 0
 1061.08744512 363.37890625 1131.62011719 291.150717219 1131.62011719 177.649414062 c 0
 1131.62011719 62.974293421 1061.08744512 -10 950.25 -10 c 0
 845.915262703 -10 779.520507812 64.4326171877 779.520507812 181.399414062 c 0xfec0
597.82421875 177.506835938 m 0
 597.82421875 126.357432866 626.57866403 93.8076171877 671.765625 93.8076171877 c 0
 717.304802204 93.8076171877 746.284179688 126.357432866 746.284179688 177.506835938 c 0xff40
 746.284179688 227.598494329 717.304802204 259.474609375 671.765625 259.474609375 c 0
 626.57866403 259.474609375 597.82421875 227.598494329 597.82421875 177.506835938 c 0
487.020507812 177.649414062 m 0
 487.020507812 291.15106446 557.303913074 363.37890625 667.75 363.37890625 c 0
 772.476362908 363.37890625 839.120117188 292.609391856 839.120117188 181.399414062 c 0xfec0
 839.120117188 64.4329057752 772.476362908 -10 667.75 -10 c 0
 557.303913074 -10 487.020507812 62.9745763542 487.020507812 177.649414062 c 0
EndSplineSet
Refer: 168 8260 N 1 0 0 1 304 0 2
EndChar

StartChar: uni2031
Encoding: 647 8241 170
Width: 1439
Flags: W
HStem: -10 103.808<619.177 723.788 892.764 996.086 1171.21 1275.58> 259.475 103.904<619.177 723.788 892.764 996.086 1171.21 1275.58> 365.613 103.808<158.785 269.531> 635.088 103.904<158.785 269.531>
VStem: 27.0205 109.304<492.726 612.719> 292.284 109.336<492.726 612.719> 487.021 111.054<116.441 237.764> 746.534 125.79<126.358 227.598> 769.521 69.5996<64.4329 292.609> 1017.78 131.79<126.358 227.599> 1059.52 59.5996<64.4326 292.609> 1298.03 113.586<115.394 236.797>
LayerCount: 2
Fore
SplineSet
136.32421875 553.120117188 m 0xfe10
 136.32421875 501.970714116 166.53696967 469.420898438 214.015625 469.420898438 c 0
 261.846471914 469.420898438 292.284179688 501.970714116 292.284179688 553.120117188 c 0
 292.284179688 603.211775579 261.846471914 635.087890625 214.015625 635.087890625 c 0
 166.53696967 635.087890625 136.32421875 603.211775579 136.32421875 553.120117188 c 0xfe10
27.0205078125 553.262695312 m 0
 27.0205078125 666.76434571 99.734458734 738.9921875 214 738.9921875 c 0
 328.656935548 738.9921875 401.620117188 666.76434571 401.620117188 553.262695312 c 0
 401.620117188 438.587857604 328.656935548 365.61328125 214 365.61328125 c 0
 99.734458734 365.61328125 27.0205078125 438.587857604 27.0205078125 553.262695312 c 0
1149.57421875 177.506835938 m 0xfe50
 1149.57421875 126.358124257 1178.32804236 93.8076171877 1223.515625 93.8076171877 c 0
 1269.05482477 93.8076171877 1298.03417969 126.358124257 1298.03417969 177.506835938 c 0
 1298.03417969 227.598827624 1269.05482477 259.474609375 1223.515625 259.474609375 c 0
 1178.32804236 259.474609375 1149.57421875 227.598827624 1149.57421875 177.506835938 c 0xfe50
1059.52050781 181.399414062 m 0xfe30
 1059.52050781 292.609051626 1125.91526271 363.37890625 1230.25 363.37890625 c 0
 1341.08744512 363.37890625 1411.62011719 292.609051626 1411.62011719 181.399414062 c 0
 1411.62011719 64.4326171877 1341.08744512 -10 1230.25 -10 c 0
 1125.91526271 -10 1059.52050781 64.4326171875 1059.52050781 181.399414062 c 0xfe30
872.32421875 177.506835938 m 0xff50
 872.32421875 126.358124257 900.203077888 93.8076171877 944.015625 93.8076171877 c 0
 989.096490593 93.8076171877 1017.78417969 126.358124257 1017.78417969 177.506835938 c 0
 1017.78417969 227.598827624 989.096490593 259.474609375 944.015625 259.474609375 c 0
 900.203077888 259.474609375 872.32421875 227.598827624 872.32421875 177.506835938 c 0xff50
769.520507812 181.399414062 m 0xfeb0
 769.520507812 292.609051626 837.373594989 363.37890625 944 363.37890625 c 0
 1051.01799547 363.37890625 1119.12011719 292.609051626 1119.12011719 181.399414062 c 0
 1119.12011719 64.4326171875 1051.01799547 -10 944 -10 c 0
 837.373594989 -10 769.520507812 64.4326171875 769.520507812 181.399414062 c 0xfeb0
598.07421875 177.506835938 m 0
 598.07421875 126.357432866 626.82866403 93.8076171877 672.015625 93.8076171877 c 0
 717.554802204 93.8076171877 746.534179688 126.357432866 746.534179688 177.506835938 c 0xff10
 746.534179688 227.598494329 717.554802204 259.474609375 672.015625 259.474609375 c 0
 626.82866403 259.474609375 598.07421875 227.598494329 598.07421875 177.506835938 c 0
487.020507812 177.649414062 m 0
 487.020507812 291.15106446 557.303913074 363.37890625 667.75 363.37890625 c 0
 772.476362908 363.37890625 839.120117188 292.609391856 839.120117188 181.399414062 c 0xfe90
 839.120117188 64.4329057751 772.476362908 -10 667.75 -10 c 0
 557.303913074 -10 487.020507812 62.9745763542 487.020507812 177.649414062 c 0
EndSplineSet
Refer: 168 8260 N 1 0 0 1 304 0 2
EndChar

StartChar: Lslash
Encoding: 255 321 171
Width: 620
Flags: W
HStem: 0 126.293<294.065 599.039> 495 20G<405.247 448.714> 605.084 125.927<21.1201 143.151>
VStem: 138.43 155.635<126.293 605.084>
LayerCount: 2
Fore
SplineSet
443 515 m 9
 477 396 l 17
 259 320.293945312 l 1
 49 207 l 9
 11 329 l 17
 233 403.75 l 1
 443 515 l 9
EndSplineSet
Refer: 44 76 N 1 0 0 1 0 0 2
EndChar

StartChar: lslash
Encoding: 256 322 172
Width: 392
Flags: W
HStem: 0 106.397<269.129 378.539> 649.075 105.927<28.6201 138.151>
VStem: 133.83 135.299<106.397 649.075>
LayerCount: 2
Fore
SplineSet
363 555 m 9
 397 436 l 17
 219 360.293945312 l 1
 49 257 l 9
 11 379 l 17
 193 443.75 l 1
 363 555 l 9
EndSplineSet
Refer: 8 108 N 1 0 0 1 0 0 2
EndChar

StartChar: quoteright
Encoding: 635 8217 173
Width: 229
Flags: W
HStem: 445 320
VStem: 16 189.5
LayerCount: 2
Fore
SplineSet
16 723 m 9
 144 765 l 1
 205.5 626 l 1
 107.5 445 l 1
 19.5 487 l 17
 84 603.5 l 1
 16 723 l 9
EndSplineSet
EndChar

StartChar: uni2120
Encoding: 702 8480 179
Width: 540
Flags: W
VStem: 11.751 80.4072<650.363 692.836> 97.5488 85.6357<542.627 595.266>
LayerCount: 2
Fore
SplineSet
150.276367188 765.357421875 m 1
 150.276367188 765.357421875 11.7509765625 762.795898438 11.7509765625 671.666015625 c 0
 11.7509765625 638.993603065 25.8333439435 618.615710339 69.361328125 598.5625 c 0
 91.8043125354 588.311256561 97.548828125 579.54188858 97.548828125 568.400390625 c 0
 97.548828125 533.100348109 18.888671875 529.173828125 18.888671875 529.173828125 c 1
 29.77734375 462.049804688 l 1
 29.77734375 462.049804688 183.184570312 464.396484375 183.184570312 570.418945312 c 0
 183.184570312 601.449927299 171.555216813 621.344938988 140.114257812 636.760742188 c 0
 99.1006637887 656.964540661 92.158203125 662.763900982 92.158203125 672.774414062 c 0
 92.158203125 699.576318559 162.6171875 705.337890625 162.6171875 705.337890625 c 1
 150.276367188 765.357421875 l 1
241.077148438 695.584960938 m 1
 194.75 693.131835938 l 1
 192.998046875 762.404296875 l 1
 326.591796875 766.404296875 l 1
 375 657.299804688 l 1
 434.099609375 766 l 1
 508.450195312 762.400390625 l 1
 532.049804688 472 l 1
 454.5 466.400390625 l 1
 442.900390625 648.900390625 l 1
 372.200195312 533 l 1
 306.299804688 645.299804688 l 1
 292.700195312 467.599609375 l 1
 223.549804688 473.599609375 l 1
 241.077148438 695.584960938 l 1
EndSplineSet
EndChar

StartChar: trademark
Encoding: 703 8482 180
Width: 608
Flags: W
HStem: 700.7 12.833<78.2109 153.892> 700.732 61.6719<9.19824 78.2109 153.892 223.742>
VStem: 76.4824 79.0312<470 712.7>
LayerCount: 2
Fore
SplineSet
153.891601562 712.700195312 m 1xa0
 155.513671875 470 l 1
 76.482421875 470 l 1
 78.2109375 713.533203125 l 1
 153.891601562 712.700195312 l 1xa0
116.841796875 700.700195312 m 1
 7.75 700.732421875 l 1
 9.1982421875 762.404296875 l 1
 223.7421875 762.404296875 l 1x60
 226.095703125 699.099609375 l 1
 116.841796875 700.700195312 l 1
308.27734375 695.584960938 m 1
 261.950195312 693.131835938 l 1
 260.198242188 762.404296875 l 1
 393.791992188 766.404296875 l 1
 442.200195312 657.299804688 l 1
 501.299804688 766 l 1
 575.650390625 762.400390625 l 1
 599.25 472 l 1
 521.700195312 466.400390625 l 1
 510.099609375 648.900390625 l 1
 439.400390625 533 l 1
 373.5 645.299804688 l 1
 359.900390625 467.599609375 l 1
 290.75 473.599609375 l 1
 308.27734375 695.584960938 l 1
EndSplineSet
EndChar

StartChar: uni2117
Encoding: 701 8471 181
Width: 795
Flags: W
HStem: -10.0664 78.377<279.521 516.905> 255.108 84.75<372.005 488.439> 491.506 92.2871<277.371 485.133> 491.506 21.9424<308.554 369.707> 663.14 75.7939<279.521 516.905>
VStem: 27.5 85.5<241.77 489.041> 271.967 99.7393<140.398 281.809 358.424 513.448> 508.53 97.0502<360.219 468.324> 689.117 78.3828<241.77 484.465>
LayerCount: 2
Fore
SplineSet
371.706054688 140.3984375 m 1xdf80
 271.966796875 140.3984375 l 1
 275.668945312 513.448242188 l 1
 369.70703125 513.448242188 l 1
 371.706054688 140.3984375 l 1xdf80
351.572265625 358.423828125 m 1
 351.572265625 358.423828125 372.514396039 339.858398438 426.705078125 339.858398438 c 0
 480.335530446 339.858398438 508.529907226 367.87754902 508.529907226 413.1328125 c 0
 508.529907226 465.610433446 477.746624441 491.505859375 409.754882812 491.505859375 c 0
 308.553851583 491.505859375 218.453491211 448.567382812 218.453491211 448.567382812 c 1
 193.691772461 539.302734375 l 1
 193.691772461 539.302734375 261.176870988 583.79296875 419.955078125 583.79296875 c 0xef80
 534.472743443 583.79296875 605.580078125 520.574901212 605.580078125 410.1328125 c 0
 605.580078125 316.112675309 543.803283913 255.108398438 443.955078125 255.108398438 c 0
 375.453596639 255.108398438 334.208984375 281.80859375 334.208984375 281.80859375 c 1
 351.572265625 358.423828125 l 1
27.5 361.93359375 m 0
 27.5 592.322641811 171.194288438 738.93359375 397 738.93359375 c 0
 623.41713413 738.93359375 767.5 592.322641811 767.5 361.93359375 c 0
 767.5 134.599173678 623.41713413 -10.06640625 397 -10.06640625 c 0
 171.194288438 -10.06640625 27.5 134.599173678 27.5 361.93359375 c 0
113 361.93359375 m 0
 113 182.49690135 223.83234375 68.310546875 398 68.310546875 c 0
 575.905417302 68.310546875 689.1171875 182.49690135 689.1171875 361.93359375 c 0
 689.1171875 546.005417306 575.905417302 663.139648438 398 663.139648438 c 0
 223.83234375 663.139648438 113 546.005417306 113 361.93359375 c 0
EndSplineSet
EndChar

StartChar: lira
Encoding: 679 8356 182
Width: 576
Flags: W
HStem: 0 126.293<206.564 541.539> 221.75 101.5<220.739 420.5> 229.75 92.5<21.5 389.465> 361.75 101.5<236.807 430.5> 369.75 92.5<215 403.562>
VStem: 45.9297 160.635<126.293 227.149>
LayerCount: 2
Back
SplineSet
14 326 m 1
 430 327 l 1
 428 218 l 1
 12 226 l 1
 14 326 l 1
24 466 m 1
 440 467 l 1
 438 358 l 1
 22 366 l 1
 24 466 l 1
EndSplineSet
Fore
SplineSet
21.5 322.25 m 1xa4
 208 318.216796875 l 1
 422.5 323.25 l 1
 420.5 221.75 l 1xc4
 190 229.827148438 l 1
 19.5 229.75 l 1
 21.5 322.25 l 1xa4
31.5 462.25 m 1x8c
 225 458.75 l 1
 432.5 463.25 l 1
 430.5 361.75 l 1x94
 215 369.538085938 l 1
 29.5 369.75 l 1
 31.5 462.25 l 1x8c
206.564453125 126.29296875 m 1
 545.159179688 127.930664062 l 1
 541.5390625 0 l 1
 45.9296875 0 l 1
 67.050426973 452.125433501 158.699731842 638.005046291 446.930664062 747.6640625 c 1
 498.798828125 628.604492188 l 1
 313.815313854 559.529771441 220.517317609 412.265424864 206.564453125 126.29296875 c 1
EndSplineSet
EndChar

StartChar: Euro
Encoding: 684 8364 183
Width: 541
Flags: W
HStem: -33.0664 136<411.743 481.504> 246 100<27 250.648> 378 109<362.13 447.978> 613.992 135<420.085 491.356>
LayerCount: 2
Fore
SplineSet
27 346 m 1
 238 339.5078125 l 1
 441.83984375 347 l 1
 421.7734375 238 l 1
 232 252.213867188 l 1
 25 246 l 1
 27 346 l 1
30 486 m 1
 248 472.45703125 l 1
 468.043945312 487 l 1
 447.977539062 378 l 1
 240 387.963867188 l 1
 28 386 l 1
 30 486 l 1
480.5 -33.06640625 m 1
 227.19426944 -11.8298471102 66 120.543550932 66 361.93359375 c 0
 66 598.46956446 231.083154107 728.46176596 490.5 748.9921875 c 1
 507 613.9921875 l 1
 329.776692709 584.693029782 217 515.970810841 217 361.93359375 c 0
 217 203.655253906 312.74741211 134.138413026 500 102.93359375 c 1
 480.5 -33.06640625 l 1
EndSplineSet
EndChar

StartChar: uni20B5
Encoding: 691 8373 184
Width: 461
Flags: W
HStem: 0 21G<240.82 347.82> 91.9014 78.0986<250.32 336.32> 554 65.457<248.32 334.32> 719 20G<236.82 343.82>
VStem: 35 143.22<271.717 447.731>
LayerCount: 2
Fore
SplineSet
347.8203125 0 m 1
 240.8203125 0 l 1
 250.3203125 170 l 1
 336.3203125 170 l 1
 347.8203125 0 l 1
236.8203125 739 m 1
 343.8203125 739 l 1
 334.3203125 554 l 1
 248.3203125 554 l 1
 236.8203125 739 l 1
35 357.576171875 m 0
 35 517.614257812 135.618841862 619.45703125 293.735351562 619.45703125 c 0
 406.329101562 619.45703125 454.184570312 569.0703125 454.184570312 569.0703125 c 1
 412.612304688 472.858398438 l 1
 412.612304688 472.858398438 370.664335777 503.0390625 305.436523438 503.0390625 c 0
 227.69178942 503.0390625 178.219726562 448.854362783 178.219726562 363.708007812 c 0
 178.219726562 269.645619884 222.925313656 209.787109375 310.35546875 209.787109375 c 0
 395.282005771 209.787109375 438.297851562 241.900390625 438.297851562 241.900390625 c 1
 471.774414062 132.869140625 l 1
 471.774414062 132.869140625 428.375976562 91.9013671875 293.735351562 91.9013671875 c 0
 135.618841862 91.9013671875 35 195.21875 35 357.576171875 c 0
EndSplineSet
EndChar

StartChar: uni20B2
Encoding: 688 8370 185
Width: 542
Flags: W
HStem: 0 21G<240.82 347.82> 91.9014 78.0986<250.32 336.32> 263.989 92.4453<469.916 530.564> 554 65.457<248.32 334.32> 719 20G<236.82 343.82>
VStem: 35 143.22<267.022 447.731> 359.688 170.877<263.989 356.435>
LayerCount: 2
Fore
SplineSet
236.8203125 739 m 1
 343.8203125 739 l 1
 334.3203125 554 l 1
 248.3203125 554 l 1
 236.8203125 739 l 1
347.8203125 0 m 1
 240.8203125 0 l 1
 250.3203125 170 l 1
 336.3203125 170 l 1
 347.8203125 0 l 1
35 357.576171875 m 0
 35 517.614257812 135.61884186 619.45703125 293.735351562 619.45703125 c 0
 406.329101562 619.45703125 454.184570312 566.8203125 454.184570312 566.8203125 c 1
 412.612304688 470.608398438 l 1
 412.612304688 470.608398438 370.664335777 503.0390625 305.436523438 503.0390625 c 0
 227.69178942 503.0390625 178.219726562 448.854362781 178.219726562 363.708007812 c 0
 178.219726562 269.645619885 221.233681164 209.787109375 305.35546875 209.787109375 c 0
 341.228975503 209.787109375 358.556640625 220.848632812 358.556640625 220.848632812 c 1
 359.6875 356.434570312 l 1
 530.564453125 356.434570312 l 1
 532.12109375 263.02734375 l 1
 469.916015625 263.989257812 l 1
 471.774414062 132.119140625 l 1
 471.774414062 132.119140625 413.375976562 91.9013671875 293.735351562 91.9013671875 c 0
 135.61884186 91.9013671875 35 195.21875 35 357.576171875 c 0
EndSplineSet
EndChar

StartChar: uni20AD
Encoding: 685 8365 186
Width: 699
Flags: W
HStem: 0 21G<146.33 302.659> 305.75 115.75<39 233.208> 315.936 96.0321<126.292 446.829> 605.084 125.927<28.6201 150.651>
VStem: 146.33 156.329<0 605.084>
LayerCount: 2
Fore
SplineSet
39 421.5 m 1xd8
 318.5 411.967703143 l 1
 647.5 422.5 l 1
 645.5 297.75 l 1
 322.5 315.935599785 l 1xb8
 37 305.75 l 1
 39 421.5 l 1xd8
297.229492188 731.010742188 m 1
 302.659179688 0 l 1
 146.330078125 0 l 1
 150.651367188 605.083984375 l 1
 25 603.080078125 l 1
 28.6201171875 731.010742188 l 1
 297.229492188 731.010742188 l 1
523 745.0078125 m 1
 649.5 656.0078125 l 1
 391 364 l 1
 674.5 73 l 1
 545.5 -27 l 1
 234 364 l 1
 523 745.0078125 l 1
EndSplineSet
EndChar

StartChar: uni20AE
Encoding: 686 8366 187
Width: 550
Flags: W
HStem: 0 21G<191.83 348.159> 478.75 20G<411.724 470.924> 603 30<196.151 344.104> 603.08 127.931<28.6201 196.151 344.104 513.729>
VStem: 191.83 156.329<0 633>
LayerCount: 2
Fore
SplineSet
54.8798828125 198.96484375 m 1xc8
 270.221679688 259.084960938 l 1
 479.26953125 337.60546875 l 1
 512.74609375 225.115234375 l 1
 292.53515625 177.518554688 l 1
 83.9306640625 100.806640625 l 1
 54.8798828125 198.96484375 l 1xc8
40.58203125 360.109375 m 1
 255.923828125 420.23046875 l 1
 464.971679688 498.75 l 1
 498.448242188 386.259765625 l 1
 278.237304688 338.662109375 l 1
 69.6328125 261.950195312 l 1
 40.58203125 360.109375 l 1
344.103515625 633 m 1xe8
 348.159179688 0 l 1
 191.830078125 0 l 1
 196.151367188 635.083984375 l 1
 344.103515625 633 l 1xe8
272.103515625 603 m 1
 25 603.080078125 l 1
 28.6201171875 731.010742188 l 1
 513.729492188 731.010742188 l 1xd8
 519.61328125 599 l 1
 272.103515625 603 l 1
EndSplineSet
EndChar

StartChar: uni20B1
Encoding: 687 8369 188
Width: 722
Flags: W
HStem: 0 21G<125.271 276.503> 184.934 125.5<276.688 429.626> 289.75 92.5<19.5 214.906> 299.75 86.9668<501.5 648.628> 376.717 44.3213<178 227.581> 386.717 44.3213<575 671.091> 419.75 92.5<21.5 225.34> 429.75 87.5<511.5 666.034> 595.492 143.5<54.773 421.391> 595.492 56.2578<139.618 273.17>
VStem: 125.271 151.232<0 209.434 291.327 335.877 376.717 421.038 507.25 651.75> 509.5 117.917<429.75 522.25>
LayerCount: 2
Fore
SplineSet
501.5 392.25 m 1x9030
 568 386.716796875 l 1
 697.5 393.25 l 1
 695.5 291.75 l 1
 550 301.327148438 l 1
 499.5 299.75 l 1
 501.5 392.25 l 1x9030
511.5 522.25 m 1
 585 517.25 l 1x8130
 704.5 523.25 l 1
 702.5 421.75 l 1
 575 431.038085938 l 1x8430
 509.5 429.75 l 1x8130
 511.5 522.25 l 1
19.5 382.25 m 1xa030
 178 376.716796875 l 1x8830
 243 383.25 l 1
 241 281.75 l 1
 160 291.327148438 l 1
 17.5 289.75 l 1
 19.5 382.25 l 1xa030
21.5 512.25 m 1x8230
 195 507.25 l 1
 243.5 513.25 l 1
 241.5 411.75 l 1
 185 421.038085938 l 1x8830
 19.5 419.75 l 1
 21.5 512.25 l 1x8230
276.502929688 0 m 1
 125.270507812 0 l 1
 131.440429688 651.75 l 1
 273.169921875 651.75 l 1x8070
 276.502929688 0 l 1
221.696289062 335.876953125 m 1
 221.696289062 335.876953125 259.679002007 310.43359375 345.916992188 310.43359375 c 0
 438.220270647 310.43359375 485.416992188 363.71121505 485.416992188 447.43359375 c 0
 485.416992188 537.914157258 437.989363236 595.4921875 322.666992188 595.4921875 c 0
 139.617528826 595.4921875 31.76953125 568.927734375 31.76953125 568.927734375 c 1
 13 709.840820312 l 1
 13 709.840820312 99.0306236138 738.9921875 324.416992188 738.9921875 c 0
 509.583348688 738.9921875 627.416992188 625.414361518 627.416992188 446.93359375 c 0
 627.416992188 286.821289062 525.139009105 184.93359375 364.416992188 184.93359375 c 0xc0b0
 257.270507812 184.93359375 192.7578125 209.43359375 192.7578125 209.43359375 c 1
 221.696289062 335.876953125 l 1
EndSplineSet
EndChar

StartChar: uni20B3
Encoding: 689 8371 189
Width: 768
Flags: W
HStem: 114.462 101.5<103.25 756> 122.462 92.5<12 662.75> 254.462 101.5<133.25 716> 262.462 92.5<52 632.75> 581.569 139.431<98.8193 253.008> 711 20G<94.4395 458.507>
LayerCount: 2
Fore
SplineSet
253.0078125 586.612304688 m 1x04
 98.8193359378 581.569335938 l 1
 94.439453125 721 l 1x08
 451.548828125 731 l 1
 701.450195312 12.6611328125 l 1
 555.426757812 -15 l 1
 374.818359375 551.8671875 l 1
 187.569335938 -15 l 1
 43.2734375 16.75 l 1
 253.0078125 586.612304688 l 1x04
52 354.961914062 m 1x10
 718 355.961914062 l 1
 716 254.461914062 l 1x20
 50 262.461914062 l 1
 52 354.961914062 l 1x10
12 214.961914062 m 1x40
 758 215.961914062 l 1
 756 114.461914062 l 1x80
 10 122.461914062 l 1
 12 214.961914062 l 1x40
EndSplineSet
EndChar

StartChar: uni20B4
Encoding: 690 8372 190
Width: 598
Flags: W
HStem: 231.75 101.5<326.844 541> 239.75 92.5<27 446.612> 371.75 101.5<346.411 571> 379.75 92.5<37 210.552 273 485.769> 718.393 20G<164.464 167.146>
VStem: 83 159.965<181.457 239.411> 340.567 159.769<475.221 559.555>
LayerCount: 2
Fore
SplineSet
167.145507812 738.392578125 m 1x0e
 167.145507812 738.392578125 500.3359375 732.13182602 500.3359375 509.412109375 c 0
 500.3359375 434.562091845 466.572753906 376.610595703 347.184570312 325.155273438 c 0
 258.32491665 288.039410081 242.96484375 265.77650951 242.96484375 231 c 0
 242.96484375 125.877156034 467.115234375 114.182617188 467.115234375 114.182617188 c 1
 451.893554688 -19.8779296875 l 1
 451.893554688 -19.8779296875 83 -14.3346642463 83 236.044921875 c 0
 83 318.533709973 116.111284066 368.059969034 210.551757812 412.400390625 c 0
 316.331542969 462.046630859 340.567382812 484.73686263 340.567382812 521.93359375 c 0
 340.567382812 598.197659945 150.544921875 614.592773438 150.544921875 614.592773438 c 1
 167.145507812 738.392578125 l 1x0e
27 332.25 m 1x4e
 266 326.716796875 l 1
 543 333.25 l 1
 541 231.75 l 1x8e
 248 241.327148438 l 1
 25 239.75 l 1
 27 332.25 l 1x4e
37 472.25 m 1x1e
 283 467.25 l 1
 573 473.25 l 1
 571 371.75 l 1x2e
 273 381.038085938 l 1
 35 379.75 l 1
 37 472.25 l 1x1e
EndSplineSet
EndChar

StartChar: uni20B8
Encoding: 692 8376 191
Width: 590
Flags: W
HStem: 0 21G<211.83 368.159> 423 32.084<216.151 364.104> 423.08 112.931<28.6201 216.151 364.104 553.729> 608.08 122.931<38.6201 543.729>
VStem: 211.83 156.329<0 453>
LayerCount: 2
Fore
SplineSet
277.103515625 423 m 1xd8
 25 423.080078125 l 1
 28.6201171875 536.010742188 l 1
 553.729492188 536.010742188 l 1xb8
 559.61328125 419 l 1
 277.103515625 423 l 1xd8
364.103515625 453 m 1
 368.159179688 0 l 1
 211.830078125 0 l 1
 216.151367188 455.083984375 l 1xd8
 364.103515625 453 l 1
35 608.080078125 m 1
 38.6201171875 731.010742188 l 1
 543.729492188 731.010742188 l 1
 549.61328125 604 l 1
 35 608.080078125 l 1
EndSplineSet
EndChar

StartChar: uni20B9
Encoding: 693 8377 192
Width: 646
Flags: W
HStem: 411.934 109<462.24 619> 419.934 100<125 559.51> 607.992 131<45.0899 310.353>
VStem: 384.917 149<390.003 541.375>
LayerCount: 2
Fore
SplineSet
125 519.93359375 m 1x70
 421 514.93359375 l 1
 621 520.93359375 l 1
 619 411.93359375 l 1xb0
 411 421.221679688 l 1
 123 419.93359375 l 1
 125 519.93359375 l 1x70
131.696289062 364.376953125 m 1
 131.696289062 364.376953125 168.914653431 344.93359375 253.416992188 344.93359375 c 0
 340.425467675 344.93359375 384.916992188 390.82175515 384.916992188 462.93359375 c 0
 384.916992188 551.581298685 325.49777401 607.9921875 203.916992188 607.9921875 c 0
 95.0775393847 607.9921875 34.26953125 582.427734375 34.26953125 582.427734375 c 1
 13 710.840820312 l 1
 13 710.840820312 63.6879174359 738.9921875 226.916992188 738.9921875 c 0
 414.52862056 738.9921875 533.916992188 650.858398438 533.916992188 480.93359375 c 0
 533.916992188 276.903970696 364.883696047 250.313013373 321.815723716 243.891448446 c 0
 314.309797823 241.843082112 309.740234375 241.040039062 309.740234375 241.040039062 c 1
 519.770507812 85.5 l 1
 425.770507812 -37 l 1
 98.2578125 258.43359375 l 1
 131.696289062 364.376953125 l 1
EndSplineSet
EndChar

StartChar: uni20BA
Encoding: 694 8378 193
Width: 643
Flags: W
HStem: -9.99805 133.377<277.979 411.371> 711.01 20G<125.621 271.791>
VStem: 120.348 155.635<127.793 379.085 458.662 731.01>
LayerCount: 2
Fore
SplineSet
16.0478515625 318.96484375 m 1
 231.389648438 379.084960938 l 1
 440.4375 457.60546875 l 1
 474.6640625 345.115234375 l 1
 254.453125 297.518554688 l 1
 45.8486328125 220.806640625 l 1
 16.0478515625 318.96484375 l 1
1.75 480.109375 m 1
 217.091796875 540.23046875 l 1
 426.139648438 618.75 l 1
 460.366210938 506.259765625 l 1
 240.155273438 458.662109375 l 1
 31.55078125 381.950195312 l 1
 1.75 480.109375 l 1
275.982421875 127.79296875 m 1
 275.982421875 127.79296875 291.656317011 123.37890625 321.380859375 123.37890625 c 0
 399.399206354 123.37890625 466.149287976 154.278556991 478.91796875 279.5 c 1
 616.91796875 256 l 1
 593.566856293 105.546875 527.935152721 -9.998046875 299.91796875 -9.998046875 c 0
 191.074421473 -9.998046875 120.34765625 0 120.34765625 0 c 1
 125.76953125 731.009765625 l 1
 271.647460938 731.009765625 l 1
 275.982421875 127.79296875 l 1
EndSplineSet
EndChar

StartChar: breve
Encoding: 430 728 194
Width: 332
Flags: W
HStem: 601 92.5<101.933 237.972>
VStem: 10 312
LayerCount: 2
Fore
SplineSet
168 601 m 0
 71.1695149021 601 10 678 10 678 c 1
 63 748 l 1
 63 748 106.282819864 693.5 167 693.5 c 0
 226.162790698 693.5 273 742 273 742 c 1
 322 684 l 1
 322 684 275.52662722 601 168 601 c 0
EndSplineSet
EndChar

StartChar: dotaccent
Encoding: 431 729 195
Width: 240
Flags: W
HStem: 604.008 135<67.6224 172.378>
VStem: 52.5 135<619.13 723.885>
LayerCount: 2
Fore
SplineSet
52.5 671.5078125 m 0
 52.5 712.758078836 78.7497336648 739.0078125 120 739.0078125 c 0
 161.250266336 739.0078125 187.5 712.758078836 187.5 671.5078125 c 0
 187.5 630.257546164 161.250266336 604.0078125 120 604.0078125 c 0
 78.7497336648 604.0078125 52.5 630.257546164 52.5 671.5078125 c 0
EndSplineSet
EndChar

StartChar: ogonek
Encoding: 433 731 196
Width: 207
Flags: W
HStem: -248 73.5<126.153 195.571>
VStem: 27.5 89<-163.998 -56.5904>
LayerCount: 2
Fore
SplineSet
190 18 m 1
 190 18 116.5 -65.7008797666 116.5 -124 c 0
 116.5 -162.804443617 141.081818182 -173.811363637 201 -174.5 c 1
 195 -248 l 1
 84.4670050759 -242 27.5 -216.730463477 27.5 -136 c 0
 27.5 -47.52 112 22 112 22 c 1
 190 18 l 1
EndSplineSet
EndChar

StartChar: ring
Encoding: 432 730 197
Width: 307
Flags: W
HStem: 493.113 74.3027<117.096 191.924> 664.593 74.3994<116.837 192.186>
VStem: 27.5 83.3838<573.629 659.158> 198.684 81.416<574.01 658.239>
LayerCount: 2
Fore
SplineSet
110.883789062 616.916015625 m 0
 110.883789062 586.666495188 127.836985129 567.416015625 154.479492188 567.416015625 c 0
 181.493159048 567.416015625 198.68359375 586.666495188 198.68359375 616.916015625 c 0
 198.68359375 646.052146276 181.493159048 664.592773438 154.479492188 664.592773438 c 0
 127.836985129 664.592773438 110.883789062 646.052146276 110.883789062 616.916015625 c 0
27.5 617.012695312 m 0
 27.5 691.555683389 76.8808782052 738.9921875 154.479492188 738.9921875 c 0
 231.247446366 738.9921875 280.099609375 688.634077506 280.099609375 609.5 c 0
 280.099609375 538.374486071 231.247446366 493.11328125 154.479492188 493.11328125 c 0
 76.880878205 493.11328125 27.5 541.296070637 27.5 617.012695312 c 0
EndSplineSet
EndChar

StartChar: hungarumlaut
Encoding: 435 733 198
Width: 420
Flags: W
HStem: 509.248 235.246
LayerCount: 2
Fore
SplineSet
323.0078125 744.494140625 m 1
 412.631835938 677.544921875 l 1
 258.493164062 509.248046875 l 1
 201.208984375 553.034179688 l 1
 323.0078125 744.494140625 l 1
133.0078125 744.494140625 m 1
 222.631835938 677.544921875 l 1
 68.4931640625 509.248046875 l 1
 11.208984375 553.034179688 l 1
 133.0078125 744.494140625 l 1
EndSplineSet
EndChar

StartChar: partialdiff
Encoding: 714 8706 199
Width: 615
Flags: W
HStem: -10.0664 126.175<220.54 371.746> 387.759 109.175<223.733 377.849>
VStem: 35 130.625<170.481 330.239> 429.375 150.625<182.927 416.081>
LayerCount: 2
Fore
SplineSet
165.625 248.358398438 m 0
 165.625 167.538802938 216.769198097 116.108398438 292.025390625 116.108398438 c 0
 377.855649905 116.108398438 429.375 171.427680407 429.375 258.358398438 c 0
 429.375 337.436872037 380.628255078 387.758789062 304.025390625 387.758789062 c 0
 219.447010735 387.758789062 165.625 333.548018473 165.625 248.358398438 c 0
35 239.93359375 m 0
 35 403.100373145 126.194654733 496.93359375 269.5 496.93359375 c 0
 390.721544579 496.93359375 445.15234375 427.557617188 445.15234375 427.557617188 c 1
 422.169700582 532.830553477 358.6841689 602.464290717 180.271484375 634.267578125 c 1
 212.770507812 753.510742188 l 1
 466.366194113 732.027172961 580 570.795761438 580 332 c 0
 580 103.182430662 457.397122652 -10.06640625 279 -10.06640625 c 0
 138.540223818 -10.06640625 35 87.155085637 35 239.93359375 c 0
EndSplineSet
EndChar

StartChar: emptyset
Encoding: 715 8709 200
Width: 795
Flags: W
HStem: -10.0664 100.877<283.004 518.138> 640.64 98.2939<286.076 524.103>
VStem: 20 108<243.344 482.978> 674.117 100.883<243.344 482.978>
LayerCount: 2
Fore
SplineSet
710.94921875 726.93359375 m 1
 442.330078125 339.799804688 l 1
 185.37890625 -81 l 1
 84.05078125 -17 l 1
 366.529296875 378.200195312 l 1
 616.220703125 793.93359375 l 1
 710.94921875 726.93359375 l 1
20 361.93359375 m 0
 20 592.322641811 166.610951939 738.93359375 397 738.93359375 c 0
 628.000476926 738.93359375 775 592.322641811 775 361.93359375 c 0
 775 134.599173678 628.000476926 -10.06640625 397 -10.06640625 c 0
 166.610951939 -10.06640625 20 134.599173678 20 361.93359375 c 0
128 361.93359375 m 0
 128 196.246930926 232.9990625 90.810546875 398 90.810546875 c 0
 566.738726451 90.810546875 674.1171875 196.246930926 674.1171875 361.93359375 c 0
 674.1171875 532.255308483 566.738726451 640.639648438 398 640.639648438 c 0
 232.9990625 640.639648438 128 532.255308483 128 361.93359375 c 0
EndSplineSet
EndChar

StartChar: Delta
Encoding: 716 8710 201
Width: 670
Flags: W
HStem: 0 133.317<189.086 477.606> 581.569 139.431<60.8193 215.008> 711 20G<56.4395 420.958>
LayerCount: 2
Fore
SplineSet
215.0078125 586.612304688 m 1xa0
 60.8193359375 581.569335938 l 1
 56.439453125 721 l 1xc0
 413.548828125 731 l 1
 652.5 86 l 1
 635.5 0 l 1
 34.5 0 l 1
 17.5 82 l 1
 215.0078125 586.612304688 l 1xa0
477.606445312 134.631835938 m 1
 336.818359375 551.8671875 l 1
 189.0859375 133.317382812 l 1
 477.606445312 134.631835938 l 1
EndSplineSet
EndChar

StartChar: notequal
Encoding: 726 8800 202
Width: 450
Flags: W
HStem: 189.5 106.75<149.451 417.5> 199.75 102.25<26.75 293.049> 362.5 112.75<40.1552 422.5> 369.75 100.75<28.25 408.845>
LayerCount: 2
Fore
SplineSet
264.026367188 595.234375 m 1x00
 360.624023438 561.822265625 l 1
 255.5859375 316.734375 l 1
 184.977539062 79.6787109375 l 1
 89.2880859375 114.173828125 l 1
 190.828125 341.890625 l 1
 264.026367188 595.234375 l 1x00
EndSplineSet
Refer: 19 61 N 1 0 0 1 0 0 2
EndChar

StartChar: approxequal
Encoding: 725 8776 203
Width: 450
Flags: W
LayerCount: 2
Fore
SplineSet
287.491210938 266.168945312 m 1
 404.650390625 329.280273438 l 1
 446.330078125 254 l 1
 284.950195312 146.959960938 l 1
 162.509765625 237.791015625 l 1
 55.3505859375 170.9296875 l 1
 3.669921875 249.959960938 l 1
 165.05078125 357 l 1
 287.491210938 266.168945312 l 1
287.491210938 471.168945312 m 1
 404.650390625 534.280273438 l 1
 446.330078125 459 l 1
 284.950195312 351.959960938 l 1
 162.509765625 442.791015625 l 1
 55.3505859375 375.9296875 l 1
 3.669921875 454.959960938 l 1
 165.05078125 562 l 1
 287.491210938 471.168945312 l 1
EndSplineSet
EndChar

StartChar: product
Encoding: 717 8719 204
Width: 853
Flags: W
HStem: 595.084 135.927<28.6201 133.151 280.838 572.979 721.073 825.369>
VStem: 128.83 156.329<-173.994 595.084> 568.83 156.329<-173.994 593.628>
LayerCount: 2
Fore
SplineSet
128.830078125 -173.994140625 m 1
 133.151367188 595.083984375 l 1
 25 593.080078125 l 1
 28.6201171875 731.010742188 l 1
 825.369140625 731.010742188 l 1
 828.989257812 593.080078125 l 1
 721.073242188 595.080078125 l 1
 725.159179688 -173.994140625 l 1
 568.830078125 -173.994140625 l 1
 572.979492188 593.627929688 l 1
 280.837890625 595.083984375 l 1
 285.159179688 -173.994140625 l 1
 128.830078125 -173.994140625 l 1
EndSplineSet
EndChar

StartChar: summation
Encoding: 718 8721 205
Width: 670
Flags: W
HStem: -173.994 126.48<221.018 634.039> 603.08 127.931<28.6201 138.151 298.104 626.229>
LayerCount: 2
Fore
SplineSet
626.229492188 731.010742188 m 1
 632.11328125 599 l 1
 298.103515625 603 l 1
 459 301 l 1
 221.017578125 -47.513671875 l 1
 266.064453125 -47.701171875 l 1
 637.659179688 -46.0634765625 l 1
 634.0390625 -173.994140625 l 1
 63.4296875 -173.994140625 l 1
 54.87109375 -47.994140625 l 1
 298.5 302 l 1
 138.151367188 605.083984375 l 1
 25 603.080078125 l 1
 28.6201171875 731.010742188 l 1
 626.229492188 731.010742188 l 1
EndSplineSet
EndChar

StartChar: integral
Encoding: 724 8747 206
Width: 523
Flags: W
LayerCount: 2
Fore
SplineSet
386.51953125 797.84375 m 1
 492.7265625 702.624023438 l 1
 329.137695312 544.96484375 l 1
 278.63671875 10 l 1
 126.477539062 -204 l 1
 4.4775390625 -118 l 1
 142.307617188 30 l 1
 195.984375 592.096679688 l 1
 386.51953125 797.84375 l 1
EndSplineSet
EndChar

StartChar: angleleft
Encoding: 729 9001 268
Width: 382
Flags: W
LayerCount: 2
Fore
SplineSet
159.63671875 300.836914062 m 1
 366 -156.494140625 l 1
 246 -198.994140625 l 1
 16 301.005859375 l 1
 246 791.001953125 l 1
 366 748.501953125 l 1
 159.63671875 300.836914062 l 1
EndSplineSet
EndChar

StartChar: angleright
Encoding: 730 9002 269
Width: 382
Flags: W
LayerCount: 2
Fore
SplineSet
222.36328125 291.170898438 m 1
 16 748.501953125 l 1
 136 791.001953125 l 1
 366 291.001953125 l 1
 136 -198.994140625 l 1
 16 -156.494140625 l 1
 222.36328125 291.170898438 l 1
EndSplineSet
EndChar

StartChar: dcroat
Encoding: 207 273 271
Width: 674
Flags: W
HStem: -10.0664 115<216.068 360.527> 0 105.927<561.849 660.88> 391.934 115<216.068 365.22> 544 100<292 599.38> 735.002 20G<431.875 559.252>
VStem: 27.5 128.75<164.382 330.841> 422.75 139.099<160.155 335.545> 427.271 70.2295<119.332 414.379> 432 127.17<268.934 755.002>
LayerCount: 2
Fore
SplineSet
292 644 m 1x3c
 493 639 l 1
 648 645 l 1
 646 536 l 1
 483 545.288085938 l 1
 290 544 l 1
 292 644 l 1x3c
EndSplineSet
Refer: 5 100 S 1 0 0 1 0 0 2
EndChar

StartChar: Hbar
Encoding: 228 294 272
Width: 830
Flags: W
HStem: 0 21G<138.83 295.159 563.83 720.159> 217.5 127<367.909 604> 228.5 112<237 469.091> 405.434 94<133.308 818> 413.5 85<31 713.692> 605.084 125.927<28.6201 143.151 453.62 568.151>
VStem: 138.83 156.329<0 228.5 340.5 605.084> 233 62.1592<228.5 340.5> 563.83 156.329<0 217.5 344.5 605.084>
LayerCount: 2
Fore
SplineSet
289.729492188 731.010742188 m 1x8680
 295.159179688 0 l 1
 138.830078125 0 l 1
 143.151367188 605.083984375 l 1
 25 603.080078125 l 1
 28.6201171875 731.010742188 l 1
 289.729492188 731.010742188 l 1x8680
714.729492188 731.010742188 m 1
 720.159179688 0 l 1
 563.830078125 0 l 1
 568.151367188 605.083984375 l 1
 450 603.080078125 l 1
 453.620117188 731.010742188 l 1
 714.729492188 731.010742188 l 1
237 340.5 m 1xa580
 608 344.5 l 1
 604 217.5 l 1xc580
 233 228.5 l 1
 237 340.5 l 1xa580
31 498.5 m 1x8c80
 820 499.43359375 l 1
 818 405.43359375 l 1x9480
 29 413.5 l 1
 31 498.5 l 1x8c80
EndSplineSet
EndChar

StartChar: hbar
Encoding: 229 295 273
Width: 645
Flags: W
HStem: 0 21G<126.33 262.659> 392.934 114<307.414 437.668> 556.5 94<243.624 398.5> 564.5 85<19.5 339.725> 735.002 20G<130.537 257.373>
VStem: 126.33 136.329<0 253.934 565.788 755.002> 473.5 132<-2.27343 354.733>
LayerCount: 2
Fore
SplineSet
180.5 253.93359375 m 1xce
 201.798424546 411.989257812 268.972118144 506.93359375 408 506.93359375 c 0
 538.128662109 506.93359375 605.5 429.158185206 605.5 278.93359375 c 0
 605.5 134.376961497 587.659179688 -15 587.659179688 -15 c 1
 453.330078125 0 l 1
 453.330078125 0 473.5 138.27822412 473.5 251.93359375 c 0
 473.5 341.432072129 447.691894531 392.93359375 374.5 392.93359375 c 0
 297.184229395 392.93359375 257.652704462 343.439941406 243.5 216.93359375 c 1
 180.5 253.93359375 l 1xce
19.5 649.5 m 1xde
 203 644.5 l 1
 400.5 650.5 l 1
 398.5 556.5 l 1xee
 193 565.788085938 l 1
 17.5 564.5 l 1
 19.5 649.5 l 1xde
257.229492188 755.001953125 m 1
 262.659179688 0 l 1
 126.330078125 0 l 1
 130.651367188 755.001953125 l 1
 257.229492188 755.001953125 l 1
EndSplineSet
EndChar

StartChar: Tbar
Encoding: 292 358 275
Width: 590
Flags: W
HStem: 0 21G<211.83 368.159> 254 119<373.092 512> 264 107<80 415.947> 603 30<216.151 364.104> 603.08 127.931<21.1201 216.151 364.104 561.229>
VStem: 211.83 156.329<0 633>
LayerCount: 2
Fore
SplineSet
80 371 m 1xa4
 295 367 l 1
 516 373 l 1
 512 254 l 1xc4
 288 265.288085938 l 1
 76 264 l 1
 80 371 l 1xa4
EndSplineSet
Refer: 61 84 N 1 0 0 1 0 0 2
EndChar

StartChar: tbar
Encoding: 293 359 276
Width: 430
Flags: W
HStem: 199.462 101.5<238.258 391.25> 207.462 92.5<7.25 333.19> 387.25 109.75<12.75 278.948> 480 20G<177.25 394.849>
VStem: 115.08 129.049<155.316 466.266>
LayerCount: 2
Fore
SplineSet
7.25 299.961914062 m 1x48
 198.25 294.961914062 l 1
 393.25 300.961914062 l 1
 391.25 199.461914062 l 1x88
 188.25 208.75 l 1
 5.25 207.461914062 l 1
 7.25 299.961914062 l 1x48
EndSplineSet
Refer: 7 116 N 1 0 0 1 0 0 2
EndChar

StartChar: .notdef
Encoding: 738 -1 362
Width: 795
Flags: W
HStem: -10.0664 78.377<279.521 516.905> 141.077 107.7<330.201 419.799> 286.695 112.553<338.522 410.88> 517.689 76.6172<319.706 399.188> 663.14 75.7939<279.521 516.905>
VStem: 27.5 85.5<241.77 489.041> 321.15 107.7<150.128 239.726> 437.138 93.7119<409.589 486.733> 689.117 78.3828<241.77 484.465>
LayerCount: 2
Fore
SplineSet
306.150390625 517.689392089 m 1
 321.069335938 594.306640625 l 1
 464.931697999 574.524979031 530.849609375 530.359347308 530.849609375 445.283203125 c 0
 530.849609375 380.200944424 482.442076573 350.250576055 440.627380372 339.072021484 c 0
 427.614970992 335.443667799 415.508483887 334.351928711 415.508483887 334.351928711 c 1
 410.887390137 282.264648438 l 1
 410.887390137 282.264648438 400.433714984 286.695251464 376.200195312 286.695251464 c 0
 351.558208759 286.695251464 338.512451172 281.064453125 338.512451172 281.064453125 c 1
 333.430969238 400.613952637 l 1
 333.430969238 400.613952637 345.897815297 399.248352051 370.724609375 399.248352051 c 0
 409.404758328 399.248352051 437.137695312 413.126854791 437.137695312 450.077148438 c 0
 437.137695312 488.773241521 397.472650332 506.615389499 306.150390625 517.689392089 c 1
321.149780274 194.926818847 m 0
 321.149780274 227.835498936 342.091319912 248.777038574 375 248.777038574 c 0
 407.908680088 248.777038574 428.850219726 227.835498936 428.850219726 194.926818847 c 0
 428.850219726 162.018474455 407.908680088 141.077148438 375 141.077148438 c 0
 342.091319912 141.077148438 321.149780274 162.018474455 321.149780274 194.926818847 c 0
27.5 361.93359375 m 0
 27.5 592.322641811 171.194288438 738.93359375 397 738.93359375 c 0
 623.41713413 738.93359375 767.5 592.322641811 767.5 361.93359375 c 0
 767.5 134.599173678 623.41713413 -10.06640625 397 -10.06640625 c 0
 171.194288438 -10.06640625 27.5 134.599173678 27.5 361.93359375 c 0
113 361.93359375 m 0
 113 182.49690135 223.83234375 68.310546875 398 68.310546875 c 0
 575.905417302 68.310546875 689.1171875 182.49690135 689.1171875 361.93359375 c 0
 689.1171875 546.005417306 575.905417302 663.139648438 398 663.139648438 c 0
 223.83234375 663.139648438 113 546.005417306 113 361.93359375 c 0
EndSplineSet
EndChar

StartChar: uni0326
Encoding: 452 806 363
Width: 0
Flags: W
HStem: -206.337 211.029
VStem: 0 178.296
LayerCount: 2
Fore
SplineSet
80.28125 4.6923828125 m 25
 178.295898438 -57.537109375 l 25
 55.28125 -206.336914062 l 25
 0 -170.5 l 25
 80.28125 4.6923828125 l 25
EndSplineSet
EndChar

StartChar: dcaron
Encoding: 205 271 403
Width: 674
Flags: W
HStem: -10.0664 115<216.068 360.527> 0 105.927<561.849 660.88> 391.934 115<216.068 365.22> 735.002 20G<431.875 559.252>
VStem: 27.5 128.75<164.382 330.841> 422.75 139.099<160.155 335.545> 427.271 70.2295<119.332 414.379> 432 127.17<268.934 755.002> 635 76.5<484 509.508>
LayerCount: 2
Fore
SplineSet
769.5 737.2421875 m 1x3880
 711.5 478.25 l 25
 635 484 l 1
 625 751 l 25
 769.5 737.2421875 l 1x3880
EndSplineSet
Refer: 5 100 N 1 0 0 1 0 0 2
EndChar

StartChar: Lcaron
Encoding: 251 317 404
Width: 620
Flags: W
HStem: 0 126.293<294.065 599.039> 605.084 125.927<21.1201 143.151>
VStem: 138.43 155.635<126.293 605.084>
LayerCount: 2
Fore
SplineSet
614.5 731.2421875 m 1
 545.25 478.25 l 1
 465 484 l 1
 466.25 751 l 1
 614.5 731.2421875 l 1
EndSplineSet
Refer: 44 76 N 1 0 0 1 0 0 2
EndChar

StartChar: lcaron
Encoding: 252 318 405
Width: 392
Flags: W
HStem: 0 106.397<269.129 378.539> 649.075 105.927<28.6201 138.151>
VStem: 133.83 135.299<106.397 649.075>
LayerCount: 2
Fore
SplineSet
508.5 731.2421875 m 1
 439.25 478.25 l 25
 359 484 l 1
 360.25 751 l 25
 508.5 731.2421875 l 1
EndSplineSet
Refer: 8 108 N 1 0 0 1 0 0 2
EndChar

StartChar: tcaron
Encoding: 291 357 409
Width: 430
Flags: W
HStem: 387.25 109.75<12.75 278.948> 480 20G<177.25 394.849>
VStem: 115.08 129.049<155.316 466.266> 327.25 71.5<551 572.93>
LayerCount: 2
Fore
SplineSet
457 733.4921875 m 1x30
 398.75 551 l 25
 327.25 549 l 1
 330.25 751 l 25
 457 733.4921875 l 1x30
EndSplineSet
Refer: 7 116 N 1 0 0 1 0 0 2
EndChar

StartChar: uni030F
Encoding: 448 783 435
Width: 0
Flags: W
HStem: 509.248 235.246
LayerCount: 2
Fore
SplineSet
97.1240234377 744.494140625 m 1
 218.922851562 553.034179688 l 1
 161.638671875 509.248046875 l 1
 7.5 677.544921875 l 1
 97.1240234377 744.494140625 l 1
287.124023438 744.494140625 m 1
 408.922851562 553.034179688 l 1
 351.638671875 509.248046875 l 1
 197.5 677.544921875 l 1
 287.124023438 744.494140625 l 1
EndSplineSet
EndChar

StartChar: uni031B
Encoding: 450 795 463
Width: 0
Flags: W
HStem: 419 331
VStem: 85.25 116.5<526.675 677.516>
LayerCount: 2
Fore
SplineSet
38.25 717 m 1
 156.75 750 l 1
 156.75 750 201.75 696.444114829 201.75 611 c 0
 201.75 473.893280633 68.25 419 68.25 419 c 1
 21.75 483 l 1
 21.75 483 85.25 521 85.25 597.989257812 c 0
 85.25 661 38.25 717 38.25 717 c 1
EndSplineSet
EndChar

StartChar: Uhorn
Encoding: 322 431 464
Width: 847
Flags: W
HStem: -10 137<345.32 509.029> 605.084 125.927<28.6201 150.151 442.12 559.651>
VStem: 138.517 148.643<191.456 600.833> 568.33 146.812<188.352 589.283> 704.5 115<735.013 785.81>
LayerCount: 2
Fore
SplineSet
659.5 797.5 m 1xe8
 756.5 860.93359375 l 1
 756.5 860.93359375 819.5 823.092273973 819.5 757 c 0
 819.5 677.334821428 758.5 652.379464286 678.5 649.5 c 1
 641.5 731.0078125 l 1
 684.5 731.0078125 704.5 735.544582593 704.5 756 c 0
 704.5 781.797297297 659.5 797.5 659.5 797.5 c 1xe8
EndSplineSet
Refer: 53 85 N 1 0 0 1 0 0 2
EndChar

StartChar: uhorn
Encoding: 323 432 465
Width: 687
Flags: W
HStem: -9.93164 114<208.619 327.709> 0 105.927<517.849 624.38> 423.003 74.0078<501 535.353> 477.002 20G<60.0908 192.17 387.81 515.307>
VStem: 40 132<142.819 500.286> 388 127.17<213.068 497.002> 544.5 115<507.91 584.055>
LayerCount: 2
Fore
SplineSet
495 600.502929688 m 1x2e
 589 654.936523438 l 1
 589 654.936523438 659.5 609.552412684 659.5 536.75 c 0
 659.5 453.969114074 596.929078014 425.588090375 501 423.002929688 c 1
 451.5 497.010742188 l 1
 514.976190477 497.010742188 544.5 508.594176135 544.5 541.752929688 c 0
 544.5 585.812119704 495 600.502929688 495 600.502929688 c 1x2e
EndSplineSet
Refer: 27 117 N 1 0 0 1 0 0 2
EndChar

StartChar: uni01B7
Encoding: 324 439 466
Width: 644
Flags: W
HStem: -183.994 130.75<123 376.673> 589.008 142<43.5 383.098>
VStem: 453.417 154.5<14.1725 176.484>
LayerCount: 2
Fore
SplineSet
338 349.5 m 1
 338 349.5 354.082834013 350.530182397 380.276122733 347.781077584 c 0
 476.372547019 341.73399643 607.916992188 277.044501697 607.916992188 92.556640625 c 0
 607.916992188 -88.6272496369 476.278228656 -183.994140625 269.416992188 -183.994140625 c 0
 80.7072104287 -183.994140625 0.5 -120.842773438 0.5 -120.842773438 c 1
 47.25 4.822265625 l 1
 47.25 4.822265625 120.659462088 -53.244140625 256.416992188 -53.244140625 c 0
 395.223209408 -53.244140625 453.416992188 4.5252821737 453.416992188 95.306640625 c 0
 453.416992188 181.912402026 402.451595529 237.7421875 285.916992188 237.7421875 c 0
 196.698574222 237.7421875 156.5078125 213.93359375 156.5078125 213.93359375 c 1
 121.5 312 l 1
 383.09765625 595.0078125 l 1
 36.5 589.0078125 l 1
 43.5 731.0078125 l 1
 561.516601562 731.0078125 l 1
 584.016601562 630.0078125 l 1
 338 349.5 l 1
EndSplineSet
EndChar

StartChar: uni0292
Encoding: 426 658 467
Width: 498
Flags: W
HStem: -183.994 114.25<71.1645 293.524> 380 117.011<42 278.848>
VStem: 337.167 132.25<-28.5689 91.3607>
LayerCount: 2
Back
SplineSet
20 338 m 5
 30 497 l 5
 399.016601562 497 l 5
 431.016601562 369 l 5
 257.168945312 164 l 5
 441.016601562 170 l 5
 431.016601562 0 l 5
 41 0 l 5
 12 128 l 5
 193.84765625 344 l 5
 20 338 l 5
EndSplineSet
Fore
SplineSet
276.75 217.25 m 1
 276.75 217.25 288.776332337 218.150448582 302.186033365 216 c 0
 386.929375762 211.464450696 469.416992188 148.787478398 469.416992188 30.2707519531 c 0
 469.416992188 -115.479640169 368.88931014 -183.994140625 210.916992188 -183.994140625 c 0
 71.3290030521 -183.994140625 12 -142.342773438 12 -142.342773438 c 1
 38.75 -31.427734375 l 1
 38.75 -31.427734375 86.8022836539 -69.744140625 203.75 -69.744140625 c 0
 289.470933721 -69.744140625 337.166992188 -31.1469107278 337.166992188 29.556640625 c 0
 337.166992188 88.4969377808 297.328625488 126.4921875 219.416992188 126.4921875 c 0
 157.523613047 126.4921875 120.2578125 108.68359375 120.2578125 108.68359375 c 1
 92.5 193.25 l 1
 278.84765625 383.75 l 1
 35 380 l 1
 42 497.010742188 l 1
 423.766601562 497 l 1
 448.516601562 408.75 l 1
 276.75 217.25 l 1
EndSplineSet
EndChar

StartChar: infinity
Encoding: 723 8734 470
Width: 579
Flags: W
HStem: 221 95.5898<356.553 446.869> 221 86.5879<132.471 234.805> 419.634 95.0508<134.139 226.656> 427.315 87.3691<342.264 444.854>
VStem: 27.5 94.5693<318.134 407.777> 456.665 95.6191<326.719 414.924>
LayerCount: 2
Fore
SplineSet
456.665039062 370.404296875 m 0xac
 456.665039062 404.867643117 432.949446881 427.315429688 396.541992188 427.315429688 c 0
 340.824370047 427.315429688 314.979492188 371.619140625 314.979492188 371.619140625 c 1
 276.788085938 435.7109375 l 1
 276.788085938 435.7109375 318.250976562 514.684570312 414.331054688 514.684570312 c 0
 497.181286884 514.684570312 552.284179688 455.794921875 552.284179688 367.248046875 c 0
 552.284179688 276.083984375 495.420566321 221 401.311523438 221 c 0x9c
 321.912881734 221 279.409602307 257.99609375 247.903320312 354.533203125 c 0
 232.402332866 402.424976239 214.10205144 419.633789062 182.170898438 419.633789062 c 0
 145.107140392 419.633789062 122.069335938 398.037611324 122.069335938 363.291015625 c 0
 122.069335938 328.652973548 144.740732341 307.587890625 182.021484375 307.587890625 c 0
 240.595970657 307.587890625 276.307617188 379.928710938 276.307617188 379.928710938 c 1
 309.377929688 308.771484375 l 1
 309.377929688 308.771484375 269.056640625 221 162.53515625 221 c 0x6c
 79.7836111567 221 27.5 280.737304688 27.5 367.000976562 c 0
 27.5 457.278320312 84.9283545935 514.684570312 175.237304688 514.684570312 c 0
 255.69496639 514.684570312 302.163745392 463.3125 330.504882812 388.341796875 c 0
 351.529916614 332.307370416 370.042006019 316.58984375 400.116210938 316.58984375 c 0
 435.183767965 316.58984375 456.665039062 337.031916242 456.665039062 370.404296875 c 0xac
EndSplineSet
EndChar

StartChar: radical
Encoding: 722 8730 471
Width: 659
Flags: W
HStem: 0 21G<245.473 411> 491 20G<10 219.917>
LayerCount: 2
Fore
SplineSet
404.607421875 0 m 1
 252.174804688 0 l 1
 120.151367188 394 l 1
 17.0458984375 386 l 1
 10 497 l 1
 213.546875 511 l 1
 330.405273438 144.1328125 l 1
 518 783 l 1
 644 749 l 1
 404.607421875 0 l 1
EndSplineSet
EndChar

StartChar: lessequal
Encoding: 727 8804 472
Width: 450
Flags: W
HStem: 85.75 112.5<117.889 415> 94.75 103.5<36 330.111>
LayerCount: 2
Fore
SplineSet
239.37109375 441.5 m 1x00
 420.349609375 346 l 1
 367.849609375 242 l 1
 29.650390625 432 l 1
 367.849609375 651 l 1
 420.349609375 547 l 1
 239.37109375 441.5 l 1x00
36 198.25 m 1x40
 417 198.25 l 1x40
 415 85.75 l 1x80
 33 94.75 l 1
 36 198.25 l 1x40
EndSplineSet
EndChar

StartChar: greaterequal
Encoding: 728 8805 473
Width: 450
Flags: W
HStem: 85.75 112.5<117.889 415> 94.75 103.5<36 330.111>
LayerCount: 2
Fore
SplineSet
210.62890625 451.5 m 1x00
 29.650390625 547 l 1
 82.150390625 651 l 1
 420.349609375 461 l 1
 82.150390625 242 l 1
 29.650390625 346 l 1
 210.62890625 451.5 l 1x00
36 198.25 m 1x40
 417 198.25 l 1x40
 415 85.75 l 1x80
 33 94.75 l 1
 36 198.25 l 1x40
EndSplineSet
EndChar

StartChar: three.ss01.superior
Encoding: 739 -1 507
Width: 390
Flags: W
HStem: 342 91.125<41.9589 241.843> 558.125 80.75<98.3217 232.8> 748.5 94.5<59.266 231.669>
VStem: 246.375 111.312<655.575 733.908> 262.375 108.312<453.732 539.835>
LayerCount: 2
Fore
SplineSet
37.375 461.8125 m 1xe8
 37.375 461.8125 88.125 433.125 158.875 433.125 c 0
 228.6875 433.125 262.375 457.875 262.375 497 c 0xe8
 262.375 534.8125 230.6875 558.125 160.3125 558.125 c 0
 110.75 558.125 98.3125 554.125 98.3125 554.125 c 1
 98.3125 641.3125 l 1
 98.3125 641.3125 110.3125 638.875 150.875 638.875 c 0
 218.375 638.875 246.375 660.625 246.375 693.3125 c 0
 246.375 727.875 219.625 748.5 158.3125 748.5 c 0
 90.5 748.5 45.8125 719.9375 45.8125 719.9375 c 1
 21.3125 813.4375 l 1
 21.3125 813.4375 67.5 843 175.4375 843 c 0
 288.375 843 357.6875 793 357.6875 712 c 0xf0
 357.6875 626.75 276.625 603.1875 276.625 603.1875 c 1
 276.625 603.1875 370.6875 583.3125 370.6875 480.5625 c 0
 370.6875 395.5625 296.5 342 180 342 c 0
 62.625 342 12.875 372 12.875 372 c 1
 37.375 461.8125 l 1xe8
EndSplineSet
EndChar

StartChar: five.ss02.superior
Encoding: 740 -1 508
Width: 402
Flags: W
HStem: 343 91.25<58.6685 248.894> 581.125 85.625<129.206 252.851> 740.875 140.688<278 354.438> 741.875 95.125<146.062 272.438>
VStem: 273.125 108.312<458.95 560.25> 278 76.4375<837 881.562>
LayerCount: 2
Fore
SplineSet
354.4375 740.875 m 1xe4
 146.0625 741.875 l 1
 128.75 646.875 l 1
 128.75 646.875 152.375 666.75 217.5625 666.75 c 0
 331.6875 666.75 381.4375 604.1875 381.4375 510.625 c 0
 381.4375 393.875 304.875 343 185.3125 343 c 0
 64.3125 343 12.875 379 12.875 379 c 1
 39.75 464.375 l 1
 39.75 464.375 95.6875 434.25 173.4375 434.25 c 0
 240.5625 434.25 273.125 463.6875 273.125 509.625 c 0
 273.125 553.6875 242.375 581.125 182.125 581.125 c 0
 126.875 581.125 93 549.3125 93 549.3125 c 1
 23.6875 601.0625 l 1
 65.9375 837 l 1
 272.4375 837 l 1xd8
 278 881.5625 l 1
 354.4375 883 l 1
 354.4375 740.875 l 1xe4
EndSplineSet
EndChar

StartChar: three.ss01.inferior
Encoding: 741 -1 509
Width: 390
Flags: W
HStem: -358 91.125<41.9747 241.777> -141.875 80.75<98.4475 233.028> 48.5 94.5<59.9454 231.591>
VStem: 246.375 111.312<-44.3869 33.7922> 262.375 108.312<-246.057 -161.55>
LayerCount: 2
Fore
SplineSet
37.375 -238.1875 m 1xe8
 37.375 -238.1875 88.25 -266.875 159 -266.875 c 0
 228.25 -266.875 262.375 -242.125 262.375 -203 c 0xe8
 262.375 -165.1875 231.375 -141.875 161 -141.875 c 0
 112 -141.875 98.4375 -145.875 98.4375 -145.875 c 1
 98.4375 -58.125 l 1
 98.4375 -58.125 111 -61.125 151.4375 -61.125 c 0
 218.8125 -61.125 246.375 -39.375 246.375 -6.6875 c 0
 246.375 27.875 219.0625 48.5 158.3125 48.5 c 0
 90.625 48.5 45.9375 19.5 45.9375 19.5 c 1
 21.3125 113 l 1
 21.3125 113 67.5 143 175.4375 143 c 0
 288.375 143 357.6875 92 357.6875 12 c 0xf0
 357.6875 -73.25 277.1875 -96.375 277.1875 -96.375 c 1
 277.1875 -96.375 370.6875 -116.25 370.6875 -219 c 0
 370.6875 -304 296.5 -358 180 -358 c 0
 62.625 -358 12.875 -328 12.875 -328 c 1
 37.375 -238.1875 l 1xe8
EndSplineSet
EndChar

StartChar: five.ss02.inferior
Encoding: 742 -1 510
Width: 402
Flags: W
HStem: -357 91.25<58.5916 248.76> -118.875 85.625<129.083 252.95> 40.875 141.125<278 354.438> 41.875 95.125<146.062 272.438>
VStem: 273.125 108.312<-241.05 -139.75> 278 76.4375<137 182>
LayerCount: 2
Fore
SplineSet
354.4375 40.875 m 1xe4
 146.0625 41.875 l 1
 128.75 -53.125 l 1
 128.75 -53.125 152.375 -33.25 217.5625 -33.25 c 0
 331.6875 -33.25 381.4375 -95.8125 381.4375 -189.375 c 0
 381.4375 -306.125 304.875 -357 185.3125 -357 c 0
 64.3125 -357 12.875 -321.5625 12.875 -321.5625 c 1
 39.75 -236.0625 l 1
 39.75 -236.0625 95.125 -265.75 172.875 -265.75 c 0
 240 -265.75 273.125 -236.3125 273.125 -190.375 c 0
 273.125 -146.3125 242.9375 -118.875 182.125 -118.875 c 0
 126.3125 -118.875 93 -150.6875 93 -150.6875 c 1
 23.6875 -98.9375 l 1
 65.9375 137 l 1
 272.4375 137 l 1xd8
 278 182 l 1
 354.4375 183 l 1
 354.4375 40.875 l 1xe4
EndSplineSet
EndChar

StartChar: guilsinglleft
Encoding: 651 8249 511
Width: 387
Flags: W
HStem: 491 20G<274.251 315.104>
LayerCount: 2
Fore
SplineSet
178.220703125 257 m 1
 371.69921875 88.5 l 1
 296.69921875 2 l 1
 6 252 l 1
 296.69921875 511 l 1
 371.69921875 429.5 l 1
 178.220703125 257 l 1
EndSplineSet
EndChar

StartChar: guilsinglright
Encoding: 652 8250 512
Width: 387
Flags: W
HStem: 491 20G<72.909 113.506>
LayerCount: 2
Fore
SplineSet
208.728515625 256 m 1
 15.25 424.5 l 1
 90.25 511 l 1
 380.94921875 261 l 1
 90.25 2 l 1
 15.25 83.5 l 1
 208.728515625 256 l 1
EndSplineSet
EndChar

StartChar: dagger
Encoding: 640 8224 513
Width: 520
Flags: W
HStem: 418.434 125<28.25 223.552> 422.845 112.524<57.9485 362.945>
VStem: 184 148.329<-170 113.193 655.652 788.992> 200.116 116.554<198.807 690.811>
LayerCount: 2
Fore
SplineSet
28.25 543.43359375 m 1x80
 253.25 535.369140625 l 1
 494.25 547.43359375 l 1
 491.75 407.43359375 l 1
 255.75 422.844726562 l 1x40
 25.75 418.43359375 l 1
 28.25 543.43359375 l 1x80
326.899414062 788.9921875 m 1
 316.669921875 478 l 1x10
 332.329101562 -170 l 1
 184 -170 l 1x20
 200.116210938 482 l 1x10
 190.169921875 788.9921875 l 1
 326.899414062 788.9921875 l 1
EndSplineSet
EndChar

StartChar: daggerdbl
Encoding: 641 8225 514
Width: 520
Flags: W
HStem: 127.434 125<13.25 221.572> 131.845 112.524<44.9284 369.758> 428.434 125<13.25 221.572> 432.845 112.524<44.9284 369.758>
VStem: 184 148.329<-170 -4.9697 674.236 788.992> 200.5 115.898<92.0731 639.098>
LayerCount: 2
Fore
SplineSet
13.25 252.43359375 m 1x80
 253.25 244.369140625 l 1
 509.25 256.43359375 l 1
 506.75 116.43359375 l 1
 255.75 131.844726562 l 1x40
 10.75 127.43359375 l 1
 13.25 252.43359375 l 1x80
13.25 553.43359375 m 1x20
 253.25 545.369140625 l 1
 509.25 557.43359375 l 1
 506.75 417.43359375 l 1
 255.75 432.844726562 l 1x10
 10.75 428.43359375 l 1
 13.25 553.43359375 l 1x20
326.899414062 788.9921875 m 1
 314.669921875 488 l 1
 316.3984375 219 l 1x04
 332.329101562 -170 l 1
 184 -170 l 1x08
 200.5 219 l 1x04
 202.116210938 492 l 1
 190.169921875 788.9921875 l 1
 326.899414062 788.9921875 l 1
EndSplineSet
EndChar

StartChar: uni20A6
Encoding: 680 8358 515
Width: 831
Flags: W
HStem: -10 21G<542.103 696.539> 0 21G<140.21 286.539> 229.75 92.5<37 219.571> 239.75 86.9668<588 747.712> 316.717 44.3213<203 238> 326.717 44.3213<669 770.743> 359.75 92.5<39 244.985> 369.75 87.5<598 765.389> 711.011 20G<557.836 691.258>
VStem: 140.21 146.329<0 231.327 316.717 361.038 447.25 496.793> 558 133.109<326.717 369.75 457.25 731.011>
LayerCount: 2
Fore
SplineSet
588 332.25 m 1x10e0
 662 326.716796875 l 1
 799 333.25 l 1
 797 231.75 l 1
 644 241.327148438 l 1
 586 239.75 l 1
 588 332.25 l 1x10e0
598 462.25 m 1
 679 457.25 l 1x01e0
 806 463.25 l 1
 804 361.75 l 1
 669 371.038085938 l 1x04e0
 596 369.75 l 1x01e0
 598 462.25 l 1
37 322.25 m 1x20e0
 203 316.716796875 l 1x08e0
 238 323.25 l 1
 236 221.75 l 1
 185 231.327148438 l 1
 35 229.75 l 1
 37 322.25 l 1x20e0
39 452.25 m 1x02e0
 220 447.25 l 1
 261 453.25 l 1
 259 351.75 l 1
 210 361.038085938 l 1x08e0
 37 359.75 l 1
 39 452.25 l 1x02e0
691.109375 731.010742188 m 1
 696.5390625 0 l 1x40e0
 552.709960938 -10 l 1x80e0
 283.92578125 496.79296875 l 1
 286.5390625 0 l 1
 140.209960938 0 l 1x40e0
 144.53125 601.583984375 l 1
 29.3798828125 595.580078125 l 1
 25 731.010742188 l 1
 308.609375 741.010742188 l 1
 554.151367188 262.388671875 l 1
 558 731.010742188 l 1
 691.109375 731.010742188 l 1
EndSplineSet
EndChar

